700 0 1 0           
30 Autodesk Translation Framework 20 ASM 231.6.2.65535 NT 24 Thu Jul 23 01:19:52 2026 
1 9.999999999999999547e-07 1.000000000000000036e-10 
body $1 -1 $-1 $2 $-1 $-1 #
rgb_color-st-attrib $-1 -1 $3 $-1 $0 0.9215686274509803377 0.9215686274509803377 0.9215686274509803377 #
lump $-1 -1 $-1 $-1 $4 $0 #
DXID-attrib $-1 -1 $-1 $1 $0 @10 ASM ENTITY @109 BANDA TRANPORTADORA.IPT|:|0B0DD02BE7012A5281AA175B59AA963545CDF166|:|DA4B9237BACCCDF19C0760CAB7AEC4A8359010B0 #
shell $-1 -1 $-1 $-1 $-1 $5 $-1 $2 #
face $6 -1 $-1 $7 $8 $4 $-1 $9 forward single #
rgb_color-st-attrib $-1 -1 $10 $-1 $5 0 0 0 #
face $11 -1 $-1 $12 $13 $4 $-1 $14 forward single #
loop $-1 -1 $-1 $-1 $15 $5 #
plane-surface $-1 -1 $-1 -3100 0 0 0 0 1 10 0 0 forward_v I I I I #
DXID-attrib $-1 -1 $-1 $6 $5 @10 ASM ENTITY @36 d6eb35fd-67aa-4c7f-b4d1-d25e056daa34 #
rgb_color-st-attrib $-1 -1 $16 $-1 $7 0.01960784313725490169 0.01960784313725490169 0.01960784313725490169 #
face $17 -1 $-1 $18 $19 $4 $-1 $20 forward single #
loop $-1 -1 $-1 $-1 $21 $7 #
cone-surface $-1 -1 $-1 -40 40 -50 0 0 -1 28.28427124746189847 28.28427124746189847 0 1 I I 0 1 39.99999999999999289 forward I I I I #
coedge $-1 -1 $-1 $22 $23 $24 $25 reversed $8 $-1 #
DXID-attrib $-1 -1 $-1 $11 $7 @10 ASM ENTITY @36 8a3720e5-cb14-4ac2-b158-6d35de56bf6e #
rgb_color-st-attrib $-1 -1 $26 $-1 $12 0.01960784313725490169 0.01960784313725490169 0.01960784313725490169 #
face $27 -1 $-1 $28 $29 $4 $-1 $30 forward single #
loop $-1 -1 $-1 $-1 $31 $12 #
plane-surface $-1 -1 $-1 -1550 80 -100 0 1 0 0 0 10 forward_v I I I I #
coedge $-1 -1 $-1 $32 $33 $34 $35 forward $13 $-1 #
coedge $-1 -1 $-1 $36 $15 $37 $38 reversed $8 $-1 #
coedge $-1 -1 $-1 $15 $36 $39 $40 forward $8 $-1 #
coedge $-1 -1 $-1 $33 $32 $15 $25 forward $13 $-1 #
edge $-1 -1 $-1 $41 -0.785398163397448279 $42 2.356194490192344837 $15 $43 forward @7 unknown #
DXID-attrib $-1 -1 $-1 $17 $12 @10 ASM ENTITY @36 196bc13a-8541-4f14-88aa-6a977755a030 #
rgb_color-st-attrib $-1 -1 $44 $-1 $18 0.3529411764705882582 0.3843137254901961009 0.4000000000000000222 #
face $45 -1 $-1 $46 $47 $4 $-1 $48 forward single #
loop $-1 -1 $-1 $-1 $49 $18 #
plane-surface $-1 -1 $-1 0 0 -200 -1.031433003522726122e-16 0 -1 -10 0 1.031433003522726146e-15 forward_v I I I I #
coedge $-1 -1 $-1 $50 $37 $32 $51 reversed $19 $-1 #
coedge $-1 -1 $-1 $24 $21 $31 $51 forward $13 $-1 #
coedge $-1 -1 $-1 $21 $24 $52 $53 forward $13 $-1 #
coedge $-1 -1 $-1 $54 $55 $21 $35 reversed $56 $-1 #
edge $-1 -1 $-1 $57 -2.356194490192344837 $58 0.785398163397448279 $34 $59 forward @7 unknown #
coedge $-1 -1 $-1 $23 $22 $60 $61 forward $8 $-1 #
coedge $-1 -1 $-1 $31 $62 $22 $38 forward $19 $-1 #
edge $63 -1 $-1 $64 280 $41 306 $22 $65 forward @7 unknown #
coedge $-1 -1 $-1 $66 $52 $23 $40 reversed $67 $-1 #
edge $68 -1 $-1 $69 280 $42 306 $23 $70 forward @7 unknown #
vertex $-1 -1 $-1 $25 $71 #
vertex $-1 -1 $-1 $25 $72 #
ellipse-curve $-1 -1 $-1 -40 40 0 0 0 -1 28.28427124746189847 28.28427124746189847 0 1 I I #
DXID-attrib $-1 -1 $-1 $27 $18 @10 ASM ENTITY @36 dc5cd7b1-4097-42d0-97b6-1cb7a81fc5fa #
rgb_color-st-attrib $-1 -1 $73 $-1 $28 0.01960784313725490169 0.01960784313725490169 0.01960784313725490169 #
face $74 -1 $-1 $75 $76 $4 $-1 $9 forward single #
loop $-1 -1 $-1 $-1 $77 $28 #
cone-surface $-1 -1 $-1 -3060 40 -149.9999999999998295 0 0 1 -28.28427124746189847 28.28427124746189847 0 1 I I 0 1 39.99999999999999289 forward I I I I #
coedge $-1 -1 $-1 $78 $79 $80 $81 reversed $29 $-1 #
coedge $-1 -1 $-1 $82 $31 $55 $83 forward $19 $-1 #
edge $-1 -1 $-1 $58 -15 $41 5 $31 $84 forward @7 tangent #
coedge $-1 -1 $-1 $39 $85 $33 $53 reversed $67 $-1 #
edge $-1 -1 $-1 $42 -5 $57 15 $52 $86 forward @7 tangent #
coedge $-1 -1 $-1 $87 $34 $85 $88 forward $56 $-1 #
coedge $-1 -1 $-1 $34 $87 $50 $83 reversed $56 $-1 #
loop $-1 -1 $-1 $-1 $34 $89 #
vertex $-1 -1 $-1 $35 $90 #
vertex $-1 -1 $-1 $35 $91 #
ellipse-curve $-1 -1 $-1 -40 40 -200 1.031433003522726122e-16 0 1 28.28427124746189847 28.28427124746189847 0 1 I I #
coedge $-1 -1 $-1 $92 $93 $36 $61 reversed $94 $-1 #
edge $-1 -1 $-1 $64 -4 $69 4 $36 $95 forward @7 unknown #
coedge $-1 -1 $-1 $37 $96 $97 $98 forward $19 $-1 #
DXID-attrib $-1 -1 $-1 $-1 $38 @10 ASM ENTITY @36 11272ad1-9fbf-4460-af84-f1f30da842b7 #
vertex $-1 -1 $-1 $38 $99 #
straight-curve $-1 -1 $-1 -3100 80 0 10 0 0 I I #
coedge $-1 -1 $-1 $100 $39 $101 $102 reversed $67 $-1 #
loop $-1 -1 $-1 $-1 $52 $103 #
DXID-attrib $-1 -1 $-1 $-1 $40 @10 ASM ENTITY @36 b7fcabba-d0fb-403a-8647-6d4e717fe161 #
vertex $-1 -1 $-1 $61 $104 #
straight-curve $-1 -1 $-1 -3100 0 0 10 0 0 F 0 F 310 #
point $-1 -1 $-1 -40 80 0 #
point $-1 -1 $-1 -40 0 0 #
DXID-attrib $-1 -1 $-1 $45 $28 @10 ASM ENTITY @36 9bc3f8f3-33bd-4270-a10e-969922358e26 #
rgb_color-st-attrib $-1 -1 $105 $-1 $46 0.3529411764705882582 0.3843137254901961009 0.4000000000000000222 #
face $106 -1 $-1 $107 $108 $4 $-1 $109 forward single #
loop $-1 -1 $-1 $-1 $110 $46 #
coedge $-1 -1 $-1 $111 $112 $110 $113 forward $47 $-1 #
coedge $-1 -1 $-1 $114 $49 $115 $116 reversed $29 $-1 #
coedge $-1 -1 $-1 $49 $114 $117 $118 forward $29 $-1 #
coedge $-1 -1 $-1 $112 $111 $49 $81 forward $47 $-1 #
edge $-1 -1 $-1 $119 -2.356194490192344837 $120 0.785398163397448279 $49 $121 forward @7 unknown #
coedge $-1 -1 $-1 $122 $50 $123 $124 forward $19 $-1 #
edge $125 -1 $-1 $58 4 $126 30.00000000000001066 $55 $127 forward @7 unknown #
straight-curve $-1 -1 $-1 -40 80 -50 0 0 10 F -27.40000099999999605 F 17.40000099999999961 #
coedge $-1 -1 $-1 $52 $128 $54 $88 reversed $67 $-1 #
straight-curve $-1 -1 $-1 -40 0 -50 0 0 -10 F -17.40000099999999961 F 27.40000099999999605 #
coedge $-1 -1 $-1 $55 $54 $129 $130 forward $56 $-1 #
edge $131 -1 $-1 $57 4 $132 30.00000000000001066 $54 $133 forward @7 unknown #
face $134 -1 $-1 $135 $56 $4 $-1 $30 forward single #
point $-1 -1 $-1 -40 0 -200 #
point $-1 -1 $-1 -40 80 -200 #
coedge $-1 -1 $-1 $136 $60 $137 $138 forward $94 $-1 #
coedge $-1 -1 $-1 $60 $139 $140 $141 forward $94 $-1 #
loop $-1 -1 $-1 $-1 $93 $142 #
straight-curve $-1 -1 $-1 -300 40 0 0 -10 0 I I #
coedge $-1 -1 $-1 $62 $143 $144 $145 forward $19 $-1 #
coedge $-1 -1 $-1 $146 $137 $62 $98 reversed $147 $-1 #
edge $148 -1 $-1 $149 276 $64 280 $62 $65 forward @7 unknown #
point $-1 -1 $-1 -300 80 -5.551115123125782702e-16 #
coedge $-1 -1 $-1 $150 $66 $151 $152 reversed $67 $-1 #
coedge $-1 -1 $-1 $140 $153 $66 $102 forward $154 $-1 #
edge $155 -1 $-1 $156 276 $69 280 $66 $70 forward @7 unknown #
face $157 -1 $-1 $-1 $67 $4 $-1 $158 reversed single #
point $-1 -1 $-1 -300 0 -5.551115123125782702e-16 #
DXID-attrib $-1 -1 $-1 $74 $46 @10 ASM ENTITY @36 72c3b45e-94ae-4077-8873-8fb5f41b81a2 #
rgb_color-st-attrib $-1 -1 $159 $-1 $75 0.6784313725490196401 0.6784313725490196401 0.6784313725490196401 #
face $160 -1 $-1 $161 $162 $4 $-1 $109 forward single #
loop $-1 -1 $-1 $-1 $163 $75 #
plane-surface $-1 -1 $-1 -1130 80 0 0 0 -1 -10 -0 -0 forward_v I I I I #
coedge $-1 -1 $-1 $164 $165 $77 $113 reversed $76 $-1 #
coedge $-1 -1 $-1 $80 $77 $166 $167 forward $47 $-1 #
coedge $-1 -1 $-1 $77 $80 $168 $169 forward $47 $-1 #
edge $-1 -1 $-1 $170 -2.356194490192344837 $171 0.785398163397448279 $110 $172 forward @7 unknown #
coedge $-1 -1 $-1 $79 $78 $173 $174 forward $29 $-1 #
coedge $-1 -1 $-1 $166 $175 $78 $116 forward $19 $-1 #
edge $176 -1 $-1 $177 280 $119 306 $78 $127 forward @7 unknown #
coedge $-1 -1 $-1 $178 $168 $79 $118 reversed $67 $-1 #
edge $179 -1 $-1 $180 280 $120 306 $79 $133 forward @7 unknown #
vertex $-1 -1 $-1 $116 $181 #
vertex $-1 -1 $-1 $81 $182 #
ellipse-curve $-1 -1 $-1 -3060 40 -200 1.031433003522726122e-16 0 1 -28.28427124746189847 -28.28427124746189847 0 1 I I #
coedge $-1 -1 $-1 $183 $82 $184 $185 forward $19 $-1 #
coedge $-1 -1 $-1 $186 $187 $82 $124 reversed $188 $-1 #
edge $189 -1 $-1 $126 30.00000000000001066 $190 34.00000000000001421 $82 $127 forward @7 unknown #
DXID-attrib $-1 -1 $-1 $-1 $83 @10 ASM ENTITY @36 1d36d01b-13f7-4f68-90cd-a6185e044d28 #
vertex $-1 -1 $-1 $83 $191 #
straight-curve $-1 -1 $-1 0 80 -200 -10 0 1.031433003522726146e-15 I I #
coedge $-1 -1 $-1 $85 $192 $193 $194 reversed $67 $-1 #
coedge $-1 -1 $-1 $195 $196 $87 $130 reversed $197 $-1 #
edge $-1 -1 $-1 $132 -4 $126 4 $87 $198 forward @7 unknown #
DXID-attrib $-1 -1 $-1 $-1 $88 @10 ASM ENTITY @36 57cd375f-5976-489b-b00c-4f5af880ef4f #
vertex $-1 -1 $-1 $194 $199 #
straight-curve $-1 -1 $-1 0 0 -200 -10 0 1.031433003522726146e-15 F 0 F 310 #
rgb_color-st-attrib $-1 -1 $200 $-1 $89 0.3529411764705882582 0.3843137254901961009 0.4000000000000000222 #
face $201 -1 $-1 $202 $203 $4 $-1 $30 forward single #
coedge $-1 -1 $-1 $204 $92 $205 $206 reversed $94 $-1 #
coedge $-1 -1 $-1 $97 $207 $92 $138 reversed $147 $-1 #
edge $208 -1 $-1 $64 0 $209 0.5 $92 $210 forward @7 unknown #
coedge $-1 -1 $-1 $93 $204 $211 $212 reversed $94 $-1 #
coedge $-1 -1 $-1 $213 $101 $93 $141 reversed $154 $-1 #
edge $214 -1 $-1 $215 -44.30000000000000426 $69 -8 $93 $210 forward @7 unknown #
face $216 -1 $-1 $217 $94 $4 $-1 $218 forward single #
coedge $-1 -1 $-1 $96 $219 $220 $221 forward $19 $-1 #
coedge $-1 -1 $-1 $222 $223 $96 $145 reversed $224 $-1 #
edge $225 -1 $-1 $226 197 $149 276 $144 $65 forward @7 unknown #
coedge $-1 -1 $-1 $207 $97 $227 $228 forward $147 $-1 #
loop $-1 -1 $-1 $-1 $97 $229 #
DXID-attrib $-1 -1 $-1 $-1 $98 @10 ASM ENTITY @36 75676a71-0952-4b4c-90db-5d40331046d3 #
vertex $-1 -1 $-1 $145 $230 #
coedge $-1 -1 $-1 $231 $100 $163 $232 reversed $67 $-1 #
coedge $-1 -1 $-1 $223 $222 $100 $152 forward $224 $-1 #
edge $233 -1 $-1 $234 197 $156 276 $151 $70 forward @7 unknown #
coedge $-1 -1 $-1 $101 $213 $235 $236 forward $154 $-1 #
loop $-1 -1 $-1 $-1 $101 $237 #
DXID-attrib $-1 -1 $-1 $-1 $102 @10 ASM ENTITY @36 5e252a83-4352-4a9d-8c31-1b112034fe50 #
vertex $-1 -1 $-1 $102 $238 #
rgb_color-st-attrib $-1 -1 $239 $-1 $103 0.01960784313725490169 0.01960784313725490169 0.01960784313725490169 #
plane-surface $-1 -1 $-1 -1550 0 -100 0 1 0 0 0 10 forward_v I I I I #
DXID-attrib $-1 -1 $-1 $106 $75 @10 ASM ENTITY @36 a918b284-f6ee-4d88-8717-d230a7813831 #
DXID-attrib $-1 -1 $-1 $-1 $107 @10 ASM ENTITY @36 88b5a66b-6cd8-46c4-9422-cf93d9cfb243 #
face $240 -1 $-1 $241 $242 $4 $-1 $243 forward single #
loop $-1 -1 $-1 $-1 $220 $107 #
coedge $-1 -1 $-1 $244 $245 $150 $232 forward $108 $-1 #
coedge $-1 -1 $-1 $246 $110 $247 $248 forward $76 $-1 #
coedge $-1 -1 $-1 $110 $246 $249 $250 reversed $76 $-1 #
coedge $-1 -1 $-1 $249 $115 $111 $167 reversed $19 $-1 #
edge $-1 -1 $-1 $171 -14.99999999999998401 $119 4.999999999999984013 $166 $251 forward @7 tangent #
coedge $-1 -1 $-1 $117 $247 $112 $169 reversed $67 $-1 #
edge $-1 -1 $-1 $120 -4.999999999999984013 $170 14.99999999999998401 $168 $252 forward @7 tangent #
vertex $-1 -1 $-1 $113 $253 #
vertex $-1 -1 $-1 $167 $254 #
ellipse-curve $-1 -1 $-1 -3060 40 0 0 0 -1 -28.28427124746189847 28.28427124746189847 0 1 I I #
coedge $-1 -1 $-1 $255 $256 $114 $174 reversed $257 $-1 #
edge $-1 -1 $-1 $177 -4 $180 4 $114 $258 forward @7 unknown #
coedge $-1 -1 $-1 $115 $259 $260 $261 forward $19 $-1 #
DXID-attrib $-1 -1 $-1 $-1 $116 @10 ASM ENTITY @36 d255fb9d-2ec7-48b2-a9fd-cf912de54de4 #
vertex $-1 -1 $-1 $261 $262 #
coedge $-1 -1 $-1 $263 $117 $264 $265 reversed $67 $-1 #
DXID-attrib $-1 -1 $-1 $-1 $118 @10 ASM ENTITY @36 2246a8df-3ff9-4538-b0c7-75bc8f31274e #
vertex $-1 -1 $-1 $174 $266 #
point $-1 -1 $-1 -3060 80 -199.9999999999996874 #
point $-1 -1 $-1 -3060 0 -199.9999999999996874 #
coedge $-1 -1 $-1 $267 $122 $268 $269 forward $19 $-1 #
coedge $-1 -1 $-1 $270 $271 $122 $185 reversed $203 $-1 #
edge $272 -1 $-1 $190 34.00000000000001421 $273 113.0000000000000142 $184 $127 forward @7 unknown #
coedge $-1 -1 $-1 $274 $123 $196 $275 forward $188 $-1 #
coedge $-1 -1 $-1 $123 $274 $276 $277 reversed $188 $-1 #
loop $-1 -1 $-1 $-1 $123 $278 #
DXID-attrib $-1 -1 $-1 $-1 $124 @10 ASM ENTITY @36 a2878cce-0511-4254-a5dc-8ab2733907c4 #
vertex $-1 -1 $-1 $124 $279 #
point $-1 -1 $-1 -300.0000000000001137 80 -199.9999999999999716 #
coedge $-1 -1 $-1 $128 $280 $281 $282 reversed $67 $-1 #
coedge $-1 -1 $-1 $283 $284 $128 $194 forward $285 $-1 #
edge $286 -1 $-1 $132 30.00000000000001066 $287 34.00000000000001421 $128 $133 forward @7 unknown #
coedge $-1 -1 $-1 $288 $129 $284 $289 reversed $197 $-1 #
coedge $-1 -1 $-1 $129 $290 $186 $275 reversed $197 $-1 #
loop $-1 -1 $-1 $-1 $291 $292 #
straight-curve $-1 -1 $-1 -300.0000000000001137 40 -199.9999999999999716 0 10 0 I I #
point $-1 -1 $-1 -300.0000000000001137 0 -199.9999999999999716 #
DXID-attrib $-1 -1 $-1 $134 $89 @10 ASM ENTITY @36 b39c77f0-1bd7-4aad-816c-5bae9367d0e6 #
rgb_color-st-attrib $-1 -1 $293 $-1 $135 0.3529411764705882582 0.3843137254901961009 0.4000000000000000222 #
face $294 -1 $-1 $295 $296 $4 $-1 $30 forward single #
loop $-1 -1 $-1 $-1 $270 $135 #
coedge $-1 -1 $-1 $139 $136 $297 $298 forward $94 $-1 #
coedge $-1 -1 $-1 $299 $300 $136 $206 forward $301 $-1 #
edge $302 -1 $-1 $303 0 $209 4 $136 $304 forward @7 unknown #
coedge $-1 -1 $-1 $137 $146 $299 $305 reversed $147 $-1 #
DXID-attrib $-1 -1 $-1 $-1 $138 @10 ASM ENTITY @36 a8a7328e-d638-47eb-8916-bdbfd3ed4767 #
vertex $-1 -1 $-1 $305 $306 #
straight-curve $-1 -1 $-1 -300 80 -5.551115123125782702e-16 0 10 0 I I #
coedge $-1 -1 $-1 $307 $308 $139 $212 forward $309 $-1 #
edge $310 -1 $-1 $215 -4 $311 -0 $139 $312 forward @7 unknown #
coedge $-1 -1 $-1 $153 $140 $308 $313 reversed $154 $-1 #
DXID-attrib $-1 -1 $-1 $-1 $141 @10 ASM ENTITY @36 16c47253-9375-4b79-9408-f4fec31ffa3c #
vertex $-1 -1 $-1 $141 $314 #
rgb_color-st-attrib $-1 -1 $315 $-1 $142 0.6784313725490196401 0.6784313725490196401 0.6784313725490196401 #
face $316 -1 $-1 $317 $301 $4 $-1 $318 forward single #
plane-surface $-1 -1 $-1 -300 80 40 1 0 0 0 0 -10 forward_v I I I I #
coedge $-1 -1 $-1 $143 $319 $320 $321 forward $19 $-1 #
coedge $-1 -1 $-1 $322 $323 $143 $221 reversed $162 $-1 #
edge $324 -1 $-1 $325 193 $226 197 $143 $65 forward @7 unknown #
coedge $-1 -1 $-1 $151 $144 $326 $327 forward $224 $-1 #
coedge $-1 -1 $-1 $144 $151 $328 $329 forward $224 $-1 #
loop $-1 -1 $-1 $-1 $222 $330 #
DXID-attrib $-1 -1 $-1 $-1 $145 @10 ASM ENTITY @36 2bc84b73-be1b-4d4b-99d2-f3dabf7f0451 #
vertex $-1 -1 $-1 $221 $331 #
coedge $-1 -1 $-1 $328 $332 $146 $228 reversed $333 $-1 #
edge $334 -1 $-1 $149 0 $335 0.5 $146 $336 forward @7 unknown #
face $337 -1 $-1 $338 $147 $4 $-1 $339 forward single #
point $-1 -1 $-1 -340 80 0 #
coedge $-1 -1 $-1 $340 $150 $341 $342 reversed $67 $-1 #
edge $343 -1 $-1 $344 193 $234 197 $150 $70 forward @7 unknown #
DXID-attrib $-1 -1 $-1 $-1 $152 @10 ASM ENTITY @36 6c1499a2-e9bd-427e-85dd-248c363d4c49 #
vertex $-1 -1 $-1 $232 $345 #
coedge $-1 -1 $-1 $346 $328 $153 $236 reversed $333 $-1 #
edge $347 -1 $-1 $348 -44.30000000000000426 $156 -8 $153 $336 forward @7 unknown #
face $349 -1 $-1 $229 $154 $4 $-1 $339 forward single #
point $-1 -1 $-1 -340 0 0 #
DXID-attrib $-1 -1 $-1 $157 $103 @10 ASM ENTITY @36 0bcba7ca-c149-4a72-bf8f-25d3f4f6eb8d #
rgb_color-st-attrib $-1 -1 $350 $-1 $161 0.6784313725490196401 0.6784313725490196401 0.6784313725490196401 #
face $351 -1 $-1 $352 $353 $4 $-1 $354 forward single #
loop $-1 -1 $-1 $-1 $355 $161 #
plane-surface $-1 -1 $-1 -1150 -363.0000000000000568 20.00000000000010658 0 -1 0 0 0 -10 forward_v I I I I #
coedge $-1 -1 $-1 $356 $163 $357 $358 reversed $108 $-1 #
coedge $-1 -1 $-1 $163 $356 $359 $360 forward $108 $-1 #
coedge $-1 -1 $-1 $165 $164 $361 $362 forward $76 $-1 #
coedge $-1 -1 $-1 $168 $363 $164 $248 reversed $67 $-1 #
edge $364 -1 $-1 $170 4 $365 30 $164 $70 forward @7 unknown #
coedge $-1 -1 $-1 $366 $166 $165 $250 forward $19 $-1 #
edge $367 -1 $-1 $171 4 $368 30 $165 $65 forward @7 unknown #
straight-curve $-1 -1 $-1 -3060 80 -149.9999999999998295 0 0 -10 F -27.40000099999998184 F 17.40000099999998184 #
straight-curve $-1 -1 $-1 -3060 0 -149.9999999999998295 0 0 10 F -17.40000099999998184 F 27.40000099999998184 #
point $-1 -1 $-1 -3060 0 0 #
point $-1 -1 $-1 -3060 80 0 #
coedge $-1 -1 $-1 $369 $173 $370 $371 forward $257 $-1 #
coedge $-1 -1 $-1 $173 $372 $373 $374 forward $257 $-1 #
loop $-1 -1 $-1 $-1 $256 $375 #
straight-curve $-1 -1 $-1 -2800 40 -199.9999999999997158 0 -10 0 I I #
coedge $-1 -1 $-1 $175 $376 $377 $378 forward $19 $-1 #
coedge $-1 -1 $-1 $379 $370 $175 $261 reversed $380 $-1 #
edge $381 -1 $-1 $382 276 $177 280 $175 $127 forward @7 unknown #
point $-1 -1 $-1 -2800 80 -199.9999999999996589 #
coedge $-1 -1 $-1 $383 $178 $384 $385 reversed $67 $-1 #
coedge $-1 -1 $-1 $373 $386 $178 $265 forward $387 $-1 #
edge $388 -1 $-1 $389 276 $180 280 $178 $133 forward @7 unknown #
point $-1 -1 $-1 -2800 0 -199.9999999999996589 #
coedge $-1 -1 $-1 $376 $183 $390 $391 forward $19 $-1 #
coedge $-1 -1 $-1 $392 $393 $183 $269 reversed $394 $-1 #
edge $395 -1 $-1 $273 113.0000000000000142 $396 117.0000000000000142 $183 $127 forward @7 unknown #
coedge $-1 -1 $-1 $281 $184 $397 $398 forward $203 $-1 #
coedge $-1 -1 $-1 $184 $281 $399 $400 forward $203 $-1 #
DXID-attrib $-1 -1 $-1 $-1 $185 @10 ASM ENTITY @36 e2e33140-6f2e-4e7c-bd2c-1f35a5231e2b #
vertex $-1 -1 $-1 $185 $401 #
coedge $-1 -1 $-1 $187 $186 $402 $403 reversed $188 $-1 #
edge $404 -1 $-1 $126 0 $405 0.5 $186 $406 forward @7 unknown #
coedge $-1 -1 $-1 $407 $397 $187 $277 forward $408 $-1 #
edge $409 -1 $-1 $190 0 $410 0.5 $276 $411 forward @7 unknown #
face $412 -1 $-1 $413 $188 $4 $-1 $414 forward single #
point $-1 -1 $-1 -340.0000000000001137 80 -199.9999999999999716 #
coedge $-1 -1 $-1 $192 $415 $416 $417 reversed $67 $-1 #
coedge $-1 -1 $-1 $271 $270 $192 $282 forward $203 $-1 #
edge $418 -1 $-1 $287 34.00000000000001421 $419 113.0000000000000142 $281 $133 forward @7 unknown #
coedge $-1 -1 $-1 $420 $193 $421 $422 reversed $285 $-1 #
coedge $-1 -1 $-1 $193 $420 $195 $289 forward $285 $-1 #
loop $-1 -1 $-1 $-1 $193 $423 #
DXID-attrib $-1 -1 $-1 $-1 $194 @10 ASM ENTITY @36 87ec6fad-5bd1-4d0d-874f-4cbe095497ed #
vertex $-1 -1 $-1 $194 $424 #
coedge $-1 -1 $-1 $291 $195 $425 $426 reversed $197 $-1 #
edge $427 -1 $-1 $428 -44.30000000000000426 $132 -8 $284 $406 forward @7 unknown #
coedge $-1 -1 $-1 $196 $291 $429 $430 reversed $197 $-1 #
coedge $-1 -1 $-1 $290 $288 $431 $432 forward $197 $-1 #
face $433 -1 $-1 $434 $197 $4 $-1 $435 forward single #
DXID-attrib $-1 -1 $-1 $201 $135 @10 ASM ENTITY @36 ce40bbf6-93cf-4d28-b9fc-1f228476cb60 #
rgb_color-st-attrib $-1 -1 $436 $-1 $202 0.3529411764705882582 0.3843137254901961009 0.4000000000000000222 #
face $437 -1 $-1 $438 $439 $4 $-1 $30 forward single #
loop $-1 -1 $-1 $-1 $440 $202 #
coedge $-1 -1 $-1 $441 $442 $204 $298 reversed $443 $-1 #
edge $444 -1 $-1 $303 -0.5 $311 44.30000000000000426 $204 $445 forward @7 unknown #
coedge $-1 -1 $-1 $446 $205 $207 $305 forward $301 $-1 #
coedge $-1 -1 $-1 $205 $446 $441 $447 forward $301 $-1 #
loop $-1 -1 $-1 $-1 $205 $217 #
DXID-attrib $-1 -1 $-1 $-1 $206 @10 ASM ENTITY @36 e67f5681-8a58-402b-8dec-14ad3cabb2b5 #
vertex $-1 -1 $-1 $298 $448 #
straight-curve $-1 -1 $-1 -300 85 40 0 0 -10 I I #
edge $449 -1 $-1 $209 0 $335 4.000000000000014211 $207 $450 forward @7 unknown #
point $-1 -1 $-1 -300 85 0 #
coedge $-1 -1 $-1 $451 $211 $442 $452 forward $309 $-1 #
coedge $-1 -1 $-1 $211 $451 $213 $313 forward $309 $-1 #
loop $-1 -1 $-1 $-1 $211 $338 #
DXID-attrib $-1 -1 $-1 $-1 $212 @10 ASM ENTITY @36 4ad5f45d-5ff2-4e43-b166-b2be981c21f3 #
vertex $-1 -1 $-1 $212 $453 #
straight-curve $-1 -1 $-1 -300 -363.0000000000000568 40 0 0 10 I I #
edge $454 -1 $-1 $348 -4.000000000000014211 $215 -0 $213 $455 forward @7 unknown #
point $-1 -1 $-1 -300 -363.0000000000000568 0 #
DXID-attrib $-1 -1 $-1 $216 $142 @10 ASM ENTITY @36 2b8fd6ec-1480-4ba8-8871-de430f1b329a #
rgb_color-st-attrib $-1 -1 $456 $-1 $217 0 0 0 #
face $457 -1 $-1 $458 $387 $4 $-1 $459 forward single #
plane-surface $-1 -1 $-1 -320.0000000000000568 85 20.00000000000000355 0 1 0 0 0 10 forward_v I I I I #
coedge $-1 -1 $-1 $219 $460 $461 $462 forward $19 $-1 #
coedge $-1 -1 $-1 $463 $464 $219 $321 reversed $465 $-1 #
edge $466 -1 $-1 $467 117 $325 193 $320 $65 forward @7 unknown #
coedge $-1 -1 $-1 $468 $220 $469 $470 forward $162 $-1 #
coedge $-1 -1 $-1 $220 $468 $471 $472 reversed $162 $-1 #
DXID-attrib $-1 -1 $-1 $-1 $221 @10 ASM ENTITY @36 5063af79-06c8-4e32-b597-9b7836645373 #
vertex $-1 -1 $-1 $321 $473 #
coedge $-1 -1 $-1 $471 $357 $222 $327 reversed $474 $-1 #
edge $-1 -1 $-1 $226 -4 $234 4 $222 $475 forward @7 unknown #
coedge $-1 -1 $-1 $235 $227 $223 $329 reversed $333 $-1 #
edge $-1 -1 $-1 $156 -4 $149 4 $223 $476 forward @7 unknown #
face $477 -1 $-1 $103 $224 $4 $-1 $9 forward single #
point $-1 -1 $-1 -1130 80 0 #
coedge $-1 -1 $-1 $227 $478 $446 $479 reversed $333 $-1 #
loop $-1 -1 $-1 $-1 $478 $480 #
DXID-attrib $-1 -1 $-1 $-1 $228 @10 ASM ENTITY @36 944c7a13-86e5-4623-bf0c-d8bb5b1ead6d #
vertex $-1 -1 $-1 $228 $481 #
straight-curve $-1 -1 $-1 -340.0000000000001137 80 3.885780586188046314e-15 0 10 0 I I #
DXID-attrib $-1 -1 $-1 $-1 $229 @10 ASM ENTITY @36 b78b623a-ce4c-41da-af91-d9612f0004e3 #
face $482 -1 $-1 $483 $309 $4 $-1 $484 forward single #
plane-surface $-1 -1 $-1 -300 80 -5.551115123125782702e-16 -1.110223024625152103e-16 0 -1 -10 0 1.110223024625152202e-15 forward_v I I I I #
coedge $-1 -1 $-1 $485 $231 $486 $487 reversed $67 $-1 #
coedge $-1 -1 $-1 $464 $463 $231 $342 forward $465 $-1 #
edge $488 -1 $-1 $489 117 $344 193 $341 $70 forward @7 unknown #
DXID-attrib $-1 -1 $-1 $-1 $232 @10 ASM ENTITY @36 4d90b531-db4d-4dac-9c8c-9be85a5420a7 #
vertex $-1 -1 $-1 $232 $490 #
point $-1 -1 $-1 -1130 0 0 #
coedge $-1 -1 $-1 $478 $235 $451 $491 reversed $333 $-1 #
DXID-attrib $-1 -1 $-1 $-1 $236 @10 ASM ENTITY @36 3642816a-3c56-4db7-861a-28651d301670 #
vertex $-1 -1 $-1 $313 $492 #
rgb_color-st-attrib $-1 -1 $493 $-1 $237 0.6784313725490196401 0.6784313725490196401 0.6784313725490196401 #
DXID-attrib $-1 -1 $-1 $240 $161 @10 ASM ENTITY @36 818b2d74-91e7-4b9d-a2bf-8bc7f49bfc43 #
rgb_color-st-attrib $-1 -1 $494 $-1 $241 0.6784313725490196401 0.6784313725490196401 0.6784313725490196401 #
face $495 -1 $-1 $496 $497 $4 $-1 $498 forward single #
loop $-1 -1 $-1 $-1 $499 $241 #
plane-surface $-1 -1 $-1 -1170 80 40.00000000000021316 2.220446049250313081e-16 0 1 10 0 -2.220446049250313081e-15 forward_v I I I I #
coedge $-1 -1 $-1 $500 $501 $502 $503 forward $242 $-1 #
coedge $-1 -1 $-1 $245 $244 $501 $504 reversed $108 $-1 #
coedge $-1 -1 $-1 $326 $502 $244 $358 forward $474 $-1 #
edge $505 -1 $-1 $506 -44.30000000000000426 $234 -8 $357 $507 forward @7 unknown #
coedge $-1 -1 $-1 $508 $509 $245 $360 reversed $497 $-1 #
edge $510 -1 $-1 $511 -44.30000000000000426 $344 -8 $245 $512 forward @7 unknown #
coedge $-1 -1 $-1 $513 $514 $246 $362 reversed $515 $-1 #
edge $-1 -1 $-1 $365 -4 $368 4 $246 $516 forward @7 unknown #
coedge $-1 -1 $-1 $247 $485 $517 $518 reversed $67 $-1 #
DXID-attrib $-1 -1 $-1 $-1 $248 @10 ASM ENTITY @36 ad0cccd6-9cbc-4f92-a697-1d23d0255dfd #
vertex $-1 -1 $-1 $248 $519 #
coedge $-1 -1 $-1 $460 $249 $520 $521 forward $19 $-1 #
DXID-attrib $-1 -1 $-1 $-1 $250 @10 ASM ENTITY @36 7966d5ba-777a-49f5-9f0c-07d3f6000a6b #
vertex $-1 -1 $-1 $250 $522 #
coedge $-1 -1 $-1 $523 $255 $524 $525 reversed $257 $-1 #
coedge $-1 -1 $-1 $260 $526 $255 $371 reversed $380 $-1 #
edge $527 -1 $-1 $177 0 $528 0.5 $255 $529 forward @7 unknown #
coedge $-1 -1 $-1 $256 $523 $530 $531 reversed $257 $-1 #
coedge $-1 -1 $-1 $532 $264 $256 $374 reversed $387 $-1 #
edge $533 -1 $-1 $534 -44.30000000000000426 $180 -8 $256 $529 forward @7 unknown #
face $535 -1 $-1 $536 $257 $4 $-1 $537 forward single #
coedge $-1 -1 $-1 $259 $267 $538 $539 forward $19 $-1 #
coedge $-1 -1 $-1 $540 $541 $259 $378 reversed $439 $-1 #
edge $542 -1 $-1 $543 197 $382 276 $377 $127 forward @7 unknown #
coedge $-1 -1 $-1 $526 $260 $544 $545 forward $380 $-1 #
loop $-1 -1 $-1 $-1 $260 $458 #
DXID-attrib $-1 -1 $-1 $-1 $261 @10 ASM ENTITY @36 495bf2e7-a127-4e51-9b3c-2b8f3918b1c5 #
vertex $-1 -1 $-1 $378 $546 #
coedge $-1 -1 $-1 $415 $263 $547 $548 reversed $67 $-1 #
coedge $-1 -1 $-1 $541 $540 $263 $385 forward $439 $-1 #
edge $549 -1 $-1 $550 197 $389 276 $384 $133 forward @7 unknown #
coedge $-1 -1 $-1 $264 $532 $551 $552 forward $387 $-1 #
loop $-1 -1 $-1 $-1 $264 $317 #
DXID-attrib $-1 -1 $-1 $-1 $265 @10 ASM ENTITY @36 0f36b0b4-b363-4c6c-b85f-3432ade3187c #
vertex $-1 -1 $-1 $265 $553 #
coedge $-1 -1 $-1 $554 $440 $267 $391 reversed $296 $-1 #
edge $555 -1 $-1 $396 117.0000000000000142 $556 193 $390 $127 forward @7 unknown #
coedge $-1 -1 $-1 $557 $268 $558 $559 forward $394 $-1 #
coedge $-1 -1 $-1 $268 $557 $560 $561 reversed $394 $-1 #
loop $-1 -1 $-1 $-1 $268 $562 #
DXID-attrib $-1 -1 $-1 $-1 $269 @10 ASM ENTITY @36 40344558-a976-4c04-b36d-52311ea2ee21 #
vertex $-1 -1 $-1 $269 $563 #
coedge $-1 -1 $-1 $276 $421 $270 $398 reversed $408 $-1 #
edge $-1 -1 $-1 $190 -4 $287 4 $270 $564 forward @7 unknown #
coedge $-1 -1 $-1 $565 $558 $271 $400 reversed $566 $-1 #
edge $-1 -1 $-1 $419 -4 $273 4 $271 $567 forward @7 unknown #
point $-1 -1 $-1 -1130.000000000000227 80 -199.9999999999998863 #
coedge $-1 -1 $-1 $429 $568 $274 $403 forward $569 $-1 #
edge $570 -1 $-1 $410 276 $405 280 $274 $571 forward @7 unknown #
DXID-attrib $-1 -1 $-1 $-1 $275 @10 ASM ENTITY @36 887e12fa-ee7e-4003-b317-9bc8b34a4c02 #
vertex $-1 -1 $-1 $275 $572 #
straight-curve $-1 -1 $-1 -300.0000000000001137 80 -199.9999999999999716 0 10 0 I I #
coedge $-1 -1 $-1 $573 $276 $568 $574 reversed $408 $-1 #
loop $-1 -1 $-1 $-1 $421 $434 #
DXID-attrib $-1 -1 $-1 $-1 $277 @10 ASM ENTITY @36 e11ee463-3264-4c33-818f-98f503923b53 #
vertex $-1 -1 $-1 $403 $575 #
straight-curve $-1 -1 $-1 -340.0000000000001137 80 -199.9999999999999716 0 10 0 I I #
DXID-attrib $-1 -1 $-1 $-1 $278 @10 ASM ENTITY @36 93ea1fb6-5dca-4078-b6ef-31ef7ba1763d #
face $576 -1 $-1 $577 $578 $4 $-1 $579 forward single #
plane-surface $-1 -1 $-1 -340 80 -199.9999999999999716 1.031433003522726122e-16 0 1 10 0 -1.031433003522726146e-15 forward_v I I I I #
coedge $-1 -1 $-1 $280 $383 $580 $581 reversed $67 $-1 #
coedge $-1 -1 $-1 $582 $583 $280 $417 forward $584 $-1 #
edge $585 -1 $-1 $419 113.0000000000000142 $586 117.0000000000000142 $280 $133 forward @7 unknown #
DXID-attrib $-1 -1 $-1 $-1 $282 @10 ASM ENTITY @36 40a8a398-2ea2-4c57-a8ce-22921e0fa795 #
vertex $-1 -1 $-1 $417 $587 #
coedge $-1 -1 $-1 $284 $283 $588 $589 reversed $285 $-1 #
coedge $-1 -1 $-1 $397 $590 $283 $422 forward $408 $-1 #
edge $591 -1 $-1 $592 -44.30000000000000426 $287 -8 $421 $411 forward @7 unknown #
face $593 -1 $-1 $278 $285 $4 $-1 $414 forward single #
point $-1 -1 $-1 -340.0000000000001137 0 -199.9999999999999716 #
coedge $-1 -1 $-1 $588 $594 $288 $426 forward $578 $-1 #
edge $595 -1 $-1 $596 -4 $428 0 $288 $597 forward @7 unknown #
DXID-attrib $-1 -1 $-1 $-1 $289 @10 ASM ENTITY @36 9f43d022-7833-4ce1-aa3b-04003347610d #
vertex $-1 -1 $-1 $589 $598 #
coedge $-1 -1 $-1 $599 $402 $290 $430 forward $569 $-1 #
edge $600 -1 $-1 $405 -0 $601 4 $290 $602 forward @7 unknown #
coedge $-1 -1 $-1 $603 $604 $291 $432 reversed $605 $-1 #
edge $606 -1 $-1 $596 -44.30000000000000426 $601 0.5 $291 $607 forward @7 unknown #
rgb_color-st-attrib $-1 -1 $608 $-1 $292 0.6784313725490196401 0.6784313725490196401 0.6784313725490196401 #
face $609 -1 $-1 $610 $408 $4 $-1 $611 forward single #
plane-surface $-1 -1 $-1 -300.0000000000001137 80 -199.9999999999999716 1 0 -8.881784197001252323e-16 -8.881784197001252323e-15 -0 -10 forward_v I I I I #
DXID-attrib $-1 -1 $-1 $294 $202 @10 ASM ENTITY @36 5e1920ac-228f-4f4d-a1f6-a82c2da1409c #
rgb_color-st-attrib $-1 -1 $612 $-1 $295 0.3529411764705882582 0.3843137254901961009 0.4000000000000000222 #
face $613 -1 $-1 $614 $615 $4 $-1 $9 forward single #
loop $-1 -1 $-1 $-1 $540 $295 #
coedge $-1 -1 $-1 $390 $580 $616 $617 forward $296 $-1 #
coedge $-1 -1 $-1 $618 $297 $300 $447 reversed $443 $-1 #
coedge $-1 -1 $-1 $297 $618 $307 $452 reversed $443 $-1 #
loop $-1 -1 $-1 $-1 $297 $483 #
DXID-attrib $-1 -1 $-1 $-1 $298 @10 ASM ENTITY @36 c652c8c4-e8ed-41af-b0ff-c24c70809f74 #
straight-curve $-1 -1 $-1 -300 80 40 0 -10 0 I I #
coedge $-1 -1 $-1 $300 $299 $332 $479 forward $301 $-1 #
edge $619 -1 $-1 $620 0 $303 4.000000000000014211 $441 $621 forward @7 unknown #
point $-1 -1 $-1 -300 85 40 #
DXID-attrib $-1 -1 $-1 $-1 $305 @10 ASM ENTITY @36 f4060422-17eb-488f-808e-8a4d8ecb7c77 #
straight-curve $-1 -1 $-1 -300 85 -5.551115123125782702e-16 -10 0 1.110223024625152202e-15 I I #
coedge $-1 -1 $-1 $308 $307 $346 $491 forward $309 $-1 #
edge $622 -1 $-1 $311 -4.000000000000014211 $623 -0 $442 $624 forward @7 unknown #
point $-1 -1 $-1 -300 -363.0000000000000568 40 #
DXID-attrib $-1 -1 $-1 $-1 $313 @10 ASM ENTITY @36 7ccc5fcf-a958-4985-a4b9-c3066e18a615 #
straight-curve $-1 -1 $-1 -300 -363.0000000000000568 -5.551115123125782702e-16 10 0 -1.110223024625152202e-15 I I #
DXID-attrib $-1 -1 $-1 $316 $217 @10 ASM ENTITY @36 e81bae0f-3fde-4598-a219-ece4c8e1b55c #
rgb_color-st-attrib $-1 -1 $625 $-1 $317 0.6784313725490196401 0.6784313725490196401 0.6784313725490196401 #
face $626 -1 $-1 $627 $380 $4 $-1 $459 forward single #
plane-surface $-1 -1 $-1 -2800 80 -199.9999999999997158 1.031433003522726122e-16 0 1 10 0 -1.031433003522726146e-15 forward_v I I I I #
coedge $-1 -1 $-1 $319 $366 $628 $629 forward $19 $-1 #
coedge $-1 -1 $-1 $630 $631 $319 $462 reversed $632 $-1 #
edge $633 -1 $-1 $634 113 $467 117 $319 $65 forward @7 unknown #
coedge $-1 -1 $-1 $341 $320 $635 $636 forward $465 $-1 #
coedge $-1 -1 $-1 $320 $341 $509 $637 forward $465 $-1 #
loop $-1 -1 $-1 $-1 $464 $614 #
DXID-attrib $-1 -1 $-1 $-1 $321 @10 ASM ENTITY @36 6721399c-7f9c-47e8-9797-9b81f9437b2a #
vertex $-1 -1 $-1 $462 $638 #
coedge $-1 -1 $-1 $323 $322 $639 $640 reversed $162 $-1 #
coedge $-1 -1 $-1 $509 $641 $322 $470 reversed $497 $-1 #
edge $642 -1 $-1 $325 0 $643 0.5 $322 $512 forward @7 unknown #
coedge $-1 -1 $-1 $644 $326 $323 $472 forward $474 $-1 #
edge $645 -1 $-1 $226 0 $646 0.5 $471 $507 forward @7 unknown #
point $-1 -1 $-1 -1170 80 0 #
loop $-1 -1 $-1 $-1 $357 $496 #
straight-curve $-1 -1 $-1 -1130 40 0 0 -10 0 I I #
straight-curve $-1 -1 $-1 -340 40 0 0 10 0 I I #
rgb_color-st-attrib $-1 -1 $647 $-1 $330 0.3529411764705882582 0.3843137254901961009 0.4000000000000000222 #
coedge $-1 -1 $-1 $332 $346 $618 $648 forward $333 $-1 #
edge $649 -1 $-1 $335 0 $620 4.000000000000000888 $332 $650 forward @7 unknown #
face $651 -1 $-1 $142 $333 $4 $-1 $652 forward single #
point $-1 -1 $-1 -340.0000000000001137 85 4.440892098500626162e-15 #
rgb_color-st-attrib $-1 -1 $653 $-1 $338 0.6784313725490196401 0.6784313725490196401 0.6784313725490196401 #
face $654 -1 $-1 $480 $443 $4 $-1 $655 forward single #
plane-surface $-1 -1 $-1 -320.0000000000000568 -363.0000000000000568 20.00000000000000355 0 -1 0 0 0 -10 forward_v I I I I #
coedge $-1 -1 $-1 $363 $340 $656 $657 reversed $67 $-1 #
coedge $-1 -1 $-1 $658 $659 $340 $487 forward $660 $-1 #
edge $661 -1 $-1 $662 113 $489 117 $340 $70 forward @7 unknown #
DXID-attrib $-1 -1 $-1 $-1 $342 @10 ASM ENTITY @36 66f8e2d0-572b-41f2-b191-f4cfde56ddfe #
vertex $-1 -1 $-1 $487 $663 #
point $-1 -1 $-1 -1170 0 0 #
edge $664 -1 $-1 $623 -4.000000000000000888 $348 -0 $346 $665 forward @7 unknown #
point $-1 -1 $-1 -340.0000000000001137 -363.0000000000000568 4.440892098500626162e-15 #
DXID-attrib $-1 -1 $-1 $349 $237 @10 ASM ENTITY @36 afb45946-fb45-489d-a600-378f0808594b #
DXID-attrib $-1 -1 $-1 $351 $241 @10 ASM ENTITY @36 6bdab7a9-2249-47e9-8aef-96c8a5e3449a #
rgb_color-st-attrib $-1 -1 $666 $-1 $352 0.6784313725490196401 0.6784313725490196401 0.6784313725490196401 #
face $667 -1 $-1 $668 $474 $4 $-1 $669 forward single #
loop $-1 -1 $-1 $-1 $670 $352 #
plane-surface $-1 -1 $-1 -1170 80 3.259178811740584961e-15 -1 0 0 0 0 10 forward_v I I I I #
coedge $-1 -1 $-1 $671 $672 $673 $674 reversed $353 $-1 #
coedge $-1 -1 $-1 $675 $355 $672 $676 forward $242 $-1 #
coedge $-1 -1 $-1 $355 $675 $356 $504 forward $242 $-1 #
coedge $-1 -1 $-1 $357 $673 $355 $503 reversed $474 $-1 #
edge $677 -1 $-1 $506 -4.000000000000020428 $678 -0 $502 $679 forward @7 unknown #
edge $680 -1 $-1 $511 -117 $506 -113 $356 $681 forward @7 unknown #
DXID-attrib $-1 -1 $-1 $-1 $358 @10 ASM ENTITY @36 2cf53039-2ae0-41ec-a1e9-0d06ecef1134 #
vertex $-1 -1 $-1 $358 $682 #
straight-curve $-1 -1 $-1 -1130 80 0 0 10 0 I I #
coedge $-1 -1 $-1 $670 $359 $675 $683 reversed $497 $-1 #
coedge $-1 -1 $-1 $359 $469 $464 $637 reversed $497 $-1 #
DXID-attrib $-1 -1 $-1 $-1 $360 @10 ASM ENTITY @36 379e19bf-4e0a-4976-a3ee-4c5b30ab84a7 #
vertex $-1 -1 $-1 $504 $684 #
straight-curve $-1 -1 $-1 -1170 80 3.259178811740584961e-15 0 10 0 I I #
coedge $-1 -1 $-1 $685 $361 $686 $687 reversed $515 $-1 #
coedge $-1 -1 $-1 $361 $688 $689 $690 reversed $515 $-1 #
loop $-1 -1 $-1 $-1 $691 $692 #
straight-curve $-1 -1 $-1 -2800 40 0 0 10 0 I I #
coedge $-1 -1 $-1 $693 $686 $363 $518 forward $694 $-1 #
edge $695 -1 $-1 $365 30 $696 34 $363 $70 forward @7 unknown #
point $-1 -1 $-1 -2800 0 0 #
coedge $-1 -1 $-1 $689 $697 $366 $521 reversed $698 $-1 #
edge $699 -1 $-1 $368 30 $700 34 $366 $65 forward @7 unknown #
point $-1 -1 $-1 -2800 80 0 #
coedge $-1 -1 $-1 $372 $369 $701 $702 forward $257 $-1 #
coedge $-1 -1 $-1 $703 $704 $369 $525 forward $705 $-1 #
edge $706 -1 $-1 $707 0 $528 4 $369 $708 forward @7 unknown #
coedge $-1 -1 $-1 $370 $379 $703 $709 reversed $380 $-1 #
DXID-attrib $-1 -1 $-1 $-1 $371 @10 ASM ENTITY @36 0abbdb91-ff8c-4031-9526-239fd75a334e #
vertex $-1 -1 $-1 $709 $710 #
straight-curve $-1 -1 $-1 -2800 80 -199.9999999999996589 0 10 0 I I #
coedge $-1 -1 $-1 $711 $712 $372 $531 forward $713 $-1 #
edge $714 -1 $-1 $534 -4 $715 -0 $372 $716 forward @7 unknown #
coedge $-1 -1 $-1 $386 $373 $712 $717 reversed $387 $-1 #
DXID-attrib $-1 -1 $-1 $-1 $374 @10 ASM ENTITY @36 67968933-25ad-4880-8e4e-f95b63f4cc97 #
vertex $-1 -1 $-1 $374 $718 #
rgb_color-st-attrib $-1 -1 $719 $-1 $375 0.6784313725490196401 0.6784313725490196401 0.6784313725490196401 #
face $720 -1 $-1 $721 $705 $4 $-1 $722 forward single #
plane-surface $-1 -1 $-1 -2800 80 -239.9999999999996589 -1 0 0 0 0 10 forward_v I I I I #
coedge $-1 -1 $-1 $723 $724 $376 $539 reversed $725 $-1 #
edge $726 -1 $-1 $556 193 $543 197 $376 $127 forward @7 unknown #
coedge $-1 -1 $-1 $384 $377 $727 $728 forward $439 $-1 #
coedge $-1 -1 $-1 $377 $384 $729 $730 forward $439 $-1 #
DXID-attrib $-1 -1 $-1 $-1 $378 @10 ASM ENTITY @36 bb8bc87c-96a1-4751-b3f4-ae1a7388cc9e #
vertex $-1 -1 $-1 $539 $731 #
coedge $-1 -1 $-1 $729 $732 $379 $545 reversed $733 $-1 #
edge $734 -1 $-1 $382 0 $735 0.5 $379 $736 forward @7 unknown #
point $-1 -1 $-1 -2760 80 -199.9999999999997158 #
coedge $-1 -1 $-1 $737 $738 $383 $548 forward $739 $-1 #
edge $740 -1 $-1 $741 193 $550 197 $383 $133 forward @7 unknown #
DXID-attrib $-1 -1 $-1 $-1 $385 @10 ASM ENTITY @36 d43e322e-0a75-4621-9364-650b219d88c5 #
vertex $-1 -1 $-1 $548 $742 #
coedge $-1 -1 $-1 $743 $729 $386 $552 reversed $733 $-1 #
edge $744 -1 $-1 $745 -44.30000000000000426 $389 -8 $386 $736 forward @7 unknown #
point $-1 -1 $-1 -2760 0 -199.9999999999997158 #
coedge $-1 -1 $-1 $580 $390 $746 $747 forward $296 $-1 #
DXID-attrib $-1 -1 $-1 $-1 $391 @10 ASM ENTITY @36 b7a608c3-e99a-4774-8fb4-2117eb980c22 #
vertex $-1 -1 $-1 $391 $748 #
coedge $-1 -1 $-1 $393 $392 $749 $750 reversed $394 $-1 #
coedge $-1 -1 $-1 $399 $751 $392 $559 reversed $566 $-1 #
edge $752 -1 $-1 $273 0 $753 0.5 $392 $754 forward @7 unknown #
coedge $-1 -1 $-1 $755 $746 $393 $561 forward $756 $-1 #
edge $757 -1 $-1 $396 0 $758 0.5 $560 $759 forward @7 unknown #
face $760 -1 $-1 $761 $394 $4 $-1 $762 forward single #
point $-1 -1 $-1 -1170.000000000000227 80 -199.9999999999998579 #
straight-curve $-1 -1 $-1 -340.0000000000001137 40 -199.9999999999999716 0 -10 0 I I #
coedge $-1 -1 $-1 $763 $399 $583 $764 reversed $566 $-1 #
loop $-1 -1 $-1 $-1 $765 $766 #
straight-curve $-1 -1 $-1 -1130.000000000000227 40 -199.9999999999998863 0 10 0 I I #
coedge $-1 -1 $-1 $402 $599 $407 $574 forward $569 $-1 #
loop $-1 -1 $-1 $-1 $568 $610 #
DXID-attrib $-1 -1 $-1 $-1 $403 @10 ASM ENTITY @36 35573355-6df3-4161-b907-08b0d845df9f #
straight-curve $-1 -1 $-1 -3100 85 -199.9999999999996874 10 0 -1.031433003522726146e-15 I I #
point $-1 -1 $-1 -300.0000000000001137 85 -199.9999999999999716 #
coedge $-1 -1 $-1 $590 $407 $767 $768 forward $408 $-1 #
edge $769 -1 $-1 $770 0 $410 4 $407 $771 forward @7 unknown #
point $-1 -1 $-1 -340.0000000000001137 85 -199.9999999999999716 #
rgb_color-st-attrib $-1 -1 $772 $-1 $413 0.6784313725490196401 0.6784313725490196401 0.6784313725490196401 #
face $773 -1 $-1 $292 $605 $4 $-1 $774 forward single #
loop $-1 -1 $-1 $-1 $775 $413 #
plane-surface $-1 -1 $-1 -320.0000000000001137 -363.0000000000000568 -219.9999999999999716 0 -1 0 0 0 -10 forward_v I I I I #
coedge $-1 -1 $-1 $440 $554 $415 $581 forward $296 $-1 #
edge $776 -1 $-1 $586 117.0000000000000142 $741 193 $580 $133 forward @7 unknown #
coedge $-1 -1 $-1 $777 $416 $778 $779 reversed $584 $-1 #
coedge $-1 -1 $-1 $416 $777 $565 $764 forward $584 $-1 #
loop $-1 -1 $-1 $-1 $416 $780 #
DXID-attrib $-1 -1 $-1 $-1 $417 @10 ASM ENTITY @36 12b27fc7-533b-4b79-b41f-3df4376f8ee8 #
vertex $-1 -1 $-1 $417 $781 #
point $-1 -1 $-1 -1130.000000000000227 0 -199.9999999999998863 #
coedge $-1 -1 $-1 $775 $425 $420 $589 forward $578 $-1 #
edge $782 -1 $-1 $428 -280 $592 -276 $420 $783 forward @7 unknown #
coedge $-1 -1 $-1 $421 $573 $775 $784 reversed $408 $-1 #
DXID-attrib $-1 -1 $-1 $-1 $422 @10 ASM ENTITY @36 df009cc0-787e-4f90-8d52-e415ac47cbf1 #
vertex $-1 -1 $-1 $422 $785 #
rgb_color-st-attrib $-1 -1 $786 $-1 $423 0.6784313725490196401 0.6784313725490196401 0.6784313725490196401 #
coedge $-1 -1 $-1 $425 $775 $603 $787 forward $578 $-1 #
DXID-attrib $-1 -1 $-1 $-1 $426 @10 ASM ENTITY @36 a11b65f6-784a-433e-bda3-be47b7579bd9 #
vertex $-1 -1 $-1 $787 $788 #
straight-curve $-1 -1 $-1 -300.0000000000001137 -363.0000000000000568 -199.9999999999999716 8.881784197001252323e-15 0 10 I I #
point $-1 -1 $-1 -300.0000000000001137 -363.0000000000000568 -199.9999999999999716 #
coedge $-1 -1 $-1 $568 $429 $604 $789 forward $569 $-1 #
DXID-attrib $-1 -1 $-1 $-1 $430 @10 ASM ENTITY @36 38b0c2b7-43b8-4cdb-9e43-71e574b762d8 #
vertex $-1 -1 $-1 $789 $790 #
straight-curve $-1 -1 $-1 -300.0000000000001137 85 -199.9999999999999716 -8.881784197001252323e-15 -0 -10 I I #
coedge $-1 -1 $-1 $767 $431 $594 $787 reversed $605 $-1 #
coedge $-1 -1 $-1 $431 $767 $599 $789 reversed $605 $-1 #
loop $-1 -1 $-1 $-1 $767 $577 #
DXID-attrib $-1 -1 $-1 $-1 $432 @10 ASM ENTITY @36 de918853-5ad3-408a-982a-76d3588423b0 #
straight-curve $-1 -1 $-1 -300.0000000000001137 80 -239.9999999999999716 0 10 0 I I #
DXID-attrib $-1 -1 $-1 $433 $292 @10 ASM ENTITY @36 1c25267e-95be-4bb3-abfc-979485253eb7 #
rgb_color-st-attrib $-1 -1 $791 $-1 $434 0.6784313725490196401 0.6784313725490196401 0.6784313725490196401 #
face $792 -1 $-1 $237 $569 $4 $-1 $793 forward single #
plane-surface $-1 -1 $-1 -340.0000000000002274 80 -239.9999999999999716 -1 0 1.776356839400250465e-15 1.776356839400250465e-14 0 10 forward_v I I I I #
DXID-attrib $-1 -1 $-1 $437 $295 @10 ASM ENTITY @36 07d93e13-5521-4cb1-b5a7-bb238d6c2413 #
rgb_color-st-attrib $-1 -1 $794 $-1 $438 0.3529411764705882582 0.3843137254901961009 0.4000000000000000222 #
face $795 -1 $-1 $330 $465 $4 $-1 $9 forward single #
loop $-1 -1 $-1 $-1 $796 $438 #
coedge $-1 -1 $-1 $797 $798 $440 $617 reversed $799 $-1 #
edge $-1 -1 $-1 $741 -4 $556 4 $440 $800 forward @7 unknown #
coedge $-1 -1 $-1 $442 $441 $478 $648 reversed $443 $-1 #
DXID-attrib $-1 -1 $-1 $-1 $447 @10 ASM ENTITY @36 0eda8274-913a-4462-9510-83778c0614b6 #
vertex $-1 -1 $-1 $447 $801 #
straight-curve $-1 -1 $-1 -340.0000000000001137 85 40.00000000000000711 10 0 -2.220446049250305192e-15 I I #
DXID-attrib $-1 -1 $-1 $-1 $452 @10 ASM ENTITY @36 d37ade4f-a233-4868-bab7-969ef6d9bdf3 #
vertex $-1 -1 $-1 $452 $802 #
straight-curve $-1 -1 $-1 -340.0000000000001137 -363.0000000000000568 40.00000000000000711 -10 0 2.220446049250305192e-15 I I #
DXID-attrib $-1 -1 $-1 $457 $317 @10 ASM ENTITY @36 5c8c2bfa-e314-4b91-bb16-11c76c352940 #
DXID-attrib $-1 -1 $-1 $-1 $458 @10 ASM ENTITY @36 ccbc7d7d-3833-4745-9a6a-263025b41580 #
face $803 -1 $-1 $804 $713 $4 $-1 $805 forward single #
coedge $-1 -1 $-1 $806 $796 $460 $629 reversed $615 $-1 #
edge $807 -1 $-1 $700 34 $634 113 $628 $65 forward @7 unknown #
coedge $-1 -1 $-1 $808 $461 $809 $810 forward $632 $-1 #
coedge $-1 -1 $-1 $461 $808 $811 $812 reversed $632 $-1 #
loop $-1 -1 $-1 $-1 $461 $813 #
DXID-attrib $-1 -1 $-1 $-1 $462 @10 ASM ENTITY @36 8db2ae47-3c94-46e8-9010-c41ac7910492 #
vertex $-1 -1 $-1 $629 $814 #
coedge $-1 -1 $-1 $811 $815 $463 $636 reversed $816 $-1 #
edge $-1 -1 $-1 $467 -4 $489 4 $463 $817 forward @7 unknown #
edge $-1 -1 $-1 $344 -4 $325 4 $464 $818 forward @7 unknown #
point $-1 -1 $-1 -1930 80 0 #
coedge $-1 -1 $-1 $819 $820 $468 $640 forward $821 $-1 #
edge $822 -1 $-1 $646 113 $643 117 $468 $823 forward @7 unknown #
coedge $-1 -1 $-1 $469 $670 $819 $824 reversed $497 $-1 #
DXID-attrib $-1 -1 $-1 $-1 $470 @10 ASM ENTITY @36 1befe4d6-32d5-4687-a467-1ea81416923e #
vertex $-1 -1 $-1 $470 $825 #
coedge $-1 -1 $-1 $673 $471 $820 $826 reversed $474 $-1 #
DXID-attrib $-1 -1 $-1 $-1 $472 @10 ASM ENTITY @36 f02ef13b-3bb7-4f96-a752-7149a2e52e9e #
vertex $-1 -1 $-1 $640 $827 #
DXID-attrib $-1 -1 $-1 $477 $330 @10 ASM ENTITY @36 73cc5114-1422-48e0-bf7b-3287cca4ec4f #
edge $828 -1 $-1 $623 -44.30000000000000426 $620 0.5 $478 $829 forward @7 unknown #
DXID-attrib $-1 -1 $-1 $-1 $479 @10 ASM ENTITY @36 bdf189ff-eeeb-4f45-85a9-b66c69a18b5d #
straight-curve $-1 -1 $-1 -340.0000000000001137 85 3.885780586188046314e-15 0 0 10 I I #
rgb_color-st-attrib $-1 -1 $830 $-1 $480 0.6784313725490196401 0.6784313725490196401 0.6784313725490196401 #
plane-surface $-1 -1 $-1 -340.0000000000001137 80 3.885780586188046314e-15 -1 0 0 0 0 10 forward_v I I I I #
DXID-attrib $-1 -1 $-1 $482 $338 @10 ASM ENTITY @36 fa688ddf-aa83-4d5f-9600-03d428d0265c #
rgb_color-st-attrib $-1 -1 $831 $-1 $483 0.6784313725490196401 0.6784313725490196401 0.6784313725490196401 #
plane-surface $-1 -1 $-1 -340.0000000000001137 80 40.00000000000000711 2.220446049250305192e-16 0 1 10 0 -2.220446049250305192e-15 forward_v I I I I #
coedge $-1 -1 $-1 $796 $806 $485 $657 forward $615 $-1 #
edge $832 -1 $-1 $696 34 $662 113 $656 $70 forward @7 unknown #
coedge $-1 -1 $-1 $833 $486 $815 $834 reversed $660 $-1 #
coedge $-1 -1 $-1 $486 $833 $835 $836 forward $660 $-1 #
loop $-1 -1 $-1 $-1 $486 $721 #
DXID-attrib $-1 -1 $-1 $-1 $487 @10 ASM ENTITY @36 e537302f-81f2-4f1b-b58d-ebe1cedc960a #
vertex $-1 -1 $-1 $487 $837 #
point $-1 -1 $-1 -1930 0 0 #
DXID-attrib $-1 -1 $-1 $-1 $491 @10 ASM ENTITY @36 56ec6be4-08ff-4897-b442-82dce901ba21 #
straight-curve $-1 -1 $-1 -340.0000000000001137 -363.0000000000000568 3.885780586188046314e-15 -0 -0 -10 I I #
DXID-attrib $-1 -1 $-1 $495 $352 @10 ASM ENTITY @36 08179b23-2254-46cd-8c78-7ef1a9d5f107 #
rgb_color-st-attrib $-1 -1 $838 $-1 $496 0.6784313725490196401 0.6784313725490196401 0.6784313725490196401 #
face $839 -1 $-1 $840 $821 $4 $-1 $841 forward single #
plane-surface $-1 -1 $-1 -1130 80 40.00000000000020606 1 0 0 0 0 -10 forward_v I I I I #
coedge $-1 -1 $-1 $641 $508 $842 $843 forward $497 $-1 #
coedge $-1 -1 $-1 $842 $499 $844 $845 reversed $353 $-1 #
coedge $-1 -1 $-1 $499 $842 $500 $676 reversed $353 $-1 #
coedge $-1 -1 $-1 $502 $644 $499 $674 forward $474 $-1 #
edge $846 -1 $-1 $847 -0.5 $678 44.30000000000000426 $673 $848 forward @7 unknown #
coedge $-1 -1 $-1 $501 $500 $508 $683 forward $242 $-1 #
edge $849 -1 $-1 $678 -4 $850 -0 $672 $851 forward @7 unknown #
DXID-attrib $-1 -1 $-1 $-1 $503 @10 ASM ENTITY @36 6cf0230e-eafc-48bf-bae0-6adb6d3034f8 #
vertex $-1 -1 $-1 $503 $852 #
straight-curve $-1 -1 $-1 -1130 -363.0000000000000568 40.00000000000020606 0 0 10 I I #
DXID-attrib $-1 -1 $-1 $-1 $504 @10 ASM ENTITY @36 49e5aee8-b81c-4c79-b398-2fbe445d6e04 #
straight-curve $-1 -1 $-1 0 -363.0000000000000568 0 10 0 0 I I #
point $-1 -1 $-1 -1130 -363.0000000000000568 0 #
edge $853 -1 $-1 $850 -4.000000000000021316 $511 -0 $508 $854 forward @7 unknown #
point $-1 -1 $-1 -1170 -363.0000000000000568 0 #
coedge $-1 -1 $-1 $691 $513 $855 $856 reversed $515 $-1 #
coedge $-1 -1 $-1 $517 $857 $513 $687 forward $694 $-1 #
edge $858 -1 $-1 $859 -44.30000000000000426 $365 -8 $686 $860 forward @7 unknown #
coedge $-1 -1 $-1 $514 $691 $861 $862 reversed $515 $-1 #
coedge $-1 -1 $-1 $863 $520 $514 $690 forward $698 $-1 #
edge $864 -1 $-1 $368 0 $865 0.5 $689 $860 forward @7 unknown #
coedge $-1 -1 $-1 $688 $685 $866 $867 forward $515 $-1 #
face $868 -1 $-1 $869 $515 $4 $-1 $870 forward single #
coedge $-1 -1 $-1 $857 $517 $871 $872 reversed $694 $-1 #
loop $-1 -1 $-1 $-1 $517 $873 #
DXID-attrib $-1 -1 $-1 $-1 $518 @10 ASM ENTITY @36 15bc46e4-ca0c-4f2c-b424-fc6dfff514a7 #
vertex $-1 -1 $-1 $518 $874 #
coedge $-1 -1 $-1 $520 $863 $875 $876 reversed $698 $-1 #
loop $-1 -1 $-1 $-1 $520 $877 #
DXID-attrib $-1 -1 $-1 $-1 $521 @10 ASM ENTITY @36 97f62350-b011-4ea9-82d8-386f5019c1e8 #
vertex $-1 -1 $-1 $521 $878 #
coedge $-1 -1 $-1 $879 $880 $523 $702 reversed $881 $-1 #
edge $882 -1 $-1 $707 -0.5 $715 44.30000000000000426 $523 $883 forward @7 unknown #
coedge $-1 -1 $-1 $884 $524 $526 $709 forward $705 $-1 #
coedge $-1 -1 $-1 $524 $884 $879 $885 forward $705 $-1 #
loop $-1 -1 $-1 $-1 $524 $536 #
DXID-attrib $-1 -1 $-1 $-1 $525 @10 ASM ENTITY @36 bc44b344-f9df-49c0-b10d-b3e7fe2e9f81 #
vertex $-1 -1 $-1 $702 $886 #
straight-curve $-1 -1 $-1 -2800 85 -239.9999999999996589 0 0 10 I I #
edge $887 -1 $-1 $528 30 $735 34 $526 $888 forward @7 unknown #
point $-1 -1 $-1 -2800 85 -199.9999999999996589 #
coedge $-1 -1 $-1 $889 $530 $880 $890 forward $713 $-1 #
coedge $-1 -1 $-1 $530 $889 $532 $717 forward $713 $-1 #
loop $-1 -1 $-1 $-1 $530 $627 #
DXID-attrib $-1 -1 $-1 $-1 $531 @10 ASM ENTITY @36 175a4605-d0ce-4c87-90f1-d2530a79d7fe #
vertex $-1 -1 $-1 $531 $891 #
straight-curve $-1 -1 $-1 -2800 -363.0000000000000568 -239.9999999999996589 -0 -0 -10 I I #
edge $892 -1 $-1 $745 -34 $534 -30 $532 $893 forward @7 unknown #
point $-1 -1 $-1 -2800 -363.0000000000000568 -199.9999999999996589 #
DXID-attrib $-1 -1 $-1 $535 $375 @10 ASM ENTITY @36 93bff971-6484-4967-a8af-9155d0d2ca65 #
rgb_color-st-attrib $-1 -1 $894 $-1 $536 0 0 0 #
face $895 -1 $-1 $813 $660 $4 $-1 $896 forward single #
plane-surface $-1 -1 $-1 -2780 85 -219.9999999999996589 0 1 0 0 0 10 forward_v I I I I #
coedge $-1 -1 $-1 $897 $538 $798 $898 forward $725 $-1 #
coedge $-1 -1 $-1 $538 $897 $899 $900 reversed $725 $-1 #
loop $-1 -1 $-1 $-1 $538 $901 #
DXID-attrib $-1 -1 $-1 $-1 $539 @10 ASM ENTITY @36 b369621e-9640-48a6-aad7-d3dffa8e89d8 #
coedge $-1 -1 $-1 $899 $902 $540 $728 reversed $903 $-1 #
edge $-1 -1 $-1 $543 -4 $550 4 $540 $904 forward @7 unknown #
coedge $-1 -1 $-1 $551 $544 $541 $730 reversed $733 $-1 #
edge $-1 -1 $-1 $389 -4 $382 4 $541 $905 forward @7 unknown #
point $-1 -1 $-1 -1970 80 -199.9999999999997442 #
coedge $-1 -1 $-1 $544 $906 $884 $907 reversed $733 $-1 #
loop $-1 -1 $-1 $-1 $906 $908 #
DXID-attrib $-1 -1 $-1 $-1 $545 @10 ASM ENTITY @36 e71829c2-10c4-4149-a3d4-f219964be112 #
vertex $-1 -1 $-1 $545 $909 #
straight-curve $-1 -1 $-1 -2760 80 -199.9999999999996589 0 10 0 I I #
coedge $-1 -1 $-1 $910 $547 $902 $911 reversed $739 $-1 #
coedge $-1 -1 $-1 $547 $910 $797 $912 forward $739 $-1 #
loop $-1 -1 $-1 $-1 $547 $840 #
DXID-attrib $-1 -1 $-1 $-1 $548 @10 ASM ENTITY @36 60433fa4-015d-4b59-b224-afe3a071d1a6 #
vertex $-1 -1 $-1 $548 $913 #
point $-1 -1 $-1 -1970 0 -199.9999999999997442 #
coedge $-1 -1 $-1 $906 $551 $889 $914 reversed $733 $-1 #
DXID-attrib $-1 -1 $-1 $-1 $552 @10 ASM ENTITY @36 6d0779fb-081c-4a08-89df-3be42cf41589 #
vertex $-1 -1 $-1 $717 $915 #
coedge $-1 -1 $-1 $560 $778 $554 $747 reversed $756 $-1 #
edge $-1 -1 $-1 $396 -4 $586 4 $554 $916 forward @7 unknown #
point $-1 -1 $-1 -1930 80 -199.9999999999997726 #
coedge $-1 -1 $-1 $917 $918 $557 $750 forward $919 $-1 #
edge $920 -1 $-1 $758 193 $753 197 $557 $921 forward @7 unknown #
coedge $-1 -1 $-1 $558 $765 $917 $922 reversed $566 $-1 #
DXID-attrib $-1 -1 $-1 $-1 $559 @10 ASM ENTITY @36 40763c24-4d39-46dd-8a1d-c83ae78aa0e6 #
vertex $-1 -1 $-1 $559 $923 #
straight-curve $-1 -1 $-1 -1130.000000000000227 80 -199.9999999999998579 0 10 0 I I #
coedge $-1 -1 $-1 $924 $560 $918 $925 reversed $756 $-1 #
loop $-1 -1 $-1 $-1 $778 $926 #
DXID-attrib $-1 -1 $-1 $-1 $561 @10 ASM ENTITY @36 240c2b9f-2cde-49d1-b0c2-a9ddc7d40a97 #
vertex $-1 -1 $-1 $750 $927 #
straight-curve $-1 -1 $-1 -1170.000000000000227 80 -199.9999999999998579 0 10 0 I I #
DXID-attrib $-1 -1 $-1 $-1 $562 @10 ASM ENTITY @36 b8e9ec8f-1b32-4da9-a9d2-762b149289b1 #
face $928 -1 $-1 $929 $930 $4 $-1 $931 forward single #
plane-surface $-1 -1 $-1 -1170 80 -199.9999999999998863 1.031433003522726122e-16 0 1 10 0 -1.031433003522726146e-15 forward_v I I I I #
coedge $-1 -1 $-1 $765 $565 $932 $933 reversed $566 $-1 #
edge $934 -1 $-1 $935 -44.30000000000000426 $419 -8 $583 $754 forward @7 unknown #
coedge $-1 -1 $-1 $751 $763 $936 $937 forward $566 $-1 #
face $938 -1 $-1 $926 $566 $4 $-1 $939 forward single #
coedge $-1 -1 $-1 $604 $603 $573 $768 reversed $605 $-1 #
edge $940 -1 $-1 $770 -0.5 $941 44.30000000000000426 $573 $942 forward @7 unknown #
DXID-attrib $-1 -1 $-1 $-1 $574 @10 ASM ENTITY @36 fdb58f71-4326-4514-ace1-953569002e0e #
vertex $-1 -1 $-1 $768 $943 #
straight-curve $-1 -1 $-1 -340.0000000000002274 85 -239.9999999999999716 1.776356839400250465e-14 0 10 I I #
DXID-attrib $-1 -1 $-1 $576 $413 @10 ASM ENTITY @36 40d81c67-8701-422c-9b3b-cb60b8546d91 #
rgb_color-st-attrib $-1 -1 $944 $-1 $577 0.6784313725490196401 0.6784313725490196401 0.6784313725490196401 #
plane-surface $-1 -1 $-1 -300.0000000000001137 80 -239.9999999999999716 0 0 -1 -10 -0 -0 forward_v I I I I #
coedge $-1 -1 $-1 $594 $588 $590 $784 forward $578 $-1 #
DXID-attrib $-1 -1 $-1 $-1 $581 @10 ASM ENTITY @36 c38b8c44-29e4-46ac-bd59-d34c97ed0502 #
coedge $-1 -1 $-1 $583 $582 $945 $946 reversed $584 $-1 #
coedge $-1 -1 $-1 $746 $947 $582 $779 forward $756 $-1 #
edge $948 -1 $-1 $949 -44.30000000000000426 $586 -8 $778 $759 forward @7 unknown #
face $950 -1 $-1 $562 $584 $4 $-1 $762 forward single #
point $-1 -1 $-1 -1170.000000000000227 0 -199.9999999999998579 #
DXID-attrib $-1 -1 $-1 $-1 $589 @10 ASM ENTITY @36 ee18cdbe-30f2-4c1e-986d-c629ac176cc0 #
straight-curve $-1 -1 $-1 -3100 -363.0000000000000568 -199.9999999999996874 -10 0 1.031433003522726146e-15 I I #
edge $951 -1 $-1 $592 -4 $941 -0 $590 $952 forward @7 unknown #
point $-1 -1 $-1 -340.0000000000001137 -363.0000000000000568 -199.9999999999999716 #
DXID-attrib $-1 -1 $-1 $593 $423 @10 ASM ENTITY @36 553e6fa5-5c75-4ce8-9fb7-140ad8c068fe #
edge $953 -1 $-1 $941 -4.000000000000007105 $596 0 $603 $954 forward @7 unknown #
point $-1 -1 $-1 -300.0000000000001137 -363.0000000000000568 -239.9999999999999716 #
edge $955 -1 $-1 $601 -0 $770 4.000000000000007105 $604 $956 forward @7 unknown #
point $-1 -1 $-1 -300.0000000000001137 85 -239.9999999999999716 #
DXID-attrib $-1 -1 $-1 $609 $434 @10 ASM ENTITY @36 ef17025b-37d1-4a83-8437-5115016680d1 #
rgb_color-st-attrib $-1 -1 $957 $-1 $610 0 0 0 #
plane-surface $-1 -1 $-1 -320.0000000000001137 85 -219.9999999999999716 0 1 0 0 0 10 forward_v I I I I #
DXID-attrib $-1 -1 $-1 $613 $438 @10 ASM ENTITY @36 2505b433-af14-4be8-b148-e832cfa262dd #
rgb_color-st-attrib $-1 -1 $958 $-1 $614 0.3529411764705882582 0.3843137254901961009 0.4000000000000000222 #
coedge $-1 -1 $-1 $628 $656 $959 $960 forward $615 $-1 #
coedge $-1 -1 $-1 $961 $616 $738 $912 reversed $799 $-1 #
coedge $-1 -1 $-1 $616 $962 $723 $898 reversed $799 $-1 #
loop $-1 -1 $-1 $-1 $963 $964 #
straight-curve $-1 -1 $-1 -1930 40 -199.9999999999997726 0 10 0 I I #
point $-1 -1 $-1 -340.0000000000001137 85 40.00000000000000711 #
point $-1 -1 $-1 -340.0000000000001137 -363.0000000000000568 40.00000000000000711 #
rgb_color-st-attrib $-1 -1 $965 $-1 $627 0.6784313725490196401 0.6784313725490196401 0.6784313725490196401 #
face $966 -1 $-1 $908 $881 $4 $-1 $967 forward single #
plane-surface $-1 -1 $-1 -2780 -363.0000000000000568 -219.9999999999996589 0 -1 0 0 0 -10 forward_v I I I I #
coedge $-1 -1 $-1 $656 $628 $968 $969 forward $615 $-1 #
DXID-attrib $-1 -1 $-1 $-1 $629 @10 ASM ENTITY @36 304d5911-89ed-41b6-b8b5-b7ebd2702cd7 #
coedge $-1 -1 $-1 $631 $630 $970 $971 reversed $632 $-1 #
coedge $-1 -1 $-1 $959 $972 $630 $810 reversed $973 $-1 #
edge $974 -1 $-1 $634 0 $975 0.5 $630 $976 forward @7 unknown #
coedge $-1 -1 $-1 $977 $635 $631 $812 forward $816 $-1 #
edge $978 -1 $-1 $467 0 $979 0.5 $811 $980 forward @7 unknown #
face $981 -1 $-1 $982 $632 $4 $-1 $896 forward single #
point $-1 -1 $-1 -1970 80 0 #
coedge $-1 -1 $-1 $635 $983 $658 $834 forward $816 $-1 #
loop $-1 -1 $-1 $-1 $815 $984 #
straight-curve $-1 -1 $-1 -1930 40 0 0 -10 0 I I #
straight-curve $-1 -1 $-1 -1170 40 0 0 10 0 I I #
coedge $-1 -1 $-1 $844 $639 $641 $824 forward $821 $-1 #
coedge $-1 -1 $-1 $639 $844 $644 $826 forward $821 $-1 #
loop $-1 -1 $-1 $-1 $820 $668 #
DXID-attrib $-1 -1 $-1 $-1 $640 @10 ASM ENTITY @36 703f2998-90c5-40af-adcd-c0e9781fe048 #
straight-curve $-1 -1 $-1 0 85 0 -10 -0 -0 I I #
edge $985 -1 $-1 $643 0 $986 4.000000000000021316 $641 $987 forward @7 unknown #
point $-1 -1 $-1 -1170 85 0 #
edge $988 -1 $-1 $847 0 $646 4.000000000000020428 $644 $989 forward @7 unknown #
point $-1 -1 $-1 -1130 85 0 #
DXID-attrib $-1 -1 $-1 $-1 $648 @10 ASM ENTITY @36 d31f594f-3fba-4f81-9dbb-4dfa8991f636 #
straight-curve $-1 -1 $-1 -340.0000000000001137 80 40.00000000000000711 0 10 0 I I #
DXID-attrib $-1 -1 $-1 $651 $480 @10 ASM ENTITY @36 8753df0e-c7c1-47b9-b408-b07b90b32a07 #
DXID-attrib $-1 -1 $-1 $654 $483 @10 ASM ENTITY @36 a8d9c24f-6004-4ae5-90a8-9709f77e84b0 #
DXID-attrib $-1 -1 $-1 $-1 $657 @10 ASM ENTITY @36 3fa49a77-2dfc-4703-aac9-af9312b82ec9 #
coedge $-1 -1 $-1 $659 $658 $990 $991 reversed $660 $-1 #
edge $992 -1 $-1 $993 -44.30000000000000426 $489 -8 $815 $980 forward @7 unknown #
coedge $-1 -1 $-1 $994 $959 $659 $836 reversed $973 $-1 #
edge $995 -1 $-1 $996 -44.30000000000000426 $662 -8 $659 $976 forward @7 unknown #
point $-1 -1 $-1 -1970 0 0 #
DXID-attrib $-1 -1 $-1 $667 $496 @10 ASM ENTITY @36 baa0a909-d39c-485b-9021-b2c6588b17f2 #
rgb_color-st-attrib $-1 -1 $997 $-1 $668 0 0 0 #
face $998 -1 $-1 $901 $739 $4 $-1 $999 forward single #
plane-surface $-1 -1 $-1 -1150 85 20.00000000000010658 0 1 0 0 0 10 forward_v I I I I #
coedge $-1 -1 $-1 $672 $671 $670 $843 reversed $353 $-1 #
edge $1000 -1 $-1 $850 -44.30000000000000426 $986 0.5 $670 $1001 forward @7 unknown #
coedge $-1 -1 $-1 $820 $819 $671 $845 forward $821 $-1 #
edge $1002 -1 $-1 $986 0 $847 4 $671 $1003 forward @7 unknown #
DXID-attrib $-1 -1 $-1 $-1 $674 @10 ASM ENTITY @36 dec36c16-9f34-437f-874a-e0f8af446ed2 #
vertex $-1 -1 $-1 $674 $1004 #
straight-curve $-1 -1 $-1 -1130 80 40.00000000000020606 0 -10 0 I I #
DXID-attrib $-1 -1 $-1 $-1 $676 @10 ASM ENTITY @36 da848ab4-cc92-447b-b520-6dbc0a0b2d14 #
vertex $-1 -1 $-1 $676 $1005 #
straight-curve $-1 -1 $-1 -1170 -363.0000000000000568 40.00000000000021316 -10 0 2.220446049250313081e-15 I I #
point $-1 -1 $-1 -1130 -363.0000000000000568 40.00000000000020606 #
DXID-attrib $-1 -1 $-1 $-1 $683 @10 ASM ENTITY @36 e9eaec5d-b93f-4048-ae10-e0aaaf01ab20 #
straight-curve $-1 -1 $-1 -1170 -363.0000000000000568 3.259178811740584961e-15 -0 -0 -10 I I #
coedge $-1 -1 $-1 $1006 $1007 $685 $856 forward $1008 $-1 #
edge $1009 -1 $-1 $1010 -3.999999999999986233 $859 -1.308981647861257591e-16 $685 $1011 forward @7 unknown #
coedge $-1 -1 $-1 $686 $693 $1006 $1012 reversed $694 $-1 #
DXID-attrib $-1 -1 $-1 $-1 $687 @10 ASM ENTITY @36 cd71c5cc-942b-4fdc-a421-68e3f9f8eff1 #
vertex $-1 -1 $-1 $1012 $1013 #
straight-curve $-1 -1 $-1 -2800 80 1.123312841103769085e-13 0 10 0 I I #
coedge $-1 -1 $-1 $1014 $1015 $688 $862 forward $1016 $-1 #
edge $1017 -1 $-1 $865 1.308981647861257591e-16 $1018 3.999999999999986233 $688 $1019 forward @7 unknown #
coedge $-1 -1 $-1 $697 $689 $1015 $1020 reversed $698 $-1 #
DXID-attrib $-1 -1 $-1 $-1 $690 @10 ASM ENTITY @36 0bc47026-f3be-4efa-a04e-856a1896e2ee #
vertex $-1 -1 $-1 $690 $1021 #
coedge $-1 -1 $-1 $1022 $1023 $691 $867 reversed $1024 $-1 #
edge $1025 -1 $-1 $1010 -44.30000000000000426 $1018 0.5 $691 $1026 forward @7 unknown #
rgb_color-st-attrib $-1 -1 $1027 $-1 $692 0.6784313725490196401 0.6784313725490196401 0.6784313725490196401 #
face $1028 -1 $-1 $1029 $1030 $4 $-1 $1031 forward single #
plane-surface $-1 -1 $-1 -2800 80 1.123312841103769085e-13 -1 0 0 0 0 10 forward_v I I I I #
coedge $-1 -1 $-1 $968 $1032 $693 $872 forward $1030 $-1 #
edge $1033 -1 $-1 $1034 -44.30000000000000426 $696 -8 $871 $1035 forward @7 unknown #
face $1036 -1 $-1 $877 $694 $4 $-1 $1037 forward single #
point $-1 -1 $-1 -2760 0 1.123312841103769085e-13 #
coedge $-1 -1 $-1 $1038 $968 $697 $876 forward $1030 $-1 #
edge $1039 -1 $-1 $700 0 $1040 0.5 $875 $1035 forward @7 unknown #
face $1041 -1 $-1 $1042 $698 $4 $-1 $1037 forward single #
point $-1 -1 $-1 -2760 80 1.123312841103769085e-13 #
coedge $-1 -1 $-1 $1043 $701 $704 $885 reversed $881 $-1 #
coedge $-1 -1 $-1 $701 $1043 $711 $890 reversed $881 $-1 #
loop $-1 -1 $-1 $-1 $701 $804 #
DXID-attrib $-1 -1 $-1 $-1 $702 @10 ASM ENTITY @36 783b72f3-15ea-49fe-af48-d0330c477c83 #
straight-curve $-1 -1 $-1 -2800 80 -239.9999999999996589 0 -10 0 I I #
coedge $-1 -1 $-1 $704 $703 $732 $907 forward $705 $-1 #
edge $1044 -1 $-1 $1045 0 $707 4 $879 $1046 forward @7 unknown #
point $-1 -1 $-1 -2800 85 -239.9999999999996589 #
DXID-attrib $-1 -1 $-1 $-1 $709 @10 ASM ENTITY @36 214934bf-374f-4140-8f49-a4710df2a617 #
straight-curve $-1 -1 $-1 -3100 85 -199.9999999999996874 10 0 -1.031433003522726146e-15 I I #
coedge $-1 -1 $-1 $712 $711 $743 $914 forward $713 $-1 #
edge $1047 -1 $-1 $715 -4 $1048 -0 $880 $1049 forward @7 unknown #
point $-1 -1 $-1 -2800 -363.0000000000000568 -239.9999999999996589 #
DXID-attrib $-1 -1 $-1 $-1 $717 @10 ASM ENTITY @36 9d9dcf05-cdf6-44d5-bab4-60cbd5e6394b #
straight-curve $-1 -1 $-1 -3100 -363.0000000000000568 -199.9999999999996874 -10 0 1.031433003522726146e-15 I I #
DXID-attrib $-1 -1 $-1 $720 $536 @10 ASM ENTITY @36 ea813178-f222-4e18-9707-80aaa0a0b094 #
rgb_color-st-attrib $-1 -1 $1050 $-1 $721 0.6784313725490196401 0.6784313725490196401 0.6784313725490196401 #
plane-surface $-1 -1 $-1 -1930 80 0 0 0 -1 -10 -0 -0 forward_v I I I I #
coedge $-1 -1 $-1 $724 $723 $1051 $1052 reversed $725 $-1 #
edge $1053 -1 $-1 $556 0 $1054 0.5 $723 $1055 forward @7 unknown #
coedge $-1 -1 $-1 $1056 $727 $724 $900 forward $903 $-1 #
edge $1057 -1 $-1 $543 0 $1058 0.5 $899 $1059 forward @7 unknown #
face $1060 -1 $-1 $1061 $725 $4 $-1 $999 forward single #
coedge $-1 -1 $-1 $727 $1062 $737 $911 forward $903 $-1 #
loop $-1 -1 $-1 $-1 $902 $1063 #
straight-curve $-1 -1 $-1 -1970 40 -199.9999999999997726 0 -10 0 I I #
straight-curve $-1 -1 $-1 -2760 40 -199.9999999999997158 0 10 0 I I #
coedge $-1 -1 $-1 $732 $743 $1043 $1064 forward $733 $-1 #
edge $1065 -1 $-1 $735 0 $1045 4 $732 $1066 forward @7 unknown #
face $1067 -1 $-1 $375 $733 $4 $-1 $1068 forward single #
point $-1 -1 $-1 -2760 85 -199.9999999999996589 #
coedge $-1 -1 $-1 $738 $737 $1069 $1070 reversed $739 $-1 #
edge $1071 -1 $-1 $1072 -44.30000000000000426 $550 -8 $902 $1059 forward @7 unknown #
edge $1073 -1 $-1 $1074 -44.30000000000000426 $741 -8 $738 $1055 forward @7 unknown #
point $-1 -1 $-1 -1930 0 -199.9999999999997726 #
edge $1075 -1 $-1 $1048 -4 $745 -0 $743 $1076 forward @7 unknown #
point $-1 -1 $-1 -2760 -363.0000000000000568 -199.9999999999996589 #
straight-curve $-1 -1 $-1 -1170.000000000000227 40 -199.9999999999998863 0 -10 0 I I #
coedge $-1 -1 $-1 $1077 $749 $751 $922 forward $919 $-1 #
coedge $-1 -1 $-1 $749 $1077 $755 $925 forward $919 $-1 #
loop $-1 -1 $-1 $-1 $918 $1078 #
DXID-attrib $-1 -1 $-1 $-1 $750 @10 ASM ENTITY @36 2b60cf2a-4a57-4d09-8f4f-0657ba8f7c94 #
straight-curve $-1 -1 $-1 -3100 85 -199.9999999999996874 10 0 -1.031433003522726146e-15 I I #
edge $1079 -1 $-1 $753 -0 $1080 4 $751 $1081 forward @7 unknown #
point $-1 -1 $-1 -1130.000000000000227 85 -199.9999999999998579 #
coedge $-1 -1 $-1 $947 $755 $1082 $1083 forward $756 $-1 #
edge $1084 -1 $-1 $1085 0 $758 4 $755 $1086 forward @7 unknown #
face $1087 -1 $-1 $1078 $756 $4 $-1 $1088 forward single #
point $-1 -1 $-1 -1170.000000000000227 85 -199.9999999999998579 #
DXID-attrib $-1 -1 $-1 $-1 $761 @10 ASM ENTITY @36 aa28e751-f06b-486b-8df3-3966e23d01da #
face $1089 -1 $-1 $766 $1090 $4 $-1 $1091 forward single #
loop $-1 -1 $-1 $-1 $1092 $761 #
plane-surface $-1 -1 $-1 -1150 -363.0000000000000568 -219.9999999999998579 0 -1 0 0 0 -10 forward_v I I I I #
coedge $-1 -1 $-1 $945 $1093 $763 $933 forward $930 $-1 #
edge $1094 -1 $-1 $1095 -4 $935 0 $763 $1096 forward @7 unknown #
DXID-attrib $-1 -1 $-1 $-1 $764 @10 ASM ENTITY @36 bfb32a60-be98-4891-bc81-b2a0deb5376a #
vertex $-1 -1 $-1 $946 $1097 #
coedge $-1 -1 $-1 $1098 $1099 $765 $937 reversed $1090 $-1 #
edge $1100 -1 $-1 $1095 -44.30000000000000426 $1080 0.5 $765 $1101 forward @7 unknown #
rgb_color-st-attrib $-1 -1 $1102 $-1 $766 0.6784313725490196401 0.6784313725490196401 0.6784313725490196401 #
plane-surface $-1 -1 $-1 -1130.000000000000227 80 -199.9999999999998579 1 0 0 -0 -0 -10 forward_v I I I I #
DXID-attrib $-1 -1 $-1 $-1 $768 @10 ASM ENTITY @36 c0bc81bd-ce6e-48a0-9cd1-b50e0ade84c8 #
vertex $-1 -1 $-1 $784 $1103 #
straight-curve $-1 -1 $-1 -340.0000000000002274 80 -239.9999999999999716 0 -10 0 I I #
point $-1 -1 $-1 -340.0000000000002274 85 -239.9999999999999716 #
DXID-attrib $-1 -1 $-1 $773 $577 @10 ASM ENTITY @36 a1e4fe80-33f6-47c2-bf2f-bc2a46bb83ee #
coedge $-1 -1 $-1 $1092 $932 $777 $946 forward $930 $-1 #
edge $1104 -1 $-1 $935 -197 $949 -193 $777 $1105 forward @7 unknown #
coedge $-1 -1 $-1 $778 $924 $1092 $1106 reversed $756 $-1 #
DXID-attrib $-1 -1 $-1 $-1 $779 @10 ASM ENTITY @36 0bfe46d5-77a9-4cb7-9880-bee910365e8d #
vertex $-1 -1 $-1 $779 $1107 #
rgb_color-st-attrib $-1 -1 $1108 $-1 $780 0.6784313725490196401 0.6784313725490196401 0.6784313725490196401 #
DXID-attrib $-1 -1 $-1 $-1 $784 @10 ASM ENTITY @36 5564ad1b-de82-442e-9973-d9bbbbf1be04 #
straight-curve $-1 -1 $-1 -340.0000000000002274 -363.0000000000000568 -239.9999999999999716 -1.776356839400250465e-14 0 -10 I I #
DXID-attrib $-1 -1 $-1 $-1 $787 @10 ASM ENTITY @36 cd8b15e5-fa71-4caf-8ece-863406d41421 #
straight-curve $-1 -1 $-1 -300.0000000000001137 -363.0000000000000568 -239.9999999999999716 10 0 0 I I #
DXID-attrib $-1 -1 $-1 $-1 $789 @10 ASM ENTITY @36 772c27fb-0829-4655-bdf2-a9a84f2a2f0e #
straight-curve $-1 -1 $-1 -300.0000000000001137 85 -239.9999999999999716 -10 -0 -0 I I #
DXID-attrib $-1 -1 $-1 $792 $610 @10 ASM ENTITY @36 190be16b-6fa1-4c53-88f8-107e2f3c1401 #
DXID-attrib $-1 -1 $-1 $795 $614 @10 ASM ENTITY @36 3fbd523e-776b-4e23-a519-3cc956241d7a #
coedge $-1 -1 $-1 $835 $809 $796 $960 reversed $973 $-1 #
edge $-1 -1 $-1 $662 -4 $634 4 $796 $1109 forward @7 unknown #
coedge $-1 -1 $-1 $963 $797 $1110 $1111 reversed $799 $-1 #
coedge $-1 -1 $-1 $798 $963 $1112 $1113 reversed $799 $-1 #
coedge $-1 -1 $-1 $962 $961 $1114 $1115 forward $799 $-1 #
face $1116 -1 $-1 $1063 $799 $4 $-1 $1117 forward single #
DXID-attrib $-1 -1 $-1 $803 $627 @10 ASM ENTITY @36 3c1b5f95-c19b-4d4b-8ee2-9a54e47db017 #
rgb_color-st-attrib $-1 -1 $1118 $-1 $804 0.6784313725490196401 0.6784313725490196401 0.6784313725490196401 #
plane-surface $-1 -1 $-1 -2760 80 -239.9999999999996589 0 0 -1 -10 0 0 forward_v I I I I #
coedge $-1 -1 $-1 $875 $871 $806 $969 reversed $1030 $-1 #
edge $-1 -1 $-1 $700 -4 $696 4 $806 $1119 forward @7 unknown #
coedge $-1 -1 $-1 $1120 $1121 $808 $971 forward $1122 $-1 #
edge $1123 -1 $-1 $979 193 $975 197 $808 $1124 forward @7 unknown #
coedge $-1 -1 $-1 $809 $1125 $1120 $1126 reversed $973 $-1 #
loop $-1 -1 $-1 $-1 $1125 $1127 #
DXID-attrib $-1 -1 $-1 $-1 $810 @10 ASM ENTITY @36 f6ab9096-9188-4b8f-ac39-49e9e3cb861e #
vertex $-1 -1 $-1 $810 $1128 #
straight-curve $-1 -1 $-1 -1970 80 -1.554312234475219157e-14 0 10 0 I I #
coedge $-1 -1 $-1 $1129 $811 $1121 $1130 reversed $816 $-1 #
DXID-attrib $-1 -1 $-1 $-1 $812 @10 ASM ENTITY @36 1874effb-f403-470a-a0ea-7224d210a50a #
vertex $-1 -1 $-1 $971 $1131 #
straight-curve $-1 -1 $-1 -1930 80 0 0 10 0 I I #
DXID-attrib $-1 -1 $-1 $-1 $813 @10 ASM ENTITY @36 017f0b61-d63e-4545-b5b0-9e2dc987e977 #
face $1132 -1 $-1 $1133 $1134 $4 $-1 $1135 forward single #
coedge $-1 -1 $-1 $815 $1129 $1136 $1137 reversed $816 $-1 #
face $1138 -1 $-1 $1139 $816 $4 $-1 $1140 forward single #
DXID-attrib $-1 -1 $-1 $-1 $824 @10 ASM ENTITY @36 9558ac33-a424-41dc-9988-670517f94030 #
vertex $-1 -1 $-1 $845 $1141 #
straight-curve $-1 -1 $-1 -1170 85 3.259178811740584961e-15 0 0 10 I I #
DXID-attrib $-1 -1 $-1 $-1 $826 @10 ASM ENTITY @36 0c942fdc-4ac4-4f5a-abaa-f7af1b1a30db #
straight-curve $-1 -1 $-1 -1130 85 40.00000000000020606 0 0 -10 I I #
coedge $-1 -1 $-1 $1136 $1142 $833 $991 forward $1134 $-1 #
edge $1143 -1 $-1 $996 -197 $993 -193 $833 $1144 forward @7 unknown #
DXID-attrib $-1 -1 $-1 $-1 $834 @10 ASM ENTITY @36 7568c7ac-2b56-4f94-84e3-028046209dc1 #
vertex $-1 -1 $-1 $834 $1145 #
coedge $-1 -1 $-1 $1125 $835 $1142 $1146 reversed $973 $-1 #
DXID-attrib $-1 -1 $-1 $-1 $836 @10 ASM ENTITY @36 97e41388-86ea-4b88-9129-ece0acecc8f2 #
vertex $-1 -1 $-1 $991 $1147 #
DXID-attrib $-1 -1 $-1 $839 $668 @10 ASM ENTITY @36 adb331c5-e92f-4fb8-a153-6ee1a79e0590 #
rgb_color-st-attrib $-1 -1 $1148 $-1 $840 0.6784313725490196401 0.6784313725490196401 0.6784313725490196401 #
plane-surface $-1 -1 $-1 -1970 80 -199.9999999999997726 1.031433003522726122e-16 0 1 10 0 -1.031433003522726146e-15 forward_v I I I I #
DXID-attrib $-1 -1 $-1 $-1 $843 @10 ASM ENTITY @36 a793e092-2f60-4bf7-b760-027363c9d4a4 #
straight-curve $-1 -1 $-1 -1170 80 40.00000000000021316 0 10 0 I I #
DXID-attrib $-1 -1 $-1 $-1 $845 @10 ASM ENTITY @36 f76e30ec-ff81-4438-978a-9695ad353a15 #
straight-curve $-1 -1 $-1 -1170 85 40.00000000000021316 10 0 -2.220446049250313081e-15 I I #
point $-1 -1 $-1 -1130 85 40.00000000000020606 #
point $-1 -1 $-1 -1170 -363.0000000000000568 40.00000000000021316 #
coedge $-1 -1 $-1 $1149 $855 $857 $1012 forward $1008 $-1 #
coedge $-1 -1 $-1 $855 $1149 $1022 $1150 forward $1008 $-1 #
loop $-1 -1 $-1 $-1 $1149 $1042 #
DXID-attrib $-1 -1 $-1 $-1 $856 @10 ASM ENTITY @36 2bf647d8-1d0d-40c6-a5e4-740562ea278f #
vertex $-1 -1 $-1 $1150 $1151 #
straight-curve $-1 -1 $-1 -2800 -363.0000000000000568 1.11022302462515654e-13 0 0 -10 I I #
edge $1152 -1 $-1 $859 -280 $1034 -276 $857 $1153 forward @7 unknown #
point $-1 -1 $-1 -2800 -363.0000000000000568 1.11022302462515654e-13 #
coedge $-1 -1 $-1 $1154 $861 $1023 $1155 forward $1016 $-1 #
coedge $-1 -1 $-1 $861 $1154 $863 $1020 forward $1016 $-1 #
loop $-1 -1 $-1 $-1 $1154 $1029 #
DXID-attrib $-1 -1 $-1 $-1 $862 @10 ASM ENTITY @36 ead24afe-85ab-43d1-af32-564f7b1b4577 #
vertex $-1 -1 $-1 $1155 $1156 #
straight-curve $-1 -1 $-1 -2800 85 1.11022302462515654e-13 0 0 10 I I #
edge $1157 -1 $-1 $1040 276 $865 280 $863 $1158 forward @7 unknown #
point $-1 -1 $-1 -2800 85 1.11022302462515654e-13 #
coedge $-1 -1 $-1 $1159 $866 $1007 $1150 reversed $1024 $-1 #
coedge $-1 -1 $-1 $866 $1159 $1014 $1155 reversed $1024 $-1 #
loop $-1 -1 $-1 $-1 $1159 $1160 #
DXID-attrib $-1 -1 $-1 $-1 $867 @10 ASM ENTITY @36 812b8073-f60f-4668-a15c-b10e6c5eae1b #
straight-curve $-1 -1 $-1 -2800 80 39.99999999999997158 0 10 0 I I #
DXID-attrib $-1 -1 $-1 $868 $692 @10 ASM ENTITY @36 620e7d23-f591-4f94-8205-e3069b6fa4db #
rgb_color-st-attrib $-1 -1 $1161 $-1 $869 0.6784313725490196401 0.6784313725490196401 0.6784313725490196401 #
face $1162 -1 $-1 $89 $1016 $4 $-1 $1163 forward single #
loop $-1 -1 $-1 $-1 $871 $869 #
plane-surface $-1 -1 $-1 -2760 80 39.99999999999997158 1 0 0 -0 -0 -10 forward_v I I I I #
coedge $-1 -1 $-1 $871 $1164 $1149 $1165 reversed $1030 $-1 #
DXID-attrib $-1 -1 $-1 $-1 $872 @10 ASM ENTITY @36 cc18e0e0-fbb2-43bd-896d-6aeea2138ea6 #
vertex $-1 -1 $-1 $872 $1166 #
straight-curve $-1 -1 $-1 -2760 80 1.123312841103769085e-13 0 10 0 I I #
rgb_color-st-attrib $-1 -1 $1167 $-1 $873 0.6784313725490196401 0.6784313725490196401 0.6784313725490196401 #
plane-surface $-1 -1 $-1 -2760 80 0 0 0 -1 -10 -0 -0 forward_v I I I I #
coedge $-1 -1 $-1 $1164 $875 $1154 $1168 reversed $1030 $-1 #
DXID-attrib $-1 -1 $-1 $-1 $876 @10 ASM ENTITY @36 9339615c-840f-4adc-9cf6-b8dd78abe25e #
vertex $-1 -1 $-1 $1020 $1169 #
DXID-attrib $-1 -1 $-1 $-1 $877 @10 ASM ENTITY @36 b483c15a-7668-4a10-b6b0-4de505a1d2de #
face $1170 -1 $-1 $1160 $1008 $4 $-1 $1171 forward single #
coedge $-1 -1 $-1 $880 $879 $906 $1064 reversed $881 $-1 #
DXID-attrib $-1 -1 $-1 $-1 $885 @10 ASM ENTITY @36 b10c2554-7916-462b-a58c-6083df98580d #
vertex $-1 -1 $-1 $885 $1172 #
straight-curve $-1 -1 $-1 -2760 85 -239.9999999999996589 -10 0 0 I I #
DXID-attrib $-1 -1 $-1 $-1 $890 @10 ASM ENTITY @36 da8a7f80-6fe7-4a29-8924-bd43f54155bc #
vertex $-1 -1 $-1 $890 $1173 #
straight-curve $-1 -1 $-1 -2760 -363.0000000000000568 -239.9999999999996589 10 0 0 I I #
DXID-attrib $-1 -1 $-1 $895 $721 @10 ASM ENTITY @36 ca2a12d2-90d9-4d8d-9dc2-43ae0dc34324 #
coedge $-1 -1 $-1 $1112 $1174 $897 $1052 forward $1175 $-1 #
edge $1176 -1 $-1 $1058 113 $1054 117 $897 $1177 forward @7 unknown #
DXID-attrib $-1 -1 $-1 $-1 $898 @10 ASM ENTITY @36 cfa3e2f5-c8eb-46ea-9faf-c0555ea85d66 #
vertex $-1 -1 $-1 $898 $1178 #
straight-curve $-1 -1 $-1 -1930 80 -199.9999999999997726 0 10 0 I I #
coedge $-1 -1 $-1 $1179 $899 $1174 $1180 reversed $903 $-1 #
DXID-attrib $-1 -1 $-1 $-1 $900 @10 ASM ENTITY @36 9b9dd54a-6601-4c83-b9e1-cc7cbaf50174 #
vertex $-1 -1 $-1 $1052 $1181 #
straight-curve $-1 -1 $-1 -1970 80 -199.9999999999997442 0 10 0 I I #
DXID-attrib $-1 -1 $-1 $-1 $901 @10 ASM ENTITY @36 67b41818-aa78-4120-8051-0a6e08bb7b3b #
face $1182 -1 $-1 $1183 $1184 $4 $-1 $1185 forward single #
coedge $-1 -1 $-1 $902 $1179 $1186 $1187 reversed $903 $-1 #
face $1188 -1 $-1 $1189 $903 $4 $-1 $1190 forward single #
edge $1191 -1 $-1 $1048 -44.30000000000000426 $1045 0.5 $906 $1192 forward @7 unknown #
DXID-attrib $-1 -1 $-1 $-1 $907 @10 ASM ENTITY @36 92cc4853-d587-4d21-9db4-0f949a774466 #
straight-curve $-1 -1 $-1 -2760 85 -199.9999999999996589 0 0 -10 I I #
rgb_color-st-attrib $-1 -1 $1193 $-1 $908 0.6784313725490196401 0.6784313725490196401 0.6784313725490196401 #
plane-surface $-1 -1 $-1 -2760 80 -199.9999999999996589 1 0 0 0 0 -10 forward_v I I I I #
coedge $-1 -1 $-1 $1186 $1110 $910 $1070 forward $1184 $-1 #
edge $1194 -1 $-1 $1074 -117 $1072 -113 $910 $1195 forward @7 unknown #
DXID-attrib $-1 -1 $-1 $-1 $911 @10 ASM ENTITY @36 5cbe79f4-00cb-44b2-804e-edaa470ef061 #
vertex $-1 -1 $-1 $911 $1196 #
DXID-attrib $-1 -1 $-1 $-1 $912 @10 ASM ENTITY @36 922764c1-cb19-4f07-b37b-5b3da5c3f238 #
vertex $-1 -1 $-1 $1070 $1197 #
DXID-attrib $-1 -1 $-1 $-1 $914 @10 ASM ENTITY @36 ca1ad6bd-9fbb-4899-9583-d78645ecdb82 #
straight-curve $-1 -1 $-1 -2760 -363.0000000000000568 -199.9999999999996589 0 0 10 I I #
coedge $-1 -1 $-1 $918 $917 $1099 $1198 forward $919 $-1 #
face $1199 -1 $-1 $873 $919 $4 $-1 $1200 forward single #
DXID-attrib $-1 -1 $-1 $-1 $922 @10 ASM ENTITY @36 cd227480-ad5e-4be3-8302-45ecc00485ec #
vertex $-1 -1 $-1 $1198 $1201 #
straight-curve $-1 -1 $-1 -1130.000000000000227 85 -199.9999999999998579 -0 -0 -10 I I #
coedge $-1 -1 $-1 $1099 $1098 $924 $1083 reversed $1090 $-1 #
edge $1202 -1 $-1 $1085 -0.5 $1203 44.30000000000000426 $924 $1204 forward @7 unknown #
DXID-attrib $-1 -1 $-1 $-1 $925 @10 ASM ENTITY @36 32b29af1-bc5d-4460-8e72-eeab1a315a08 #
vertex $-1 -1 $-1 $1083 $1205 #
straight-curve $-1 -1 $-1 -1170.000000000000227 85 -239.9999999999998579 0 0 10 I I #
rgb_color-st-attrib $-1 -1 $1206 $-1 $926 0.6784313725490196401 0.6784313725490196401 0.6784313725490196401 #
plane-surface $-1 -1 $-1 -1170.000000000000227 80 -239.9999999999998579 -1 0 0 0 0 10 forward_v I I I I #
rgb_color-st-attrib $-1 -1 $1207 $-1 $929 0.6784313725490196401 0.6784313725490196401 0.6784313725490196401 #
loop $-1 -1 $-1 $-1 $1082 $929 #
plane-surface $-1 -1 $-1 -1130.000000000000227 80 -239.9999999999998579 0 0 -1 -10 -0 -0 forward_v I I I I #
coedge $-1 -1 $-1 $1093 $945 $947 $1106 forward $930 $-1 #
coedge $-1 -1 $-1 $932 $1092 $1098 $1208 forward $930 $-1 #
DXID-attrib $-1 -1 $-1 $-1 $933 @10 ASM ENTITY @36 0d02db60-9da5-403e-a2e0-058cd0cacf10 #
vertex $-1 -1 $-1 $1208 $1209 #
straight-curve $-1 -1 $-1 -1130.000000000000227 -363.0000000000000568 -199.9999999999998579 0 0 10 I I #
point $-1 -1 $-1 -1130.000000000000227 -363.0000000000000568 -199.9999999999998579 #
coedge $-1 -1 $-1 $1082 $936 $1093 $1208 reversed $1090 $-1 #
coedge $-1 -1 $-1 $936 $1082 $1077 $1198 reversed $1090 $-1 #
DXID-attrib $-1 -1 $-1 $-1 $937 @10 ASM ENTITY @36 a2b1b291-8580-49e1-9917-8302cd2096ec #
straight-curve $-1 -1 $-1 -1130.000000000000227 80 -239.9999999999998579 0 10 0 I I #
DXID-attrib $-1 -1 $-1 $938 $766 @10 ASM ENTITY @36 3b94586a-773b-47e4-b337-44fe77b5a4c7 #
point $-1 -1 $-1 -340.0000000000002274 -363.0000000000000568 -239.9999999999999716 #
DXID-attrib $-1 -1 $-1 $-1 $946 @10 ASM ENTITY @36 a73c5ad4-abb7-4dcf-a2e5-55f689c3a9aa #
straight-curve $-1 -1 $-1 -3100 -363.0000000000000568 -199.9999999999996874 -10 0 1.031433003522726146e-15 I I #
edge $1210 -1 $-1 $949 -4 $1203 -0 $947 $1211 forward @7 unknown #
point $-1 -1 $-1 -1170.000000000000227 -363.0000000000000568 -199.9999999999998579 #
DXID-attrib $-1 -1 $-1 $950 $780 @10 ASM ENTITY @36 bf06bee5-9457-4809-b4ef-3053bf7f5498 #
straight-curve $-1 -1 $-1 -1970 40 0 0 10 0 I I #
coedge $-1 -1 $-1 $1069 $1212 $961 $1111 forward $1184 $-1 #
edge $1213 -1 $-1 $1214 -4.000000000000003553 $1074 0 $961 $1215 forward @7 unknown #
coedge $-1 -1 $-1 $1216 $1051 $962 $1113 forward $1175 $-1 #
edge $1217 -1 $-1 $1054 -0 $1218 4.000000000000003553 $962 $1219 forward @7 unknown #
coedge $-1 -1 $-1 $1220 $1221 $963 $1115 reversed $1222 $-1 #
edge $1223 -1 $-1 $1214 -44.30000000000000426 $1218 0.5 $963 $1224 forward @7 unknown #
rgb_color-st-attrib $-1 -1 $1225 $-1 $964 0.6784313725490196401 0.6784313725490196401 0.6784313725490196401 #
plane-surface $-1 -1 $-1 -1930 80 -199.9999999999997726 1 0 0 -0 -0 -10 forward_v I I I I #
DXID-attrib $-1 -1 $-1 $966 $804 @10 ASM ENTITY @36 63b80250-3700-4116-9a7f-1c9dd8e87964 #
straight-curve $-1 -1 $-1 -2760 40 0 0 -10 0 I I #
coedge $-1 -1 $-1 $1226 $970 $972 $1126 forward $1122 $-1 #
coedge $-1 -1 $-1 $970 $1226 $977 $1130 forward $1122 $-1 #
loop $-1 -1 $-1 $-1 $1121 $1139 #
DXID-attrib $-1 -1 $-1 $-1 $971 @10 ASM ENTITY @36 091ddd5c-83e2-42c3-bb03-f1573b69bc62 #
straight-curve $-1 -1 $-1 0 85 0 -10 -0 -0 I I #
coedge $-1 -1 $-1 $972 $994 $1227 $1228 forward $973 $-1 #
edge $1229 -1 $-1 $975 0 $1230 3.999999999999987566 $972 $1231 forward @7 unknown #
face $1232 -1 $-1 $984 $973 $4 $-1 $1233 forward single #
point $-1 -1 $-1 -1970 85 -1.776356839400250465e-14 #
coedge $-1 -1 $-1 $983 $977 $1234 $1235 forward $816 $-1 #
edge $1236 -1 $-1 $1237 0 $979 3.999999999999984901 $977 $1238 forward @7 unknown #
point $-1 -1 $-1 -1930 85 0 #
rgb_color-st-attrib $-1 -1 $1239 $-1 $982 0.6784313725490196401 0.6784313725490196401 0.6784313725490196401 #
face $1240 -1 $-1 $1127 $1241 $4 $-1 $1242 forward single #
loop $-1 -1 $-1 $-1 $1136 $982 #
plane-surface $-1 -1 $-1 -1950 -363.0000000000000568 19.99999999999992184 0 -1 0 0 0 -10 forward_v I I I I #
coedge $-1 -1 $-1 $1243 $990 $983 $1137 forward $1134 $-1 #
edge $1244 -1 $-1 $993 -3.999999999999984901 $1245 -0 $983 $1246 forward @7 unknown #
rgb_color-st-attrib $-1 -1 $1247 $-1 $984 0.6784313725490196401 0.6784313725490196401 0.6784313725490196401 #
face $1248 -1 $-1 $780 $1122 $4 $-1 $1249 forward single #
plane-surface $-1 -1 $-1 -1930 80 39.99999999999985079 1 0 0 0 0 -10 forward_v I I I I #
point $-1 -1 $-1 -1170 85 40.00000000000021316 #
coedge $-1 -1 $-1 $990 $1243 $994 $1146 forward $1134 $-1 #
DXID-attrib $-1 -1 $-1 $-1 $991 @10 ASM ENTITY @36 2249c0f3-7401-44da-9c76-24994b3e1b47 #
straight-curve $-1 -1 $-1 0 -363.0000000000000568 0 10 0 0 I I #
point $-1 -1 $-1 -1930 -363.0000000000000568 0 #
edge $1250 -1 $-1 $1251 -3.999999999999987566 $996 -0 $994 $1252 forward @7 unknown #
point $-1 -1 $-1 -1970 -363.0000000000000568 -1.776356839400250465e-14 #
DXID-attrib $-1 -1 $-1 $998 $840 @10 ASM ENTITY @36 d42ee47d-42d8-4a83-b84a-8dc1aa110955 #
coedge $-1 -1 $-1 $1007 $1006 $1032 $1165 forward $1008 $-1 #
edge $1253 -1 $-1 $1254 -4 $1010 -0 $1022 $1255 forward @7 unknown #
point $-1 -1 $-1 -2800 -363.0000000000000568 39.99999999999997158 #
DXID-attrib $-1 -1 $-1 $-1 $1012 @10 ASM ENTITY @36 93229cb2-cf4a-457e-a9bd-a6af44d051cd #
straight-curve $-1 -1 $-1 0 -363.0000000000000568 0 10 0 0 I I #
coedge $-1 -1 $-1 $1015 $1014 $1038 $1168 forward $1016 $-1 #
edge $1256 -1 $-1 $1018 0 $1257 4 $1023 $1258 forward @7 unknown #
point $-1 -1 $-1 -2800 85 39.99999999999997158 #
DXID-attrib $-1 -1 $-1 $-1 $1020 @10 ASM ENTITY @36 58445bb6-6ad1-45b0-acaf-7b88ce54bd4e #
straight-curve $-1 -1 $-1 0 85 0 -10 -0 -0 I I #
coedge $-1 -1 $-1 $1023 $1022 $1164 $1259 reversed $1024 $-1 #
face $1260 -1 $-1 $692 $1024 $4 $-1 $1261 forward single #
DXID-attrib $-1 -1 $-1 $1028 $869 @10 ASM ENTITY @36 0fa179e9-b4e4-4e5f-ac7e-1f1257d5d7be #
rgb_color-st-attrib $-1 -1 $1262 $-1 $1029 0 0 0 #
plane-surface $-1 -1 $-1 -2780 85 19.99999999999998579 0 1 0 0 0 10 forward_v I I I I #
coedge $-1 -1 $-1 $1032 $1038 $1159 $1259 forward $1030 $-1 #
edge $1263 -1 $-1 $1034 -3.999999999999985789 $1254 0 $1032 $1264 forward @7 unknown #
point $-1 -1 $-1 -2760 -363.0000000000000568 1.11022302462515654e-13 #
DXID-attrib $-1 -1 $-1 $1036 $873 @10 ASM ENTITY @36 11ab4ca3-91c4-43e1-8ca6-c0947269cf32 #
edge $1265 -1 $-1 $1257 -0 $1040 3.999999999999985789 $1038 $1266 forward @7 unknown #
point $-1 -1 $-1 -2760 85 1.11022302462515654e-13 #
rgb_color-st-attrib $-1 -1 $1267 $-1 $1042 0.6784313725490196401 0.6784313725490196401 0.6784313725490196401 #
plane-surface $-1 -1 $-1 -2780 -363.0000000000000568 19.99999999999998579 0 -1 0 0 0 -10 forward_v I I I I #
point $-1 -1 $-1 -2760 85 -239.9999999999996589 #
point $-1 -1 $-1 -2760 -363.0000000000000568 -239.9999999999996589 #
coedge $-1 -1 $-1 $1051 $1216 $1056 $1180 forward $1175 $-1 #
loop $-1 -1 $-1 $-1 $1174 $1189 #
DXID-attrib $-1 -1 $-1 $-1 $1052 @10 ASM ENTITY @36 73da9156-270f-442f-b2b8-d5339f243dc0 #
straight-curve $-1 -1 $-1 -3100 85 -199.9999999999996874 10 0 -1.031433003522726146e-15 I I #
point $-1 -1 $-1 -1930 85 -199.9999999999997726 #
coedge $-1 -1 $-1 $1062 $1056 $1268 $1269 forward $903 $-1 #
edge $1270 -1 $-1 $1271 0 $1058 4.000000000000007105 $1056 $1272 forward @7 unknown #
point $-1 -1 $-1 -1970 85 -199.9999999999997442 #
rgb_color-st-attrib $-1 -1 $1273 $-1 $1061 0.6784313725490196401 0.6784313725490196401 0.6784313725490196401 #
face $1274 -1 $-1 $964 $1222 $4 $-1 $1275 forward single #
loop $-1 -1 $-1 $-1 $1186 $1061 #
plane-surface $-1 -1 $-1 -1950 -363.0000000000000568 -219.9999999999997726 0 -1 0 0 0 -10 forward_v I I I I #
coedge $-1 -1 $-1 $1212 $1069 $1062 $1187 forward $1184 $-1 #
edge $1276 -1 $-1 $1072 -4.000000000000007105 $1277 -0 $1062 $1278 forward @7 unknown #
rgb_color-st-attrib $-1 -1 $1279 $-1 $1063 0.6784313725490196401 0.6784313725490196401 0.6784313725490196401 #
face $1280 -1 $-1 $423 $1175 $4 $-1 $1281 forward single #
plane-surface $-1 -1 $-1 -1970 80 -239.9999999999998295 -1 0 0 0 0 10 forward_v I I I I #
DXID-attrib $-1 -1 $-1 $-1 $1064 @10 ASM ENTITY @36 2d52a41c-682e-4ac6-af68-1810504f5c50 #
straight-curve $-1 -1 $-1 -2760 80 -239.9999999999996589 0 10 0 I I #
DXID-attrib $-1 -1 $-1 $1067 $908 @10 ASM ENTITY @36 c530e49b-7bce-4506-bce0-96f74000898a #
DXID-attrib $-1 -1 $-1 $-1 $1070 @10 ASM ENTITY @36 2fcc71cf-68f1-43dd-bda1-3efde741876c #
straight-curve $-1 -1 $-1 -3100 -363.0000000000000568 -199.9999999999996874 -10 0 1.031433003522726146e-15 I I #
point $-1 -1 $-1 -1970 -363.0000000000000568 -199.9999999999997442 #
point $-1 -1 $-1 -1930 -363.0000000000000568 -199.9999999999997726 #
edge $1282 -1 $-1 $1080 -0 $1085 4 $1099 $1283 forward @7 unknown #
rgb_color-st-attrib $-1 -1 $1284 $-1 $1078 0 0 0 #
plane-surface $-1 -1 $-1 -1150 85 -219.9999999999998579 0 1 0 0 0 10 forward_v I I I I #
point $-1 -1 $-1 -1130.000000000000227 85 -239.9999999999998579 #
DXID-attrib $-1 -1 $-1 $-1 $1083 @10 ASM ENTITY @36 c24e4772-8214-4fc5-a387-ed08dcb1baa4 #
vertex $-1 -1 $-1 $1106 $1285 #
straight-curve $-1 -1 $-1 -1170.000000000000227 80 -239.9999999999998579 0 -10 0 I I #
point $-1 -1 $-1 -1170.000000000000227 85 -239.9999999999998579 #
DXID-attrib $-1 -1 $-1 $1087 $926 @10 ASM ENTITY @36 1a88c7c4-36bd-42e2-913c-c11b9657d055 #
DXID-attrib $-1 -1 $-1 $1089 $929 @10 ASM ENTITY @36 32dba045-c6ea-4762-9028-370c6abc4dd0 #
edge $1286 -1 $-1 $1203 -4 $1095 0 $1098 $1287 forward @7 unknown #
point $-1 -1 $-1 -1130.000000000000227 -363.0000000000000568 -239.9999999999998579 #
DXID-attrib $-1 -1 $-1 $-1 $1106 @10 ASM ENTITY @36 b1db6c3d-2772-4634-bd8d-0a8ab2cbd705 #
straight-curve $-1 -1 $-1 -1170.000000000000227 -363.0000000000000568 -239.9999999999998579 0 0 -10 I I #
coedge $-1 -1 $-1 $1110 $1186 $1220 $1288 forward $1184 $-1 #
DXID-attrib $-1 -1 $-1 $-1 $1111 @10 ASM ENTITY @36 1291eb05-ddfd-42ef-8c57-0e6f5debe624 #
vertex $-1 -1 $-1 $1288 $1289 #
straight-curve $-1 -1 $-1 -1930 -363.0000000000000568 -199.9999999999997726 0 0 10 I I #
coedge $-1 -1 $-1 $1174 $1112 $1221 $1290 forward $1175 $-1 #
DXID-attrib $-1 -1 $-1 $-1 $1113 @10 ASM ENTITY @36 6d15f658-fd8d-4f6d-8cb7-9ac2c98ab1ea #
vertex $-1 -1 $-1 $1290 $1291 #
straight-curve $-1 -1 $-1 -1930 85 -199.9999999999997726 -0 -0 -10 I I #
coedge $-1 -1 $-1 $1268 $1114 $1212 $1288 reversed $1222 $-1 #
coedge $-1 -1 $-1 $1114 $1268 $1216 $1290 reversed $1222 $-1 #
loop $-1 -1 $-1 $-1 $1268 $1183 #
DXID-attrib $-1 -1 $-1 $-1 $1115 @10 ASM ENTITY @36 d26af4a6-9180-4808-a7e4-a5558fe16671 #
straight-curve $-1 -1 $-1 -1930 80 -239.9999999999998295 0 10 0 I I #
DXID-attrib $-1 -1 $-1 $1116 $964 @10 ASM ENTITY @36 758fffe1-cbaf-408a-b8d6-2e6c5efc9937 #
coedge $-1 -1 $-1 $1121 $1120 $1292 $1293 forward $1122 $-1 #
coedge $-1 -1 $-1 $1294 $1292 $1125 $1228 reversed $1241 $-1 #
edge $1295 -1 $-1 $1251 -44.30000000000000426 $1230 0.5 $1125 $1296 forward @7 unknown #
DXID-attrib $-1 -1 $-1 $-1 $1126 @10 ASM ENTITY @36 f258af9e-a04e-401b-9d4e-1014029119ec #
vertex $-1 -1 $-1 $1293 $1297 #
straight-curve $-1 -1 $-1 -1970 85 -1.554312234475219157e-14 0 0 10 I I #
rgb_color-st-attrib $-1 -1 $1298 $-1 $1127 0.6784313725490196401 0.6784313725490196401 0.6784313725490196401 #
plane-surface $-1 -1 $-1 -1970 80 -1.554312234475219157e-14 -1 0 0 0 0 10 forward_v I I I I #
coedge $-1 -1 $-1 $1292 $1294 $1129 $1235 reversed $1241 $-1 #
edge $1299 -1 $-1 $1237 -0.5 $1245 44.30000000000000426 $1129 $1300 forward @7 unknown #
DXID-attrib $-1 -1 $-1 $-1 $1130 @10 ASM ENTITY @36 31829e1c-edf4-464a-b403-4d0a2ca25935 #
vertex $-1 -1 $-1 $1235 $1301 #
straight-curve $-1 -1 $-1 -1930 85 39.99999999999985079 0 0 -10 I I #
DXID-attrib $-1 -1 $-1 $1132 $982 @10 ASM ENTITY @36 4927955d-a38b-4c19-95db-cbc01b5579a3 #
rgb_color-st-attrib $-1 -1 $1302 $-1 $1133 0.6784313725490196401 0.6784313725490196401 0.6784313725490196401 #
loop $-1 -1 $-1 $-1 $1234 $1133 #
plane-surface $-1 -1 $-1 -1970 80 39.99999999999985789 2.220446049250313081e-16 0 1 10 0 -2.220446049250313081e-15 forward_v I I I I #
coedge $-1 -1 $-1 $1142 $1136 $1294 $1303 forward $1134 $-1 #
DXID-attrib $-1 -1 $-1 $-1 $1137 @10 ASM ENTITY @36 02498fc8-29a3-40e7-870c-b864df48a923 #
vertex $-1 -1 $-1 $1137 $1304 #
straight-curve $-1 -1 $-1 -1930 -363.0000000000000568 39.99999999999985079 0 0 10 I I #
DXID-attrib $-1 -1 $-1 $1138 $984 @10 ASM ENTITY @36 4be829bf-9a5e-434e-8721-d14101d8e502 #
rgb_color-st-attrib $-1 -1 $1305 $-1 $1139 0 0 0 #
plane-surface $-1 -1 $-1 -1950 85 19.99999999999992184 0 1 0 0 0 10 forward_v I I I I #
DXID-attrib $-1 -1 $-1 $-1 $1146 @10 ASM ENTITY @36 7800c799-e6f4-4094-931c-5698bf2a1684 #
vertex $-1 -1 $-1 $1303 $1306 #
straight-curve $-1 -1 $-1 -1970 -363.0000000000000568 -1.554312234475219157e-14 -0 -0 -10 I I #
DXID-attrib $-1 -1 $-1 $-1 $1150 @10 ASM ENTITY @36 ce94c7e4-2154-47c6-b7f8-fcf16ba39f4b #
vertex $-1 -1 $-1 $1165 $1307 #
straight-curve $-1 -1 $-1 -2800 -363.0000000000000568 39.99999999999997158 -10 0 1.11022302462515654e-15 I I #
DXID-attrib $-1 -1 $-1 $-1 $1155 @10 ASM ENTITY @36 4ba68e39-6b70-4f89-b9e2-bae82bb48da7 #
vertex $-1 -1 $-1 $1259 $1308 #
straight-curve $-1 -1 $-1 -2800 85 39.99999999999997158 10 0 -1.11022302462515654e-15 I I #
edge $1309 -1 $-1 $1257 -0.5 $1254 44.30000000000000426 $1164 $1310 forward @7 unknown #
rgb_color-st-attrib $-1 -1 $1311 $-1 $1160 0.6784313725490196401 0.6784313725490196401 0.6784313725490196401 #
plane-surface $-1 -1 $-1 -2800 80 39.99999999999997158 1.11022302462515654e-16 0 1 10 0 -1.11022302462515654e-15 forward_v I I I I #
DXID-attrib $-1 -1 $-1 $1162 $1029 @10 ASM ENTITY @36 817f8528-c15d-4313-b41a-8d7c3a2a4cad #
DXID-attrib $-1 -1 $-1 $-1 $1165 @10 ASM ENTITY @36 9576bc61-6e7b-4c87-8b77-edcb31f36e16 #
straight-curve $-1 -1 $-1 -2760 -363.0000000000000568 39.99999999999997158 0 0 10 I I #
DXID-attrib $-1 -1 $-1 $-1 $1168 @10 ASM ENTITY @36 1ae369ee-bd73-435e-b69b-dde60cffd6f8 #
straight-curve $-1 -1 $-1 -2760 85 39.99999999999997158 -0 -0 -10 I I #
DXID-attrib $-1 -1 $-1 $1170 $1042 @10 ASM ENTITY @36 3f5451a7-1a0e-4b15-b3ec-7c6390b9b410 #
coedge $-1 -1 $-1 $1221 $1220 $1179 $1269 reversed $1222 $-1 #
edge $1312 -1 $-1 $1271 -0.5 $1277 44.30000000000000426 $1179 $1313 forward @7 unknown #
DXID-attrib $-1 -1 $-1 $-1 $1180 @10 ASM ENTITY @36 26a44e0e-7836-4e26-b000-1c30d576e812 #
vertex $-1 -1 $-1 $1269 $1314 #
straight-curve $-1 -1 $-1 -1970 85 -239.9999999999998295 0 0 10 I I #
DXID-attrib $-1 -1 $-1 $1182 $1061 @10 ASM ENTITY @36 c9ef3594-1a59-4bf8-8a63-50062d9845bc #
rgb_color-st-attrib $-1 -1 $1315 $-1 $1183 0.6784313725490196401 0.6784313725490196401 0.6784313725490196401 #
plane-surface $-1 -1 $-1 -1930 80 -239.9999999999998295 0 0 -1 -10 -0 -0 forward_v I I I I #
DXID-attrib $-1 -1 $-1 $-1 $1187 @10 ASM ENTITY @36 25f778b3-2658-4fe3-8365-2a8c7b323722 #
vertex $-1 -1 $-1 $1187 $1316 #
straight-curve $-1 -1 $-1 -1970 -363.0000000000000568 -239.9999999999998295 0 0 -10 I I #
DXID-attrib $-1 -1 $-1 $1188 $1063 @10 ASM ENTITY @36 8cbec362-cf9e-46fe-a70e-6ea5ca731781 #
rgb_color-st-attrib $-1 -1 $1317 $-1 $1189 0 0 0 #
plane-surface $-1 -1 $-1 -1950 85 -219.9999999999997726 0 1 0 0 0 10 forward_v I I I I #
DXID-attrib $-1 -1 $-1 $-1 $1198 @10 ASM ENTITY @36 1de1b735-25c1-4f85-8e1c-e58aa391f7f8 #
straight-curve $-1 -1 $-1 -1130.000000000000227 85 -239.9999999999998579 -10 -0 -0 I I #
DXID-attrib $-1 -1 $-1 $1199 $1078 @10 ASM ENTITY @36 bcbd285f-7f3a-4d93-bdbc-adc57816f928 #
point $-1 -1 $-1 -1170.000000000000227 -363.0000000000000568 -239.9999999999998579 #
DXID-attrib $-1 -1 $-1 $-1 $1208 @10 ASM ENTITY @36 a762f74f-5b07-421c-af4f-b98eb03b5126 #
straight-curve $-1 -1 $-1 -1130.000000000000227 -363.0000000000000568 -239.9999999999998579 10 0 0 I I #
edge $1318 -1 $-1 $1277 -4 $1214 0 $1220 $1319 forward @7 unknown #
point $-1 -1 $-1 -1930 -363.0000000000000568 -239.9999999999998295 #
edge $1320 -1 $-1 $1218 -0 $1271 4 $1221 $1321 forward @7 unknown #
point $-1 -1 $-1 -1930 85 -239.9999999999998295 #
coedge $-1 -1 $-1 $1227 $1234 $1226 $1293 reversed $1241 $-1 #
edge $1322 -1 $-1 $1230 0 $1237 4 $1292 $1323 forward @7 unknown #
coedge $-1 -1 $-1 $1234 $1227 $1243 $1303 reversed $1241 $-1 #
DXID-attrib $-1 -1 $-1 $-1 $1228 @10 ASM ENTITY @36 13b462c1-a010-4a9e-81fb-f2f628689b30 #
straight-curve $-1 -1 $-1 -1970 80 39.99999999999985789 0 10 0 I I #
point $-1 -1 $-1 -1970 85 39.99999999999985789 #
DXID-attrib $-1 -1 $-1 $1232 $1127 @10 ASM ENTITY @36 40b1da2d-5bb9-41bd-a582-30a2e66b529a #
DXID-attrib $-1 -1 $-1 $-1 $1235 @10 ASM ENTITY @36 c92a6c81-ca8f-4477-bf89-89516cf433e4 #
straight-curve $-1 -1 $-1 -1930 80 39.99999999999985079 0 -10 0 I I #
point $-1 -1 $-1 -1930 85 39.99999999999985079 #
DXID-attrib $-1 -1 $-1 $1240 $1133 @10 ASM ENTITY @36 7022f29a-a8b6-4cfe-864f-efab44f42b3f #
edge $1324 -1 $-1 $1245 -4 $1251 -0 $1294 $1325 forward @7 unknown #
point $-1 -1 $-1 -1930 -363.0000000000000568 39.99999999999985079 #
DXID-attrib $-1 -1 $-1 $1248 $1139 @10 ASM ENTITY @36 9cfc0ae7-13bf-4ac0-b745-b463dee195f4 #
point $-1 -1 $-1 -1970 -363.0000000000000568 39.99999999999985789 #
point $-1 -1 $-1 -2760 -363.0000000000000568 39.99999999999997158 #
point $-1 -1 $-1 -2760 85 39.99999999999997158 #
DXID-attrib $-1 -1 $-1 $-1 $1259 @10 ASM ENTITY @36 afa158c8-ee5e-4483-b8a3-e37ffc3e5336 #
straight-curve $-1 -1 $-1 -2760 80 39.99999999999997158 0 -10 0 I I #
DXID-attrib $-1 -1 $-1 $1260 $1160 @10 ASM ENTITY @36 ab615434-a0b4-428a-834a-9e1c554b3ebb #
DXID-attrib $-1 -1 $-1 $-1 $1269 @10 ASM ENTITY @36 07bb46f9-6520-4434-a05b-957fa2a703dd #
straight-curve $-1 -1 $-1 -1970 80 -239.9999999999998295 0 -10 0 I I #
point $-1 -1 $-1 -1970 85 -239.9999999999998295 #
DXID-attrib $-1 -1 $-1 $1274 $1183 @10 ASM ENTITY @36 f0636acb-1dfb-4929-90c3-0f758a3d39d6 #
point $-1 -1 $-1 -1970 -363.0000000000000568 -239.9999999999998295 #
DXID-attrib $-1 -1 $-1 $1280 $1189 @10 ASM ENTITY @36 db202ed9-5ddd-4d40-87a5-0c5f90ed93c0 #
DXID-attrib $-1 -1 $-1 $-1 $1288 @10 ASM ENTITY @36 588e5559-b96c-491f-8626-f8ad6fa1d572 #
straight-curve $-1 -1 $-1 -1930 -363.0000000000000568 -239.9999999999998295 10 0 0 I I #
DXID-attrib $-1 -1 $-1 $-1 $1290 @10 ASM ENTITY @36 bffb5e58-713d-4ce2-b599-873350edd5df #
straight-curve $-1 -1 $-1 -1930 85 -239.9999999999998295 -10 -0 -0 I I #
DXID-attrib $-1 -1 $-1 $-1 $1293 @10 ASM ENTITY @36 3236d882-d2e1-4c83-aca5-8fa0df78fe5a #
straight-curve $-1 -1 $-1 -1970 85 39.99999999999985789 10 0 -2.220446049250313081e-15 I I #
DXID-attrib $-1 -1 $-1 $-1 $1303 @10 ASM ENTITY @36 b2bad7d7-e45d-4b19-a75e-6ed4c7529348 #
straight-curve $-1 -1 $-1 -1970 -363.0000000000000568 39.99999999999985789 -10 0 2.220446049250313081e-15 I I #
End-of-ACIS-data 