700 0 1 0           
30 Autodesk Translation Framework 20 ASM 231.6.2.65535 NT 24 Thu Jul 23 01:36:28 2026 
1 9.999999999999999547e-07 1.000000000000000036e-10 
body $1 -1 $-1 $2 $-1 $-1 #
rgb_color-st-attrib $-1 -1 $3 $-1 $0 0.7490196078431372584 0.7490196078431372584 0.7490196078431372584 #
lump $-1 -1 $-1 $-1 $4 $0 #
DXID-attrib $-1 -1 $-1 $1 $0 @10 ASM ENTITY @94 MESA.IPT|:|9CDA75ADAF1565DA32335EB7497017BD80C06BF2|:|DA4B9237BACCCDF19C0760CAB7AEC4A8359010B0 #
shell $-1 -1 $-1 $-1 $-1 $5 $-1 $2 #
face $6 -1 $-1 $7 $8 $4 $-1 $9 forward single #
rgb_color-st-attrib $-1 -1 $10 $-1 $5 0.7450980392156862919 0.737254901960784359 0.7294117647058823151 #
face $11 -1 $-1 $12 $13 $4 $-1 $9 forward single #
loop $-1 -1 $-1 $-1 $14 $5 #
plane-surface $-1 -1 $-1 -30.00000000000000711 0 -584.9999999999998863 -1 -0 -5.921189464667516011e-16 5.921189464667516011e-15 0 -10 forward_v I I I I #
DXID-attrib $-1 -1 $-1 $6 $5 @10 ASM ENTITY @36 6268b00a-7bf7-413b-86ed-642f3aa3d989 #
rgb_color-st-attrib $-1 -1 $15 $-1 $7 0.7450980392156862919 0.737254901960784359 0.7294117647058823151 #
face $16 -1 $-1 $17 $18 $4 $-1 $19 forward single #
loop $-1 -1 $-1 $-1 $20 $7 #
coedge $-1 -1 $-1 $21 $22 $23 $24 reversed $8 $-1 #
DXID-attrib $-1 -1 $-1 $11 $7 @10 ASM ENTITY @36 78a3b2aa-0789-4cb4-8347-e00cd24c9a67 #
rgb_color-st-attrib $-1 -1 $25 $-1 $12 0.7450980392156862919 0.737254901960784359 0.7294117647058823151 #
face $26 -1 $-1 $27 $28 $4 $-1 $29 forward single #
loop $-1 -1 $-1 $-1 $30 $12 #
plane-surface $-1 -1 $-1 -8.881784197001252323e-15 0 -584.9999999999998863 0 0 1 -10 -0 -0 forward_v I I I I #
coedge $-1 -1 $-1 $31 $32 $33 $34 reversed $13 $-1 #
coedge $-1 -1 $-1 $35 $14 $36 $37 forward $8 $-1 #
coedge $-1 -1 $-1 $14 $35 $38 $39 forward $8 $-1 #
coedge $-1 -1 $-1 $40 $41 $14 $24 forward $42 $-1 #
edge $-1 -1 $-1 $43 13.875 $44 16.87499999999999289 $23 $45 forward @7 unknown #
DXID-attrib $-1 -1 $-1 $16 $12 @10 ASM ENTITY @36 8bddea9c-6aed-42cc-8742-0a3279b6d407 #
rgb_color-st-attrib $-1 -1 $46 $-1 $17 0.7450980392156862919 0.737254901960784359 0.7294117647058823151 #
face $47 -1 $-1 $48 $49 $4 $-1 $19 forward single #
loop $-1 -1 $-1 $-1 $50 $17 #
plane-surface $-1 -1 $-1 -15.00000000000000355 40 -599.9999999999998863 0 1 0 0 0 10 forward_v I I I I #
coedge $-1 -1 $-1 $51 $36 $41 $52 reversed $18 $-1 #
coedge $-1 -1 $-1 $53 $20 $54 $55 forward $13 $-1 #
coedge $-1 -1 $-1 $20 $53 $56 $57 forward $13 $-1 #
coedge $-1 -1 $-1 $58 $59 $20 $34 forward $60 $-1 #
edge $-1 -1 $-1 $61 -16.87499999999999289 $62 -13.875 $33 $63 forward @7 unknown #
coedge $-1 -1 $-1 $22 $21 $50 $64 reversed $8 $-1 #
coedge $-1 -1 $-1 $30 $65 $21 $37 reversed $18 $-1 #
edge $66 -1 $-1 $43 3 $67 4 $21 $68 forward @7 unknown #
coedge $-1 -1 $-1 $69 $70 $22 $39 reversed $71 $-1 #
edge $72 -1 $-1 $73 -4 $44 -3 $22 $74 forward @7 unknown #
coedge $-1 -1 $-1 $75 $23 $70 $76 forward $42 $-1 #
coedge $-1 -1 $-1 $23 $77 $30 $52 forward $42 $-1 #
loop $-1 -1 $-1 $-1 $23 $78 #
vertex $-1 -1 $-1 $24 $79 #
vertex $-1 -1 $-1 $24 $80 #
straight-curve $-1 -1 $-1 -30.00000000000008882 30 -446.2499999999999432 5.921189464667516011e-15 0 -10 I I #
DXID-attrib $-1 -1 $-1 $26 $17 @10 ASM ENTITY @36 6b7213bb-c9da-46d0-8b1b-8b3a63deb6d8 #
rgb_color-st-attrib $-1 -1 $81 $-1 $27 0.7450980392156862919 0.737254901960784359 0.7294117647058823151 #
face $82 -1 $-1 $83 $84 $4 $-1 $85 forward single #
loop $-1 -1 $-1 $-1 $86 $27 #
coedge $-1 -1 $-1 $87 $88 $35 $64 forward $28 $-1 #
coedge $-1 -1 $-1 $65 $30 $89 $90 reversed $18 $-1 #
edge $-1 -1 $-1 $91 -10.00000000000000355 $43 -7.000000000000002665 $41 $92 forward @7 unknown #
coedge $-1 -1 $-1 $32 $31 $93 $94 reversed $13 $-1 #
coedge $-1 -1 $-1 $95 $96 $31 $55 reversed $71 $-1 #
edge $97 -1 $-1 $61 0 $98 63.5 $31 $74 forward @7 unknown #
coedge $-1 -1 $-1 $99 $86 $32 $57 reversed $49 $-1 #
edge $100 -1 $-1 $101 -63.5 $62 0 $32 $68 forward @7 unknown #
coedge $-1 -1 $-1 $102 $33 $86 $103 forward $60 $-1 #
coedge $-1 -1 $-1 $33 $104 $95 $105 reversed $60 $-1 #
loop $-1 -1 $-1 $-1 $58 $106 #
vertex $-1 -1 $-1 $34 $107 #
vertex $-1 -1 $-1 $34 $108 #
straight-curve $-1 -1 $-1 -30.00000000000008882 0 -446.2499999999999432 -5.921189464667516011e-15 0 10 I I #
edge $109 -1 $-1 $73 -2.999999999999992895 $67 -0 $35 $110 forward @7 unknown #
coedge $-1 -1 $-1 $36 $51 $87 $111 reversed $18 $-1 #
DXID-attrib $-1 -1 $-1 $-1 $37 @10 ASM ENTITY @36 c649d5c1-27a8-4810-8965-364fe3ac1926 #
vertex $-1 -1 $-1 $37 $112 #
straight-curve $-1 -1 $-1 -30.00000000000000711 0 -584.9999999999998863 0 10 0 I I #
coedge $-1 -1 $-1 $113 $38 $88 $114 reversed $71 $-1 #
coedge $-1 -1 $-1 $38 $115 $40 $76 reversed $71 $-1 #
loop $-1 -1 $-1 $-1 $95 $116 #
DXID-attrib $-1 -1 $-1 $-1 $39 @10 ASM ENTITY @36 569bea2d-18c4-4925-b137-2879c3de283f #
vertex $-1 -1 $-1 $64 $117 #
straight-curve $-1 -1 $-1 -29.99999999999999289 0 -614.9999999999998863 0 -10 0 I I #
coedge $-1 -1 $-1 $118 $40 $119 $120 forward $42 $-1 #
edge $121 -1 $-1 $44 2.999999999999999112 $122 37.00000000000002132 $70 $123 forward @7 unknown #
coedge $-1 -1 $-1 $41 $124 $125 $126 forward $42 $-1 #
face $127 -1 $-1 $106 $42 $4 $-1 $128 forward single #
point $-1 -1 $-1 -30.00000000000000711 30 -584.9999999999998863 #
point $-1 -1 $-1 -29.99999999999999289 30 -614.9999999999998863 #
DXID-attrib $-1 -1 $-1 $47 $27 @10 ASM ENTITY @36 b72d1d38-ca18-4770-817e-3b861c2bbffb #
rgb_color-st-attrib $-1 -1 $129 $-1 $48 0.7450980392156862919 0.737254901960784359 0.7294117647058823151 #
face $130 -1 $-1 $131 $132 $4 $-1 $133 forward single #
loop $-1 -1 $-1 $-1 $93 $48 #
plane-surface $-1 -1 $-1 -15.00000000000000355 -635 -599.9999999999998863 0 -1 0 0 0 -10 forward_v I I I I #
coedge $-1 -1 $-1 $56 $134 $58 $103 reversed $49 $-1 #
coedge $-1 -1 $-1 $135 $50 $65 $111 forward $28 $-1 #
coedge $-1 -1 $-1 $50 $135 $69 $114 forward $28 $-1 #
coedge $-1 -1 $-1 $125 $136 $51 $90 forward $137 $-1 #
edge $138 -1 $-1 $139 -4 $91 -3 $89 $140 forward @7 unknown #
vertex $-1 -1 $-1 $52 $141 #
straight-curve $-1 -1 $-1 -100.0000000000000284 30 -585 -10 0 0 I I #
coedge $-1 -1 $-1 $142 $143 $53 $94 forward $84 $-1 #
edge $144 -1 $-1 $101 0 $98 2.999999999999992895 $53 $145 forward @7 unknown #
coedge $-1 -1 $-1 $146 $54 $59 $105 forward $71 $-1 #
coedge $-1 -1 $-1 $54 $113 $142 $147 reversed $71 $-1 #
DXID-attrib $-1 -1 $-1 $-1 $55 @10 ASM ENTITY @36 6031ddf9-a0a0-463c-9f91-e128ab86ef13 #
vertex $-1 -1 $-1 $55 $148 #
coedge $-1 -1 $-1 $134 $56 $143 $149 reversed $49 $-1 #
DXID-attrib $-1 -1 $-1 $-1 $57 @10 ASM ENTITY @36 60d4c1bc-9dff-4a18-9b6f-e0617ef34f21 #
vertex $-1 -1 $-1 $94 $150 #
coedge $-1 -1 $-1 $151 $58 $152 $153 reversed $60 $-1 #
edge $-1 -1 $-1 $62 7.000000000000002665 $154 10.00000000000000355 $58 $155 forward @7 unknown #
coedge $-1 -1 $-1 $59 $156 $157 $158 forward $60 $-1 #
edge $159 -1 $-1 $61 2.999999999999999112 $160 37.00000000000002132 $95 $161 forward @7 unknown #
face $162 -1 $-1 $-1 $60 $4 $-1 $163 reversed single #
point $-1 -1 $-1 -29.99999999999999289 0 -614.9999999999998863 #
point $-1 -1 $-1 -30.00000000000000711 0 -584.9999999999998863 #
DXID-attrib $-1 -1 $-1 $-1 $64 @10 ASM ENTITY @36 c548c020-ea99-4eb8-8900-fa206401940b #
straight-curve $-1 -1 $-1 -30.00000000000000711 40 -584.9999999999998863 -5.921189464667516011e-15 0 10 I I #
edge $164 -1 $-1 $67 -3 $139 0 $65 $165 forward @7 unknown #
point $-1 -1 $-1 -30.00000000000000711 40 -584.9999999999998863 #
coedge $-1 -1 $-1 $96 $69 $166 $167 forward $71 $-1 #
edge $168 -1 $-1 $169 -40.00000000000001421 $73 -37.00000000000001421 $69 $170 forward @7 unknown #
coedge $-1 -1 $-1 $70 $171 $172 $173 forward $71 $-1 #
face $174 -1 $-1 $175 $71 $4 $-1 $176 forward single #
point $-1 -1 $-1 -29.99999999999999289 40 -614.9999999999998863 #
coedge $-1 -1 $-1 $177 $75 $178 $179 forward $42 $-1 #
coedge $-1 -1 $-1 $172 $180 $75 $120 reversed $181 $-1 #
edge $-1 -1 $-1 $122 -15.375 $182 -12.375 $75 $183 forward @7 unknown #
DXID-attrib $-1 -1 $-1 $-1 $76 @10 ASM ENTITY @36 7b1385b0-fe94-4148-9965-f5af248415bd #
vertex $-1 -1 $-1 $120 $184 #
straight-curve $-1 -1 $-1 0 30 -614.9999999999998863 -10 -0 -3.552713678800499746e-15 I I #
coedge $-1 -1 $-1 $77 $185 $186 $187 forward $42 $-1 #
coedge $-1 -1 $-1 $188 $89 $77 $126 reversed $137 $-1 #
edge $189 -1 $-1 $190 2.999999999999998668 $91 58.49999999999999289 $125 $191 forward @7 unknown #
rgb_color-st-attrib $-1 -1 $192 $-1 $78 0.949019607843137214 0.949019607843137214 1 #
plane-surface $-1 -1 $-1 -200.0000000000000568 30 -307.5 0 1 0 0 0 10 forward_v I I I I #
DXID-attrib $-1 -1 $-1 $82 $48 @10 ASM ENTITY @36 ebdf52ff-e67f-48d6-8059-f30822ce9ad4 #
rgb_color-st-attrib $-1 -1 $193 $-1 $83 0.7450980392156862919 0.737254901960784359 0.7294117647058823151 #
face $194 -1 $-1 $195 $196 $4 $-1 $197 forward single #
loop $-1 -1 $-1 $-1 $198 $83 #
plane-surface $-1 -1 $-1 -30 0 -29.99999999999999645 2.960594732333751103e-16 0 -1 10 0 2.9605947323337513e-15 forward_v I I I I #
coedge $-1 -1 $-1 $86 $99 $199 $200 reversed $49 $-1 #
coedge $-1 -1 $-1 $88 $87 $136 $201 forward $28 $-1 #
coedge $-1 -1 $-1 $89 $166 $135 $201 reversed $137 $-1 #
loop $-1 -1 $-1 $-1 $125 $202 #
DXID-attrib $-1 -1 $-1 $-1 $90 @10 ASM ENTITY @36 8a9279bf-d3f2-4ad7-a4a8-ac65103c78d6 #
vertex $-1 -1 $-1 $90 $203 #
straight-curve $-1 -1 $-1 -8.881784197001252323e-15 0 -584.9999999999998863 0 -10 0 I I #
point $-1 -1 $-1 0 30 -584.9999999999998863 #
coedge $-1 -1 $-1 $204 $93 $96 $147 forward $84 $-1 #
coedge $-1 -1 $-1 $93 $204 $99 $149 forward $84 $-1 #
DXID-attrib $-1 -1 $-1 $-1 $94 @10 ASM ENTITY @36 5b6dc9ab-ce3b-43f1-9596-25736f1daf27 #
straight-curve $-1 -1 $-1 -30.00000000000000711 -635 -584.9999999999998863 5.921189464667516011e-15 0 -10 I I #
coedge $-1 -1 $-1 $205 $95 $206 $207 forward $71 $-1 #
edge $208 -1 $-1 $98 37.00000000000001421 $209 40.00000000000001421 $96 $210 forward @7 unknown #
point $-1 -1 $-1 -29.99999999999999289 -635 -614.9999999999998863 #
edge $211 -1 $-1 $212 -0 $101 3 $99 $213 forward @7 unknown #
point $-1 -1 $-1 -30.00000000000000711 -635 -584.9999999999998863 #
coedge $-1 -1 $-1 $214 $102 $198 $215 forward $60 $-1 #
coedge $-1 -1 $-1 $199 $216 $102 $153 forward $137 $-1 #
edge $217 -1 $-1 $218 2.999999999999998668 $154 58.49999999999999289 $152 $219 forward @7 unknown #
vertex $-1 -1 $-1 $103 $220 #
straight-curve $-1 -1 $-1 -100.0000000000000284 0 -585 10 0 0 I I #
coedge $-1 -1 $-1 $104 $221 $222 $223 forward $60 $-1 #
coedge $-1 -1 $-1 $224 $206 $104 $158 reversed $225 $-1 #
edge $-1 -1 $-1 $226 12.375 $160 15.375 $104 $227 forward @7 unknown #
DXID-attrib $-1 -1 $-1 $-1 $105 @10 ASM ENTITY @36 9fe46c52-6286-46c5-839a-47ebe0b6c544 #
vertex $-1 -1 $-1 $158 $228 #
straight-curve $-1 -1 $-1 0 0 -614.9999999999998863 -10 -0 -3.552713678800499746e-15 F -0 F 40.00000000000001421 #
rgb_color-st-attrib $-1 -1 $229 $-1 $106 0.7450980392156862919 0.737254901960784359 0.7294117647058823151 #
plane-surface $-1 -1 $-1 -200.0000000000000568 0 -307.5 0 1 0 0 0 10 forward_v I I I I #
DXID-attrib $-1 -1 $-1 $-1 $111 @10 ASM ENTITY @36 52c9b1d2-017c-46c3-9436-cbf9e49197d4 #
straight-curve $-1 -1 $-1 -8.881784197001252323e-15 40 -584.9999999999998863 10 0 0 I I #
coedge $-1 -1 $-1 $136 $230 $113 $167 reversed $137 $-1 #
edge $231 -1 $-1 $169 -4 $209 63.5 $113 $232 forward @7 unknown #
DXID-attrib $-1 -1 $-1 $-1 $114 @10 ASM ENTITY @36 0453eb9b-7038-4595-9901-c64f119cc55c #
vertex $-1 -1 $-1 $201 $233 #
straight-curve $-1 -1 $-1 -400.0000000000001137 40 -615 -10 -0 -3.552713678800499746e-15 I I #
coedge $-1 -1 $-1 $115 $234 $235 $236 reversed $71 $-1 #
coedge $-1 -1 $-1 $237 $119 $115 $173 reversed $181 $-1 #
edge $238 -1 $-1 $239 -4 $122 -3 $115 $240 forward @7 unknown #
rgb_color-st-attrib $-1 -1 $241 $-1 $116 0.7450980392156862919 0.737254901960784359 0.7294117647058823151 #
face $242 -1 $-1 $243 $244 $4 $-1 $245 forward single #
plane-surface $-1 -1 $-1 0 0 -614.9999999999998863 3.552713678800499647e-16 0 -1 -10 -0 -3.552713678800499746e-15 forward_v I I I I #
coedge $-1 -1 $-1 $246 $118 $247 $248 forward $42 $-1 #
coedge $-1 -1 $-1 $249 $250 $118 $179 reversed $251 $-1 #
edge $-1 -1 $-1 $182 8.500000000000007105 $252 11.5 $118 $253 forward @7 unknown #
coedge $-1 -1 $-1 $119 $237 $249 $254 forward $181 $-1 #
loop $-1 -1 $-1 $-1 $119 $255 #
vertex $-1 -1 $-1 $120 $256 #
straight-curve $-1 -1 $-1 -370.0000000000002274 30 -461.25 0 0 10 I I #
point $-1 -1 $-1 -370.0000000000002274 30 -615 #
coedge $-1 -1 $-1 $124 $257 $258 $259 forward $42 $-1 #
coedge $-1 -1 $-1 $260 $261 $124 $187 reversed $262 $-1 #
edge $-1 -1 $-1 $263 8.500000000000007105 $190 11.50000000000000711 $124 $264 forward @7 unknown #
coedge $-1 -1 $-1 $265 $125 $261 $266 reversed $137 $-1 #
DXID-attrib $-1 -1 $-1 $-1 $126 @10 ASM ENTITY @36 697b5454-df32-4e02-8c87-61d2c0868d31 #
vertex $-1 -1 $-1 $187 $267 #
straight-curve $-1 -1 $-1 0 30 0 -0 -0 -10 I I #
DXID-attrib $-1 -1 $-1 $127 $78 @10 ASM ENTITY @36 0f70ae2d-83fa-4f80-8d12-adc99d2ed520 #
DXID-attrib $-1 -1 $-1 $130 $83 @10 ASM ENTITY @36 aa8bc436-b188-4dc2-9fcc-7e2993fa56d9 #
rgb_color-st-attrib $-1 -1 $268 $-1 $131 0.7450980392156862919 0.737254901960784359 0.7294117647058823151 #
face $269 -1 $-1 $270 $271 $4 $-1 $197 forward single #
loop $-1 -1 $-1 $-1 $272 $131 #
plane-surface $-1 -1 $-1 -30.00000000000001421 0 0 -1 -0 -4.440892098500626162e-16 4.440892098500626162e-15 0 -10 forward_v I I I I #
coedge $-1 -1 $-1 $273 $274 $151 $215 reversed $132 $-1 #
coedge $-1 -1 $-1 $230 $152 $134 $200 forward $137 $-1 #
edge $275 -1 $-1 $154 0 $212 63.5 $199 $140 forward @7 unknown #
edge $276 -1 $-1 $139 -2.999999999999992895 $169 -0 $136 $277 forward @7 unknown #
face $278 -1 $-1 $116 $137 $4 $-1 $279 forward single #
point $-1 -1 $-1 -8.881784197001252323e-15 40 -584.9999999999998863 #
coedge $-1 -1 $-1 $143 $142 $230 $280 forward $84 $-1 #
coedge $-1 -1 $-1 $234 $146 $281 $282 reversed $71 $-1 #
coedge $-1 -1 $-1 $157 $283 $146 $207 reversed $225 $-1 #
edge $284 -1 $-1 $160 0 $285 63.5 $146 $240 forward @7 unknown #
DXID-attrib $-1 -1 $-1 $-1 $147 @10 ASM ENTITY @36 9f39536e-9581-4702-b19b-231a795baf39 #
vertex $-1 -1 $-1 $147 $286 #
straight-curve $-1 -1 $-1 -400.0000000000001137 -635 -615 10 0 3.552713678800499746e-15 I I #
DXID-attrib $-1 -1 $-1 $-1 $149 @10 ASM ENTITY @36 b643789b-919e-46cf-b148-adf01d78e3c3 #
vertex $-1 -1 $-1 $149 $287 #
straight-curve $-1 -1 $-1 -8.881784197001252323e-15 -635 -584.9999999999998863 -10 -0 -0 I I #
coedge $-1 -1 $-1 $288 $151 $272 $289 forward $60 $-1 #
edge $-1 -1 $-1 $218 -11.50000000000000711 $290 -8.500000000000007105 $151 $291 forward @7 unknown #
coedge $-1 -1 $-1 $152 $292 $273 $293 reversed $137 $-1 #
DXID-attrib $-1 -1 $-1 $-1 $153 @10 ASM ENTITY @36 69b6c558-b6de-49d6-8272-b7cf9b72653c #
vertex $-1 -1 $-1 $215 $294 #
straight-curve $-1 -1 $-1 0 0 0 -0 -0 -10 F -0 F 61.49999999999998579 #
point $-1 -1 $-1 0 0 -584.9999999999998863 #
coedge $-1 -1 $-1 $156 $295 $296 $297 reversed $60 $-1 #
coedge $-1 -1 $-1 $298 $299 $156 $223 reversed $300 $-1 #
edge $-1 -1 $-1 $301 -11.5 $226 -8.500000000000007105 $156 $302 forward @7 unknown #
coedge $-1 -1 $-1 $283 $157 $299 $303 forward $225 $-1 #
loop $-1 -1 $-1 $-1 $157 $304 #
vertex $-1 -1 $-1 $223 $305 #
straight-curve $-1 -1 $-1 -370.0000000000002274 0 -461.25 0 0 -10 I I #
point $-1 -1 $-1 -370.0000000000002274 0 -615 #
DXID-attrib $-1 -1 $-1 $162 $106 @10 ASM ENTITY @36 bf84f39e-ec6a-45c9-97e3-deb5ed238160 #
coedge $-1 -1 $-1 $166 $199 $204 $280 reversed $137 $-1 #
DXID-attrib $-1 -1 $-1 $-1 $167 @10 ASM ENTITY @36 5126ac3b-e025-4a86-bd7a-8487cd0a91cf #
straight-curve $-1 -1 $-1 0 0 -614.9999999999998863 0 -10 0 I I #
point $-1 -1 $-1 0 40 -614.9999999999998863 #
coedge $-1 -1 $-1 $171 $205 $306 $307 forward $71 $-1 #
coedge $-1 -1 $-1 $308 $309 $171 $236 forward $310 $-1 #
edge $311 -1 $-1 $239 -2.999999999999992895 $312 -0 $171 $313 forward @7 unknown #
coedge $-1 -1 $-1 $180 $172 $309 $314 reversed $181 $-1 #
DXID-attrib $-1 -1 $-1 $-1 $173 @10 ASM ENTITY @36 7dd98700-2efc-4380-9ce1-b65089421d54 #
vertex $-1 -1 $-1 $173 $315 #
straight-curve $-1 -1 $-1 -370.0000000000002274 0 -615 0 -10 0 I I #
DXID-attrib $-1 -1 $-1 $174 $116 @10 ASM ENTITY @36 3abc8946-d9cf-443f-8d44-b3f6c8c37644 #
rgb_color-st-attrib $-1 -1 $316 $-1 $175 0.7450980392156862919 0.737254901960784359 0.7294117647058823151 #
face $317 -1 $-1 $78 $318 $4 $-1 $319 forward single #
loop $-1 -1 $-1 $-1 $320 $175 #
plane-surface $-1 -1 $-1 -400.0000000000000568 0 -3.944304526105059027e-30 -9.860761315262645378e-33 0 1 10 0 9.860761315262645378e-32 forward_v I I I I #
coedge $-1 -1 $-1 $321 $177 $322 $323 forward $42 $-1 #
coedge $-1 -1 $-1 $324 $325 $177 $248 reversed $318 $-1 #
edge $326 -1 $-1 $252 3 $327 58.49999999999999289 $247 $328 forward @7 unknown #
coedge $-1 -1 $-1 $329 $178 $180 $254 reversed $251 $-1 #
coedge $-1 -1 $-1 $178 $329 $324 $330 reversed $251 $-1 #
loop $-1 -1 $-1 $-1 $178 $331 #
vertex $-1 -1 $-1 $179 $332 #
straight-curve $-1 -1 $-1 -285.0000000000001137 30 -585 -10 0 0 I I #
edge $333 -1 $-1 $334 -4 $182 -3 $180 $335 forward @7 unknown #
face $336 -1 $-1 $337 $181 $4 $-1 $338 forward single #
point $-1 -1 $-1 -370.0000000000002274 30 -585 #
coedge $-1 -1 $-1 $185 $321 $320 $339 forward $42 $-1 #
coedge $-1 -1 $-1 $340 $341 $185 $259 reversed $271 $-1 #
edge $-1 -1 $-1 $342 -15.37499999999999645 $263 -12.37499999999999645 $185 $343 forward @7 unknown #
coedge $-1 -1 $-1 $344 $186 $341 $345 forward $262 $-1 #
coedge $-1 -1 $-1 $186 $344 $188 $266 forward $262 $-1 #
loop $-1 -1 $-1 $-1 $186 $346 #
vertex $-1 -1 $-1 $259 $347 #
straight-curve $-1 -1 $-1 -115.0000000000000711 30 -30.00000000000001776 10 0 2.9605947323337513e-15 I I #
coedge $-1 -1 $-1 $348 $188 $349 $350 reversed $137 $-1 #
edge $351 -1 $-1 $352 -4 $190 -3 $261 $353 forward @7 unknown #
point $-1 -1 $-1 -4.440892098500626162e-15 30 -29.99999999999998579 #
DXID-attrib $-1 -1 $-1 $194 $131 @10 ASM ENTITY @36 5e2f3c7a-7ea0-4dfd-b120-555706840e2f #
rgb_color-st-attrib $-1 -1 $354 $-1 $195 0.7450980392156862919 0.737254901960784359 0.7294117647058823151 #
face $355 -1 $-1 $346 $356 $4 $-1 $357 forward single #
loop $-1 -1 $-1 $-1 $258 $195 #
coedge $-1 -1 $-1 $358 $359 $214 $289 reversed $196 $-1 #
coedge $-1 -1 $-1 $360 $198 $216 $293 forward $132 $-1 #
coedge $-1 -1 $-1 $198 $360 $358 $361 forward $132 $-1 #
DXID-attrib $-1 -1 $-1 $-1 $200 @10 ASM ENTITY @36 303dba90-ac11-4138-906f-b4c63a9c7c4d #
DXID-attrib $-1 -1 $-1 $-1 $201 @10 ASM ENTITY @36 68827b05-7e75-4a2a-92ed-6173d6ff15b9 #
straight-curve $-1 -1 $-1 0 40 -614.9999999999998863 0 0 -10 I I #
rgb_color-st-attrib $-1 -1 $362 $-1 $202 0.7450980392156862919 0.737254901960784359 0.7294117647058823151 #
plane-surface $-1 -1 $-1 0 0 0 1 0 0 -0 -0 -10 forward_v I I I I #
edge $363 -1 $-1 $209 0 $212 2.999999999999992895 $230 $364 forward @7 unknown #
coedge $-1 -1 $-1 $365 $366 $205 $282 forward $367 $-1 #
edge $368 -1 $-1 $369 0 $285 2.999999999999992895 $205 $370 forward @7 unknown #
coedge $-1 -1 $-1 $206 $224 $365 $371 reversed $225 $-1 #
DXID-attrib $-1 -1 $-1 $-1 $207 @10 ASM ENTITY @36 c42596f5-c045-404d-b812-cc9d450cd917 #
vertex $-1 -1 $-1 $371 $372 #
point $-1 -1 $-1 0 -635 -614.9999999999998863 #
point $-1 -1 $-1 -8.881784197001252323e-15 -635 -584.9999999999998863 #
coedge $-1 -1 $-1 $373 $214 $374 $375 reversed $60 $-1 #
edge $-1 -1 $-1 $290 12.37499999999999645 $376 15.37499999999999645 $214 $377 forward @7 unknown #
vertex $-1 -1 $-1 $215 $378 #
straight-curve $-1 -1 $-1 -115.0000000000000711 0 -30.00000000000001776 -10 0 -2.9605947323337513e-15 I I #
coedge $-1 -1 $-1 $216 $348 $379 $380 reversed $137 $-1 #
edge $381 -1 $-1 $218 0 $382 63.5 $273 $353 forward @7 unknown #
point $-1 -1 $-1 -4.440892098500626162e-15 0 -29.99999999999998579 #
coedge $-1 -1 $-1 $221 $373 $383 $384 forward $60 $-1 #
coedge $-1 -1 $-1 $385 $386 $221 $297 forward $318 $-1 #
edge $387 -1 $-1 $301 3 $388 58.49999999999999289 $296 $389 forward @7 unknown #
coedge $-1 -1 $-1 $390 $222 $386 $391 reversed $300 $-1 #
coedge $-1 -1 $-1 $222 $390 $224 $303 reversed $300 $-1 #
loop $-1 -1 $-1 $-1 $222 $392 #
vertex $-1 -1 $-1 $223 $393 #
straight-curve $-1 -1 $-1 -285.0000000000001137 0 -585 10 0 0 I I #
edge $394 -1 $-1 $226 0 $395 63.5 $224 $335 forward @7 unknown #
face $396 -1 $-1 $255 $225 $4 $-1 $338 forward single #
point $-1 -1 $-1 -370.0000000000002274 0 -585 #
coedge $-1 -1 $-1 $397 $398 $234 $307 reversed $318 $-1 #
edge $399 -1 $-1 $369 -63.5 $312 4 $234 $400 forward @7 unknown #
coedge $-1 -1 $-1 $401 $235 $398 $402 forward $310 $-1 #
coedge $-1 -1 $-1 $235 $401 $237 $314 forward $310 $-1 #
loop $-1 -1 $-1 $-1 $308 $337 #
DXID-attrib $-1 -1 $-1 $-1 $236 @10 ASM ENTITY @36 cf0bb0c1-f881-42ba-8978-d85101532e4b #
vertex $-1 -1 $-1 $402 $403 #
straight-curve $-1 -1 $-1 -400.0000000000001137 40 -615 -10 -0 -3.552713678800499746e-15 I I #
edge $404 -1 $-1 $334 -3 $239 -0 $237 $405 forward @7 unknown #
point $-1 -1 $-1 -370.0000000000002274 40 -615 #
DXID-attrib $-1 -1 $-1 $242 $175 @10 ASM ENTITY @36 274a0993-0fbe-4e8e-818e-857e0cd13456 #
rgb_color-st-attrib $-1 -1 $406 $-1 $243 0.7450980392156862919 0.737254901960784359 0.7294117647058823151 #
loop $-1 -1 $-1 $-1 $296 $243 #
plane-surface $-1 -1 $-1 -400.0000000000001137 0 -615 -1 0 1.155354041886341888e-16 1.155354041886341937e-15 0 10 forward_v I I I I #
coedge $-1 -1 $-1 $407 $408 $257 $339 reversed $244 $-1 #
coedge $-1 -1 $-1 $257 $246 $409 $410 forward $42 $-1 #
coedge $-1 -1 $-1 $411 $412 $246 $323 reversed $413 $-1 #
edge $-1 -1 $-1 $327 -10 $414 -7 $246 $415 forward @7 unknown #
coedge $-1 -1 $-1 $398 $247 $250 $330 forward $318 $-1 #
coedge $-1 -1 $-1 $247 $416 $411 $417 forward $318 $-1 #
DXID-attrib $-1 -1 $-1 $-1 $248 @10 ASM ENTITY @36 6b303dc0-f0a5-456c-bae6-fc73f6e42ad3 #
vertex $-1 -1 $-1 $323 $418 #
straight-curve $-1 -1 $-1 -400.0000000000001137 30 -615 1.155354041886341937e-15 0 10 I I #
coedge $-1 -1 $-1 $250 $249 $401 $419 reversed $251 $-1 #
edge $420 -1 $-1 $252 3 $421 4 $324 $422 forward @7 unknown #
face $423 -1 $-1 $424 $251 $4 $-1 $425 forward single #
point $-1 -1 $-1 -400.0000000000001137 30 -585 #
DXID-attrib $-1 -1 $-1 $-1 $254 @10 ASM ENTITY @36 a81a616c-2233-4099-8003-ea4e6783f488 #
vertex $-1 -1 $-1 $314 $426 #
straight-curve $-1 -1 $-1 -370.0000000000002274 0 -585 0 -10 0 I I #
rgb_color-st-attrib $-1 -1 $427 $-1 $255 0.7450980392156862919 0.737254901960784359 0.7294117647058823151 #
face $428 -1 $-1 $331 $310 $4 $-1 $429 forward single #
plane-surface $-1 -1 $-1 -370.0000000000002274 0 -615 1 0 0 0 0 10 forward_v I I I I #
edge $430 -1 $-1 $431 3 $342 37.00000000000000711 $320 $432 forward @7 unknown #
coedge $-1 -1 $-1 $433 $258 $408 $434 reversed $271 $-1 #
coedge $-1 -1 $-1 $258 $433 $260 $345 reversed $271 $-1 #
vertex $-1 -1 $-1 $259 $435 #
straight-curve $-1 -1 $-1 -29.99999999999992895 30 -153.7499999999999716 4.440892098500626162e-15 0 -10 I I #
coedge $-1 -1 $-1 $261 $260 $436 $437 reversed $262 $-1 #
edge $438 -1 $-1 $263 3 $439 4 $260 $440 forward @7 unknown #
face $441 -1 $-1 $442 $262 $4 $-1 $133 forward single #
point $-1 -1 $-1 -30 30 -29.99999999999999645 #
coedge $-1 -1 $-1 $292 $265 $443 $444 reversed $137 $-1 #
coedge $-1 -1 $-1 $436 $445 $265 $350 forward $356 $-1 #
edge $446 -1 $-1 $447 -61.49999999999998579 $352 -58.49999999999998579 $265 $448 forward @7 unknown #
DXID-attrib $-1 -1 $-1 $-1 $266 @10 ASM ENTITY @36 c0ffc14a-8ff3-4559-8394-7523ad2eef1f #
vertex $-1 -1 $-1 $437 $449 #
straight-curve $-1 -1 $-1 -4.440892098500626162e-15 0 -29.99999999999998579 0 -10 0 I I #
DXID-attrib $-1 -1 $-1 $269 $195 @10 ASM ENTITY @36 2d6ac31f-295d-45bf-a51f-763c89f6256d #
rgb_color-st-attrib $-1 -1 $450 $-1 $270 0.7450980392156862919 0.737254901960784359 0.7294117647058823151 #
loop $-1 -1 $-1 $-1 $436 $270 #
plane-surface $-1 -1 $-1 -15.00000000000000711 40 -15 0 1 0 0 0 10 forward_v I I I I #
coedge $-1 -1 $-1 $451 $272 $274 $361 reversed $196 $-1 #
coedge $-1 -1 $-1 $272 $451 $452 $453 reversed $196 $-1 #
coedge $-1 -1 $-1 $274 $273 $454 $455 reversed $132 $-1 #
edge $456 -1 $-1 $457 -63.5 $290 0 $274 $440 forward @7 unknown #
DXID-attrib $-1 -1 $-1 $278 $202 @10 ASM ENTITY @36 93d8239a-5738-4234-acb7-09c67ef4c496 #
DXID-attrib $-1 -1 $-1 $-1 $280 @10 ASM ENTITY @36 55163f6e-0005-436b-8473-499270f83bdb #
straight-curve $-1 -1 $-1 0 -635 -614.9999999999998863 0 0 10 I I #
coedge $-1 -1 $-1 $458 $281 $283 $371 forward $367 $-1 #
coedge $-1 -1 $-1 $281 $458 $397 $459 forward $367 $-1 #
loop $-1 -1 $-1 $-1 $366 $424 #
DXID-attrib $-1 -1 $-1 $-1 $282 @10 ASM ENTITY @36 153aec8c-f1c5-457e-8acd-c2bf7b8dd26f #
vertex $-1 -1 $-1 $459 $460 #
straight-curve $-1 -1 $-1 -400.0000000000001137 -635 -615 10 0 3.552713678800499746e-15 I I #
edge $461 -1 $-1 $285 0 $395 3 $283 $462 forward @7 unknown #
point $-1 -1 $-1 -370.0000000000002274 -635 -615 #
coedge $-1 -1 $-1 $295 $288 $463 $464 forward $60 $-1 #
coedge $-1 -1 $-1 $452 $465 $288 $375 forward $244 $-1 #
edge $466 -1 $-1 $467 3 $376 37.00000000000000711 $374 $468 forward @7 unknown #
vertex $-1 -1 $-1 $289 $469 #
straight-curve $-1 -1 $-1 -29.99999999999992895 0 -153.7499999999999716 -4.440892098500626162e-15 0 10 I I #
point $-1 -1 $-1 -30 0 -29.99999999999999645 #
coedge $-1 -1 $-1 $470 $454 $292 $380 forward $471 $-1 #
edge $472 -1 $-1 $382 58.49999999999998579 $473 61.49999999999998579 $292 $474 forward @7 unknown #
DXID-attrib $-1 -1 $-1 $-1 $293 @10 ASM ENTITY @36 55551770-267a-496f-8701-60bc37825578 #
vertex $-1 -1 $-1 $293 $475 #
coedge $-1 -1 $-1 $476 $477 $295 $384 reversed $478 $-1 #
edge $-1 -1 $-1 $479 7 $388 10 $295 $480 forward @7 unknown #
coedge $-1 -1 $-1 $481 $296 $477 $482 forward $318 $-1 #
coedge $-1 -1 $-1 $296 $397 $298 $391 forward $318 $-1 #
DXID-attrib $-1 -1 $-1 $-1 $297 @10 ASM ENTITY @36 68f194d1-9282-4877-ac79-f7ad6e4b8daa #
vertex $-1 -1 $-1 $384 $483 #
straight-curve $-1 -1 $-1 -400.0000000000001137 0 -615 1.155354041886341937e-15 0 10 F 0 F 61.5 #
coedge $-1 -1 $-1 $299 $298 $458 $484 reversed $300 $-1 #
edge $485 -1 $-1 $486 -63.5 $301 0 $386 $422 forward @7 unknown #
face $487 -1 $-1 $304 $300 $4 $-1 $425 forward single #
point $-1 -1 $-1 -400.0000000000001137 0 -585 #
DXID-attrib $-1 -1 $-1 $-1 $303 @10 ASM ENTITY @36 4ff29b8f-eaf8-457e-bc9c-1f4d302ebc53 #
vertex $-1 -1 $-1 $484 $488 #
rgb_color-st-attrib $-1 -1 $489 $-1 $304 0.7450980392156862919 0.737254901960784359 0.7294117647058823151 #
coedge $-1 -1 $-1 $386 $306 $366 $459 reversed $318 $-1 #
coedge $-1 -1 $-1 $306 $324 $308 $402 reversed $318 $-1 #
DXID-attrib $-1 -1 $-1 $-1 $307 @10 ASM ENTITY @36 5135ed80-6db0-4c9e-83e4-0536b5e52451 #
straight-curve $-1 -1 $-1 -400.0000000000001137 0 -615 0 10 0 I I #
coedge $-1 -1 $-1 $309 $308 $329 $419 forward $310 $-1 #
edge $490 -1 $-1 $312 -61.5 $421 -58.5 $398 $491 forward @7 unknown #
point $-1 -1 $-1 -400.0000000000001137 40 -615 #
DXID-attrib $-1 -1 $-1 $-1 $314 @10 ASM ENTITY @36 d1078049-d592-44e7-a629-1b605a4acf34 #
straight-curve $-1 -1 $-1 -370.0000000000002274 40 -615 -0 -0 -10 I I #
DXID-attrib $-1 -1 $-1 $317 $243 @10 ASM ENTITY @36 f1f9e477-f62e-4f36-ab45-df065865ddba #
coedge $-1 -1 $-1 $492 $320 $493 $494 forward $244 $-1 #
coedge $-1 -1 $-1 $320 $495 $340 $434 forward $244 $-1 #
coedge $-1 -1 $-1 $496 $493 $321 $410 reversed $497 $-1 #
edge $-1 -1 $-1 $414 13.87499999999999645 $431 16.87500000000000355 $321 $498 forward @7 unknown #
coedge $-1 -1 $-1 $499 $322 $325 $417 reversed $413 $-1 #
coedge $-1 -1 $-1 $322 $499 $496 $500 forward $413 $-1 #
loop $-1 -1 $-1 $-1 $322 $501 #
vertex $-1 -1 $-1 $323 $502 #
straight-curve $-1 -1 $-1 -300.0000000000000568 30 -30.00000000000007105 10 0 0 I I #
coedge $-1 -1 $-1 $325 $503 $504 $505 reversed $318 $-1 #
edge $506 -1 $-1 $507 -4 $327 -3 $325 $508 forward @7 unknown #
point $-1 -1 $-1 -400.0000000000000568 30 -30.00000000000007105 #
edge $509 -1 $-1 $421 -3 $334 -0 $329 $510 forward @7 unknown #
DXID-attrib $-1 -1 $-1 $-1 $330 @10 ASM ENTITY @36 369566da-7f62-40fe-8496-eb73e3ad6f49 #
vertex $-1 -1 $-1 $402 $511 #
straight-curve $-1 -1 $-1 -400.0000000000002274 0 -585 0 10 0 I I #
rgb_color-st-attrib $-1 -1 $512 $-1 $331 0.7450980392156862919 0.737254901960784359 0.7294117647058823151 #
face $513 -1 $-1 $514 $367 $4 $-1 $515 forward single #
plane-surface $-1 -1 $-1 -370.0000000000002274 0 -585 0 0 1 -10 0 0 forward_v I I I I #
point $-1 -1 $-1 -370.0000000000002274 40 -585 #
DXID-attrib $-1 -1 $-1 $336 $255 @10 ASM ENTITY @36 52288d27-1fdd-44e2-abae-5b45990c4df7 #
rgb_color-st-attrib $-1 -1 $516 $-1 $337 0.7450980392156862919 0.737254901960784359 0.7294117647058823151 #
plane-surface $-1 -1 $-1 -385.0000000000002274 40 -600 0 1 0 0 0 10 forward_v I I I I #
DXID-attrib $-1 -1 $-1 $-1 $339 @10 ASM ENTITY @36 8137c9d9-586b-4adf-b61e-a288b1b3b3de #
vertex $-1 -1 $-1 $410 $517 #
straight-curve $-1 -1 $-1 -400.0000000000000568 30 -3.944304526105059027e-30 10 0 9.860761315262645378e-32 I I #
coedge $-1 -1 $-1 $341 $340 $518 $519 reversed $271 $-1 #
edge $520 -1 $-1 $521 -4 $342 -3 $408 $522 forward @7 unknown #
point $-1 -1 $-1 -30 30 -2.958228394578796898e-31 #
coedge $-1 -1 $-1 $518 $349 $344 $437 forward $356 $-1 #
edge $523 -1 $-1 $352 -2.999999999999999556 $439 -0 $344 $524 forward @7 unknown #
DXID-attrib $-1 -1 $-1 $-1 $345 @10 ASM ENTITY @36 04df1b22-7456-4bbf-b55a-679f4cc7c9b9 #
vertex $-1 -1 $-1 $519 $525 #
straight-curve $-1 -1 $-1 -30 0 -29.99999999999999645 0 10 0 I I #
rgb_color-st-attrib $-1 -1 $526 $-1 $346 0.7450980392156862919 0.737254901960784359 0.7294117647058823151 #
face $527 -1 $-1 $392 $471 $4 $-1 $528 forward single #
coedge $-1 -1 $-1 $495 $529 $348 $444 forward $244 $-1 #
edge $530 -1 $-1 $473 -63.5 $447 4 $443 $531 forward @7 unknown #
coedge $-1 -1 $-1 $349 $518 $495 $532 forward $356 $-1 #
DXID-attrib $-1 -1 $-1 $-1 $350 @10 ASM ENTITY @36 06576514-4f86-4324-a864-24c6c08619d0 #
vertex $-1 -1 $-1 $532 $533 #
straight-curve $-1 -1 $-1 0 40 -614.9999999999998863 0 0 -10 I I #
point $-1 -1 $-1 -4.440892098500626162e-15 40 -29.99999999999998579 #
DXID-attrib $-1 -1 $-1 $355 $270 @10 ASM ENTITY @36 562b97c7-76be-4f69-8179-be26bc3e45d4 #
coedge $-1 -1 $-1 $359 $358 $534 $535 reversed $196 $-1 #
coedge $-1 -1 $-1 $529 $374 $359 $453 forward $244 $-1 #
edge $536 -1 $-1 $376 0 $537 63.5 $452 $522 forward @7 unknown #
coedge $-1 -1 $-1 $379 $534 $360 $455 forward $471 $-1 #
edge $538 -1 $-1 $457 0 $382 2.999999999999999556 $360 $539 forward @7 unknown #
DXID-attrib $-1 -1 $-1 $-1 $361 @10 ASM ENTITY @36 e66c0845-3212-4bb5-a55f-e624db7803bf #
vertex $-1 -1 $-1 $455 $540 #
coedge $-1 -1 $-1 $366 $365 $390 $484 forward $367 $-1 #
edge $541 -1 $-1 $486 58.5 $369 61.5 $397 $542 forward @7 unknown #
point $-1 -1 $-1 -400.0000000000001137 -635 -615 #
DXID-attrib $-1 -1 $-1 $-1 $371 @10 ASM ENTITY @36 58fcc181-5751-4941-96f4-f7498c8d5d79 #
straight-curve $-1 -1 $-1 -370.0000000000002274 -635 -615 0 0 10 I I #
coedge $-1 -1 $-1 $543 $544 $373 $464 reversed $545 $-1 #
edge $-1 -1 $-1 $467 -16.87500000000000355 $479 -13.87499999999999645 $373 $546 forward @7 unknown #
coedge $-1 -1 $-1 $374 $547 $543 $548 forward $244 $-1 #
DXID-attrib $-1 -1 $-1 $-1 $375 @10 ASM ENTITY @36 3897ca84-2aa9-4b11-85b7-58dd768c0f57 #
vertex $-1 -1 $-1 $464 $549 #
straight-curve $-1 -1 $-1 -400.0000000000000568 0 -3.944304526105059027e-30 10 0 9.860761315262645378e-32 F 0 F 40.00000000000000711 #
point $-1 -1 $-1 -30 0 -2.958228394578796898e-31 #
coedge $-1 -1 $-1 $534 $379 $529 $550 forward $471 $-1 #
loop $-1 -1 $-1 $-1 $454 $442 #
DXID-attrib $-1 -1 $-1 $-1 $380 @10 ASM ENTITY @36 6c303273-70e1-44e3-94f0-d039d41b3d1e #
vertex $-1 -1 $-1 $380 $551 #
straight-curve $-1 -1 $-1 0 -635 -614.9999999999998863 0 0 10 I I #
point $-1 -1 $-1 -4.440892098500626162e-15 -635 -29.99999999999998579 #
coedge $-1 -1 $-1 $552 $383 $544 $553 forward $478 $-1 #
coedge $-1 -1 $-1 $383 $552 $385 $482 reversed $478 $-1 #
loop $-1 -1 $-1 $-1 $383 $554 #
vertex $-1 -1 $-1 $464 $555 #
straight-curve $-1 -1 $-1 -300.0000000000000568 0 -30.00000000000007105 -10 0 0 I I #
coedge $-1 -1 $-1 $503 $385 $556 $557 reversed $318 $-1 #
edge $558 -1 $-1 $388 0 $559 63.5 $385 $508 forward @7 unknown #
point $-1 -1 $-1 -400.0000000000000568 0 -30.00000000000007105 #
edge $560 -1 $-1 $395 0 $486 3 $390 $561 forward @7 unknown #
DXID-attrib $-1 -1 $-1 $-1 $391 @10 ASM ENTITY @36 a97dd27b-3981-494d-9d76-853ac7504a2b #
vertex $-1 -1 $-1 $391 $562 #
rgb_color-st-attrib $-1 -1 $563 $-1 $392 0.7450980392156862919 0.737254901960784359 0.7294117647058823151 #
point $-1 -1 $-1 -370.0000000000002274 -635 -585 #
DXID-attrib $-1 -1 $-1 $396 $304 @10 ASM ENTITY @36 861dded2-c458-4c7c-a7f2-51e490831567 #
DXID-attrib $-1 -1 $-1 $-1 $402 @10 ASM ENTITY @36 08c75c85-f6e1-4b20-a1f0-78e91e862f8b #
straight-curve $-1 -1 $-1 -400.0000000000000568 40 0 1.155354041886341937e-15 0 10 I I #
coedge $-1 -1 $-1 $564 $407 $565 $566 reversed $244 $-1 #
coedge $-1 -1 $-1 $409 $567 $407 $494 reversed $497 $-1 #
edge $568 -1 $-1 $431 3 $569 4 $407 $570 forward @7 unknown #
coedge $-1 -1 $-1 $408 $443 $445 $532 reversed $244 $-1 #
coedge $-1 -1 $-1 $567 $409 $412 $500 reversed $497 $-1 #
loop $-1 -1 $-1 $-1 $409 $571 #
straight-curve $-1 -1 $-1 -370.0000000000000568 30 -168.7500000000000284 0 0 10 I I #
coedge $-1 -1 $-1 $412 $411 $572 $573 reversed $413 $-1 #
edge $574 -1 $-1 $575 -4 $414 -3 $412 $576 forward @7 unknown #
face $577 -1 $-1 $578 $413 $4 $-1 $579 forward single #
point $-1 -1 $-1 -370.0000000000000568 30 -30.00000000000007816 #
coedge $-1 -1 $-1 $416 $481 $564 $580 forward $318 $-1 #
coedge $-1 -1 $-1 $565 $572 $416 $505 forward $581 $-1 #
edge $582 -1 $-1 $507 -3.000000000000007994 $583 0 $416 $584 forward @7 unknown #
DXID-attrib $-1 -1 $-1 $-1 $417 @10 ASM ENTITY @36 e32306e8-c6cc-488a-b913-85b0d5fa1836 #
vertex $-1 -1 $-1 $417 $585 #
straight-curve $-1 -1 $-1 -400.0000000000000568 0 -30.00000000000007816 0 -10 0 I I #
DXID-attrib $-1 -1 $-1 $-1 $419 @10 ASM ENTITY @36 d8985574-3eac-4d31-8399-fe3e2f26f83e #
straight-curve $-1 -1 $-1 -370.0000000000002274 40 -585 10 0 0 I I #
point $-1 -1 $-1 -400.0000000000002274 40 -585 #
DXID-attrib $-1 -1 $-1 $423 $331 @10 ASM ENTITY @36 ee3dae41-f1eb-4d1a-a62f-b7dc87f49e46 #
rgb_color-st-attrib $-1 -1 $586 $-1 $424 0.7450980392156862919 0.737254901960784359 0.7294117647058823151 #
face $587 -1 $-1 $554 $545 $4 $-1 $588 forward single #
plane-surface $-1 -1 $-1 -385.0000000000002274 -635 -600 0 -1 0 0 0 -10 forward_v I I I I #
DXID-attrib $-1 -1 $-1 $428 $337 @10 ASM ENTITY @36 37dc8a49-d728-4ae9-b322-d5373c585148 #
point $-1 -1 $-1 -370.0000000000000568 30 -3.6484816866471796e-30 #
coedge $-1 -1 $-1 $445 $436 $433 $519 forward $356 $-1 #
edge $589 -1 $-1 $439 -2.999999999999999556 $521 -0 $433 $590 forward @7 unknown #
DXID-attrib $-1 -1 $-1 $-1 $434 @10 ASM ENTITY @36 3079c5c7-2213-4152-98f5-c6ce4e80f60f #
vertex $-1 -1 $-1 $434 $591 #
straight-curve $-1 -1 $-1 -30.00000000000001421 0 0 0 -10 0 I I #
DXID-attrib $-1 -1 $-1 $-1 $437 @10 ASM ENTITY @36 1d0a2779-2dc7-4976-95f0-41a2f9ad9516 #
straight-curve $-1 -1 $-1 -30 40 -29.99999999999999645 -10 -0 -2.9605947323337513e-15 I I #
point $-1 -1 $-1 -30 40 -29.99999999999999645 #
DXID-attrib $-1 -1 $-1 $441 $346 @10 ASM ENTITY @36 c0bffa06-b019-4e1a-9131-7374ee552d9c #
rgb_color-st-attrib $-1 -1 $592 $-1 $442 0.7450980392156862919 0.737254901960784359 0.7294117647058823151 #
plane-surface $-1 -1 $-1 -15.00000000000000711 -635 -15 0 -1 0 0 0 -10 forward_v I I I I #
coedge $-1 -1 $-1 $443 $452 $470 $550 reversed $244 $-1 #
DXID-attrib $-1 -1 $-1 $-1 $444 @10 ASM ENTITY @36 eb7d3737-300d-4c01-9e8d-d324866642c7 #
straight-curve $-1 -1 $-1 0 0 0 0 10 0 I I #
edge $593 -1 $-1 $521 -3.000000000000001332 $447 -0 $495 $594 forward @7 unknown #
point $-1 -1 $-1 0 40 0 #
coedge $-1 -1 $-1 $454 $470 $451 $535 forward $471 $-1 #
edge $595 -1 $-1 $537 0 $457 2.999999999999999556 $451 $596 forward @7 unknown #
DXID-attrib $-1 -1 $-1 $-1 $453 @10 ASM ENTITY @36 c301c67e-2ece-4779-920d-affa9a9e9d59 #
vertex $-1 -1 $-1 $535 $597 #
DXID-attrib $-1 -1 $-1 $-1 $455 @10 ASM ENTITY @36 54c48e9c-ba28-4b04-9c9c-f72145cbee37 #
straight-curve $-1 -1 $-1 -30 -635 -29.99999999999999645 10 0 2.9605947323337513e-15 I I #
point $-1 -1 $-1 -30 -635 -29.99999999999999645 #
DXID-attrib $-1 -1 $-1 $-1 $459 @10 ASM ENTITY @36 95f8f6b6-140f-46ba-8be7-f4b2aae39f31 #
straight-curve $-1 -1 $-1 -400.0000000000000568 -635 0 -1.155354041886341937e-15 -0 -10 I I #
coedge $-1 -1 $-1 $598 $463 $465 $548 reversed $545 $-1 #
coedge $-1 -1 $-1 $463 $598 $476 $553 reversed $545 $-1 #
loop $-1 -1 $-1 $-1 $463 $514 #
straight-curve $-1 -1 $-1 -370.0000000000000568 0 -168.7500000000000284 0 0 -10 I I #
coedge $-1 -1 $-1 $465 $564 $599 $600 reversed $244 $-1 #
edge $601 -1 $-1 $602 -63.5 $467 0 $465 $570 forward @7 unknown #
point $-1 -1 $-1 -370.0000000000000568 0 -3.6484816866471796e-30 #
edge $603 -1 $-1 $473 0 $537 3.000000000000001332 $529 $604 forward @7 unknown #
point $-1 -1 $-1 0 -635 0 #
coedge $-1 -1 $-1 $477 $476 $605 $606 reversed $478 $-1 #
edge $607 -1 $-1 $479 0 $608 63.5 $476 $576 forward @7 unknown #
face $609 -1 $-1 $501 $478 $4 $-1 $579 forward single #
point $-1 -1 $-1 -370.0000000000000568 0 -30.00000000000007816 #
coedge $-1 -1 $-1 $605 $599 $481 $557 forward $610 $-1 #
edge $611 -1 $-1 $612 -0 $559 3.000000000000007994 $481 $613 forward @7 unknown #
DXID-attrib $-1 -1 $-1 $-1 $482 @10 ASM ENTITY @36 22ac6f28-24f0-45d2-8afb-dd9538fa2866 #
vertex $-1 -1 $-1 $606 $614 #
DXID-attrib $-1 -1 $-1 $-1 $484 @10 ASM ENTITY @36 7e3cd5a5-a303-431b-b2a3-2a2d9e01b1a9 #
straight-curve $-1 -1 $-1 -370.0000000000002274 -635 -585 -10 0 0 I I #
point $-1 -1 $-1 -400.0000000000002274 -635 -585 #
DXID-attrib $-1 -1 $-1 $487 $392 @10 ASM ENTITY @36 e73591a9-dafe-4ef7-91f8-2160b8bfa757 #
coedge $-1 -1 $-1 $547 $492 $503 $580 reversed $244 $-1 #
coedge $-1 -1 $-1 $615 $504 $492 $566 forward $581 $-1 #
edge $616 -1 $-1 $583 -3 $569 0 $492 $617 forward @7 unknown #
coedge $-1 -1 $-1 $493 $496 $615 $618 reversed $497 $-1 #
DXID-attrib $-1 -1 $-1 $-1 $494 @10 ASM ENTITY @36 71861ed0-b59f-4193-9c44-1680f03fdd6b #
vertex $-1 -1 $-1 $566 $619 #
straight-curve $-1 -1 $-1 -370.0000000000000568 0 0 0 10 0 I I #
face $620 -1 $-1 $621 $497 $4 $-1 $588 forward single #
coedge $-1 -1 $-1 $504 $615 $499 $573 forward $581 $-1 #
edge $622 -1 $-1 $575 -3 $507 -0 $499 $623 forward @7 unknown #
DXID-attrib $-1 -1 $-1 $-1 $500 @10 ASM ENTITY @36 fb650d70-6352-40bf-8058-6cab31183db5 #
vertex $-1 -1 $-1 $573 $624 #
straight-curve $-1 -1 $-1 -370.0000000000000568 0 -30.00000000000007816 0 -10 0 I I #
rgb_color-st-attrib $-1 -1 $625 $-1 $501 0.7450980392156862919 0.737254901960784359 0.7294117647058823151 #
face $626 -1 $-1 $571 $581 $4 $-1 $627 forward single #
plane-surface $-1 -1 $-1 -400.0000000000000568 0 -30.00000000000007816 -0 -0 -1 10 0 0 forward_v I I I I #
edge $628 -1 $-1 $612 -63.5 $583 4 $503 $629 forward @7 unknown #
loop $-1 -1 $-1 $-1 $565 $578 #
DXID-attrib $-1 -1 $-1 $-1 $505 @10 ASM ENTITY @36 ac4915a7-967f-4bf9-a4c9-3fcbaccd7ad1 #
vertex $-1 -1 $-1 $566 $630 #
straight-curve $-1 -1 $-1 -400.0000000000000568 40 0 1.155354041886341937e-15 0 10 I I #
point $-1 -1 $-1 -400.0000000000000568 40 -30.00000000000007816 #
DXID-attrib $-1 -1 $-1 $513 $424 @10 ASM ENTITY @36 77be5ba2-e0e9-45fc-9585-4619298c3523 #
rgb_color-st-attrib $-1 -1 $631 $-1 $514 0.7450980392156862919 0.737254901960784359 0.7294117647058823151 #
plane-surface $-1 -1 $-1 -370.0000000000000568 0 -30.00000000000007816 1 0 0 0 0 10 forward_v I I I I #
DXID-attrib $-1 -1 $-1 $-1 $519 @10 ASM ENTITY @36 966e7860-53c4-424e-a7ed-89f74e33ddbf #
straight-curve $-1 -1 $-1 -30.00000000000001421 40 0 -4.440892098500626162e-15 0 10 I I #
point $-1 -1 $-1 -30.00000000000001421 40 0 #
DXID-attrib $-1 -1 $-1 $527 $442 @10 ASM ENTITY @36 2cfc4c2d-9c9a-4116-8413-b71f10df7bc3 #
DXID-attrib $-1 -1 $-1 $-1 $532 @10 ASM ENTITY @36 c31d6b53-cb11-4595-af5d-9d525888e05a #
straight-curve $-1 -1 $-1 0 40 0 10 0 0 I I #
DXID-attrib $-1 -1 $-1 $-1 $535 @10 ASM ENTITY @36 1a23cbe5-058f-429f-8bb1-2fc557d3128f #
straight-curve $-1 -1 $-1 -30.00000000000001421 -635 0 4.440892098500626162e-15 0 -10 I I #
point $-1 -1 $-1 -30.00000000000001421 -635 0 #
coedge $-1 -1 $-1 $544 $543 $632 $633 reversed $545 $-1 #
coedge $-1 -1 $-1 $556 $632 $547 $600 forward $610 $-1 #
edge $634 -1 $-1 $602 -0 $612 3 $547 $635 forward @7 unknown #
DXID-attrib $-1 -1 $-1 $-1 $548 @10 ASM ENTITY @36 354c6eb3-b7fa-4b91-850a-1a0980dd309c #
vertex $-1 -1 $-1 $548 $636 #
DXID-attrib $-1 -1 $-1 $-1 $550 @10 ASM ENTITY @36 f03ce1e7-e21b-41d4-ba18-45696fa9e8a4 #
straight-curve $-1 -1 $-1 0 -635 0 -10 0 0 I I #
coedge $-1 -1 $-1 $632 $556 $552 $606 forward $610 $-1 #
edge $637 -1 $-1 $559 0 $608 3 $552 $638 forward @7 unknown #
DXID-attrib $-1 -1 $-1 $-1 $553 @10 ASM ENTITY @36 ac91df23-d70e-47c0-a727-d0a7e407063e #
vertex $-1 -1 $-1 $633 $639 #
rgb_color-st-attrib $-1 -1 $640 $-1 $554 0.7450980392156862919 0.737254901960784359 0.7294117647058823151 #
loop $-1 -1 $-1 $-1 $599 $621 #
DXID-attrib $-1 -1 $-1 $-1 $557 @10 ASM ENTITY @36 06259b19-0dfb-4c88-b2bf-d2d3bd8d078d #
vertex $-1 -1 $-1 $600 $641 #
straight-curve $-1 -1 $-1 -400.0000000000000568 -635 0 -1.155354041886341937e-15 -0 -10 I I #
point $-1 -1 $-1 -400.0000000000000568 -635 -30.00000000000007816 #
coedge $-1 -1 $-1 $572 $565 $567 $618 forward $581 $-1 #
DXID-attrib $-1 -1 $-1 $-1 $566 @10 ASM ENTITY @36 7ac9e4a0-571c-416f-8b24-a3f846800aac #
straight-curve $-1 -1 $-1 -370.0000000000000568 40 0 10 0 0 I I #
edge $642 -1 $-1 $569 -3.000000000000007994 $575 -0 $567 $643 forward @7 unknown #
point $-1 -1 $-1 -370.0000000000000568 40 0 #
rgb_color-st-attrib $-1 -1 $644 $-1 $571 0.7450980392156862919 0.737254901960784359 0.7294117647058823151 #
face $645 -1 $-1 $202 $610 $4 $-1 $646 forward single #
DXID-attrib $-1 -1 $-1 $-1 $573 @10 ASM ENTITY @36 1e846d09-1bc1-438c-855a-b7a6583fbc3f #
straight-curve $-1 -1 $-1 -400.0000000000000568 40 -30.00000000000007816 -10 0 0 I I #
point $-1 -1 $-1 -370.0000000000000568 40 -30.00000000000007816 #
DXID-attrib $-1 -1 $-1 $577 $501 @10 ASM ENTITY @36 70410099-3cc6-42a0-9207-ef263ffd9631 #
rgb_color-st-attrib $-1 -1 $647 $-1 $578 0.7450980392156862919 0.737254901960784359 0.7294117647058823151 #
plane-surface $-1 -1 $-1 -385.0000000000000568 40 -15.00000000000003908 0 1 0 0 0 10 forward_v I I I I #
DXID-attrib $-1 -1 $-1 $-1 $580 @10 ASM ENTITY @36 9e99aae3-5750-465e-924e-bd11678c5d28 #
straight-curve $-1 -1 $-1 -400.0000000000000568 0 -3.944304526105059027e-30 0 10 0 I I #
point $-1 -1 $-1 -400.0000000000000568 40 0 #
DXID-attrib $-1 -1 $-1 $587 $514 @10 ASM ENTITY @36 107ebea8-7280-4e92-b4d0-67f8c70323e2 #
coedge $-1 -1 $-1 $599 $605 $598 $633 forward $610 $-1 #
edge $648 -1 $-1 $608 0 $602 3.000000000000007994 $598 $649 forward @7 unknown #
DXID-attrib $-1 -1 $-1 $-1 $600 @10 ASM ENTITY @36 7b296952-58a8-4df3-a062-597309781678 #
straight-curve $-1 -1 $-1 -370.0000000000000568 -635 0 -10 -0 -0 I I #
point $-1 -1 $-1 -370.0000000000000568 -635 0 #
DXID-attrib $-1 -1 $-1 $-1 $606 @10 ASM ENTITY @36 6497fb71-6d48-41df-9ce0-0fca8136586b #
straight-curve $-1 -1 $-1 -400.0000000000000568 -635 -30.00000000000007816 10 0 0 I I #
point $-1 -1 $-1 -370.0000000000000568 -635 -30.00000000000007816 #
DXID-attrib $-1 -1 $-1 $609 $554 @10 ASM ENTITY @36 cd7efe93-18d9-4053-ac85-bfb4dc1d33e4 #
point $-1 -1 $-1 -400.0000000000000568 -635 0 #
DXID-attrib $-1 -1 $-1 $-1 $618 @10 ASM ENTITY @36 bfc717df-ef7d-4625-aaad-c97dd3f53a4f #
straight-curve $-1 -1 $-1 -370.0000000000000568 40 -30.00000000000007816 0 0 -10 I I #
DXID-attrib $-1 -1 $-1 $620 $571 @10 ASM ENTITY @36 78b85d03-6e8e-4404-98e4-e2d8b5f26ad8 #
rgb_color-st-attrib $-1 -1 $650 $-1 $621 0.7450980392156862919 0.737254901960784359 0.7294117647058823151 #
plane-surface $-1 -1 $-1 -385.0000000000000568 -635 -15.00000000000003908 0 -1 0 0 0 -10 forward_v I I I I #
DXID-attrib $-1 -1 $-1 $626 $578 @10 ASM ENTITY @36 da60d3f6-5bb8-4c7a-97e1-1e1a0937131f #
DXID-attrib $-1 -1 $-1 $-1 $633 @10 ASM ENTITY @36 007c1258-5ffd-4a17-b4c6-ae6101b94739 #
straight-curve $-1 -1 $-1 -370.0000000000000568 -635 -30.00000000000007816 0 0 10 I I #
DXID-attrib $-1 -1 $-1 $645 $621 @10 ASM ENTITY @36 c670ce35-ebcd-4330-9203-531f7aab5afc #
End-of-ACIS-data 