700 0 1 0           
30 Autodesk Translation Framework 20 ASM 231.6.2.65535 NT 24 Thu Jul 23 01:35:29 2026 
1 9.999999999999999547e-07 1.000000000000000036e-10 
body $1 -1 $-1 $2 $-1 $-1 #
rgb_color-st-attrib $-1 -1 $3 $-1 $0 0.7490196078431372584 0.7490196078431372584 0.7490196078431372584 #
lump $-1 -1 $-1 $-1 $4 $0 #
DXID-attrib $-1 -1 $-1 $1 $0 @10 ASM ENTITY @98 PEDESTAL.IPT|:|1FFE40EAA2BD6ADEF5D656538643077E9E25E4D2|:|DA4B9237BACCCDF19C0760CAB7AEC4A8359010B0 #
shell $-1 -1 $-1 $-1 $-1 $5 $-1 $2 #
face $6 -1 $-1 $7 $8 $4 $-1 $9 forward single #
rgb_color-st-attrib $-1 -1 $10 $-1 $5 1 0.5607843137254902022 0.1843137254901960898 #
face $11 -1 $-1 $12 $13 $4 $-1 $14 forward single #
loop $-1 -1 $-1 $-1 $15 $5 #
cone-surface $-1 -1 $-1 -130 0 -130 0 1 0 91.92388155425119578 0 91.92388155425119578 1 I I 0 1 130.0000000000000284 forward I I I I #
DXID-attrib $-1 -1 $-1 $6 $5 @10 ASM ENTITY @36 1c938b37-9b0d-4ce5-9c74-319dea67e02b #
rgb_color-st-attrib $-1 -1 $16 $-1 $7 1 0.5607843137254902022 0.1843137254901960898 #
face $17 -1 $-1 $18 $19 $4 $-1 $20 forward single #
loop $-1 -1 $-1 $-1 $21 $7 #
plane-surface $-1 -1 $-1 -422 0 1.577721810442023611e-29 3.73867727592896564e-32 0 1 10 0 -3.738677275928965531e-31 forward_v I I I I #
coedge $-1 -1 $-1 $22 $23 $24 $25 forward $8 $-1 #
DXID-attrib $-1 -1 $-1 $11 $7 @10 ASM ENTITY @36 2ecb334d-7bc9-49e7-94ce-c6101c3677ba #
rgb_color-st-attrib $-1 -1 $26 $-1 $12 1 0.5607843137254902022 0.1843137254901960898 #
face $27 -1 $-1 $28 $29 $4 $-1 $30 forward single #
loop $-1 -1 $-1 $-1 $24 $12 #
plane-surface $-1 -1 $-1 -211 400 -234.0000000000000284 0 1 0 0 0 10 forward_v I I I I #
coedge $-1 -1 $-1 $31 $32 $22 $33 reversed $13 $-1 #
coedge $-1 -1 $-1 $34 $15 $21 $33 forward $8 $-1 #
coedge $-1 -1 $-1 $15 $34 $35 $36 forward $8 $-1 #
coedge $-1 -1 $-1 $37 $38 $15 $25 reversed $19 $-1 #
edge $-1 -1 $-1 $39 -0.785398163397448279 $40 0.785398163397448279 $24 $41 forward @7 unknown #
DXID-attrib $-1 -1 $-1 $17 $12 @10 ASM ENTITY @36 1745fad8-f85a-4f8d-9787-e1d23cbb1d86 #
rgb_color-st-attrib $-1 -1 $42 $-1 $18 1 0.5607843137254902022 0.1843137254901960898 #
face $43 -1 $-1 $44 $45 $4 $-1 $46 forward single #
loop $-1 -1 $-1 $-1 $47 $18 #
cone-surface $-1 -1 $-1 -292 0 -130 0 1 0 -91.92388155425119578 0 91.92388155425119578 1 I I 0 1 130.0000000000000284 forward I I I I #
coedge $-1 -1 $-1 $48 $21 $38 $49 reversed $13 $-1 #
coedge $-1 -1 $-1 $21 $48 $50 $51 forward $13 $-1 #
edge $-1 -1 $-1 $40 -40 $52 0 $21 $53 forward @7 tangent #
coedge $-1 -1 $-1 $23 $22 $54 $55 forward $8 $-1 #
coedge $-1 -1 $-1 $56 $57 $23 $36 reversed $58 $-1 #
edge $-1 -1 $-1 $59 0 $39 40 $35 $60 forward @7 tangent #
coedge $-1 -1 $-1 $61 $24 $57 $62 forward $19 $-1 #
coedge $-1 -1 $-1 $24 $63 $31 $49 forward $19 $-1 #
vertex $-1 -1 $-1 $25 $64 #
vertex $-1 -1 $-1 $25 $65 #
ellipse-curve $-1 -1 $-1 -130 400 -130 -0 -1 -0 91.92388155425119578 0 91.92388155425119578 1 I I #
DXID-attrib $-1 -1 $-1 $27 $18 @10 ASM ENTITY @36 9c4a5063-f87f-4f0d-9133-b1a68c12ddb7 #
rgb_color-st-attrib $-1 -1 $66 $-1 $28 1 0.5607843137254902022 0.1843137254901960898 #
face $67 -1 $-1 $68 $69 $4 $-1 $70 forward single #
loop $-1 -1 $-1 $-1 $71 $28 #
plane-surface $-1 -1 $-1 -422 0 -468.0000000000000568 -1 0 0 0 0 10 forward_v I I I I #
coedge $-1 -1 $-1 $72 $73 $63 $74 forward $29 $-1 #
coedge $-1 -1 $-1 $32 $31 $73 $75 reversed $13 $-1 #
edge $76 -1 $-1 $77 13 $40 29.20000000000000284 $31 $78 forward @7 unknown #
coedge $-1 -1 $-1 $79 $54 $32 $51 reversed $80 $-1 #
edge $81 -1 $-1 $82 13 $52 29.20000000000000284 $32 $83 forward @7 unknown #
vertex $-1 -1 $-1 $33 $84 #
straight-curve $-1 -1 $-1 -130 0 0 0 -10 0 F -80.30000099999999463 F 40.30000099999999463 #
coedge $-1 -1 $-1 $50 $85 $34 $55 reversed $80 $-1 #
edge $-1 -1 $-1 $52 -0.785398163397448279 $59 0.785398163397448279 $54 $86 forward @7 unknown #
coedge $-1 -1 $-1 $87 $35 $85 $88 forward $58 $-1 #
coedge $-1 -1 $-1 $35 $87 $37 $62 reversed $58 $-1 #
loop $-1 -1 $-1 $-1 $35 $89 #
vertex $-1 -1 $-1 $55 $90 #
straight-curve $-1 -1 $-1 0 0 -130 0 10 0 F -40.30000099999999463 F 80.30000099999999463 #
coedge $-1 -1 $-1 $91 $37 $92 $93 reversed $19 $-1 #
edge $94 -1 $-1 $39 13 $95 33.80000000000000426 $57 $96 forward @7 unknown #
coedge $-1 -1 $-1 $38 $97 $47 $74 reversed $19 $-1 #
point $-1 -1 $-1 0 400 -130 #
point $-1 -1 $-1 -130 400 4.860280458707655059e-30 #
DXID-attrib $-1 -1 $-1 $43 $28 @10 ASM ENTITY @36 10cdc6b7-113a-4092-bd66-19b93951bb9a #
rgb_color-st-attrib $-1 -1 $98 $-1 $44 1 0.5607843137254902022 0.1843137254901960898 #
face $99 -1 $-1 $100 $101 $4 $-1 $102 forward single #
loop $-1 -1 $-1 $-1 $103 $44 #
cone-surface $-1 -1 $-1 -292 0 -338.0000000000000568 0 1 0 -91.92388155425119578 0 -91.92388155425119578 1 I I 0 1 130.0000000000000284 forward I I I I #
coedge $-1 -1 $-1 $104 $105 $72 $106 reversed $45 $-1 #
coedge $-1 -1 $-1 $107 $47 $71 $106 forward $29 $-1 #
coedge $-1 -1 $-1 $47 $107 $48 $75 forward $29 $-1 #
edge $-1 -1 $-1 $77 -0.785398163397448279 $108 0.785398163397448279 $63 $109 forward @7 unknown #
edge $-1 -1 $-1 $82 0 $77 40 $48 $110 forward @7 tangent #
DXID-attrib $-1 -1 $-1 $-1 $49 @10 ASM ENTITY @36 e28e1492-f798-4c28-93d1-39a7b14b7c27 #
vertex $-1 -1 $-1 $49 $111 #
straight-curve $-1 -1 $-1 -422 400 1.577721810442023611e-29 10 0 -3.738677275928965531e-31 I I #
coedge $-1 -1 $-1 $112 $50 $107 $113 reversed $80 $-1 #
loop $-1 -1 $-1 $-1 $54 $114 #
DXID-attrib $-1 -1 $-1 $-1 $51 @10 ASM ENTITY @36 18e4d6e4-7989-43c4-8967-73e0ea0a42bc #
vertex $-1 -1 $-1 $75 $115 #
straight-curve $-1 -1 $-1 -422 0 1.577721810442023611e-29 10 0 -3.738677275928965531e-31 F 0 F 42.20000000000000284 #
point $-1 -1 $-1 -130 0 4.860280458707655059e-30 #
coedge $-1 -1 $-1 $54 $116 $56 $88 reversed $80 $-1 #
ellipse-curve $-1 -1 $-1 -130 0 -130 0 1 0 91.92388155425119578 0 91.92388155425119578 1 I I #
coedge $-1 -1 $-1 $57 $56 $117 $118 reversed $58 $-1 #
edge $119 -1 $-1 $59 13 $120 33.80000000000000426 $56 $121 forward @7 unknown #
face $122 -1 $-1 $114 $58 $4 $-1 $123 forward single #
point $-1 -1 $-1 0 0 -130 #
coedge $-1 -1 $-1 $124 $61 $125 $126 forward $19 $-1 #
coedge $-1 -1 $-1 $117 $127 $61 $93 forward $128 $-1 #
edge $-1 -1 $-1 $129 -0.785398163397448279 $95 0.785398163397448279 $61 $130 forward @7 unknown #
DXID-attrib $-1 -1 $-1 $-1 $62 @10 ASM ENTITY @36 11c848a3-1f88-43d8-8b3b-bfc54a27f2ed #
vertex $-1 -1 $-1 $62 $131 #
straight-curve $-1 -1 $-1 0 400 0 -0 -0 -10 I I #
coedge $-1 -1 $-1 $63 $124 $104 $132 forward $19 $-1 #
DXID-attrib $-1 -1 $-1 $67 $44 @10 ASM ENTITY @36 7f7e547e-14b0-45fb-9397-402befdf9e17 #
rgb_color-st-attrib $-1 -1 $133 $-1 $68 1 0.5607843137254902022 0.1843137254901960898 #
face $134 -1 $-1 $89 $128 $4 $-1 $135 forward single #
loop $-1 -1 $-1 $-1 $136 $68 #
plane-surface $-1 -1 $-1 0 0 -468.0000000000000568 0 0 -1 -10 -0 -0 forward_v I I I I #
coedge $-1 -1 $-1 $137 $138 $124 $139 forward $69 $-1 #
coedge $-1 -1 $-1 $140 $71 $97 $132 reversed $45 $-1 #
coedge $-1 -1 $-1 $71 $140 $112 $141 forward $45 $-1 #
edge $-1 -1 $-1 $108 -40 $142 -0 $71 $143 forward @7 tangent #
coedge $-1 -1 $-1 $73 $72 $79 $113 forward $29 $-1 #
vertex $-1 -1 $-1 $132 $144 #
ellipse-curve $-1 -1 $-1 -292 400 -130 -0 -1 -0 -91.92388155425119578 0 91.92388155425119578 1 I I #
straight-curve $-1 -1 $-1 -292 0 0 0 10 0 F -40.30000099999999463 F 80.30000099999999463 #
point $-1 -1 $-1 -292 400 1.091693764571258175e-29 #
coedge $-1 -1 $-1 $145 $79 $105 $141 reversed $80 $-1 #
edge $-1 -1 $-1 $142 -0.785398163397448279 $82 0.785398163397448279 $79 $146 forward @7 unknown #
face $147 -1 $-1 $-1 $80 $4 $-1 $148 reversed single #
point $-1 -1 $-1 -292 0 1.091693764571258175e-29 #
coedge $-1 -1 $-1 $85 $149 $150 $151 reversed $80 $-1 #
coedge $-1 -1 $-1 $150 $92 $87 $118 forward $128 $-1 #
edge $-1 -1 $-1 $95 -40 $120 0 $87 $152 forward @7 tangent #
DXID-attrib $-1 -1 $-1 $-1 $88 @10 ASM ENTITY @36 4ea6732b-f6cd-4a24-8604-a093ed8835ff #
vertex $-1 -1 $-1 $118 $153 #
straight-curve $-1 -1 $-1 0 0 0 -0 -0 -10 F -0 F 46.80000000000000426 #
rgb_color-st-attrib $-1 -1 $154 $-1 $89 1 0.5607843137254902022 0.1843137254901960898 #
plane-surface $-1 -1 $-1 0 0 0 1 0 0 -0 -0 -10 forward_v I I I I #
coedge $-1 -1 $-1 $97 $91 $103 $139 reversed $19 $-1 #
coedge $-1 -1 $-1 $155 $136 $91 $126 reversed $101 $-1 #
edge $156 -1 $-1 $129 13 $157 29.20000000000000284 $125 $158 forward @7 unknown #
coedge $-1 -1 $-1 $92 $150 $155 $159 forward $128 $-1 #
loop $-1 -1 $-1 $-1 $92 $100 #
vertex $-1 -1 $-1 $93 $160 #
ellipse-curve $-1 -1 $-1 -130 400 -338.0000000000000568 -0 -1 -0 91.92388155425119578 0 -91.92388155425119578 1 I I #
point $-1 -1 $-1 0 400 -338.0000000000000568 #
edge $161 -1 $-1 $162 13 $108 33.80000000000000426 $104 $163 forward @7 unknown #
DXID-attrib $-1 -1 $-1 $99 $68 @10 ASM ENTITY @36 4d9b3e2c-ae70-438e-87fa-9d9f645a5144 #
rgb_color-st-attrib $-1 -1 $164 $-1 $100 1 0.5607843137254902022 0.1843137254901960898 #
cone-surface $-1 -1 $-1 -130 0 -338.0000000000000568 0 1 0 91.92388155425119578 0 -91.92388155425119578 1 I I 0 1 130.0000000000000284 forward I I I I #
coedge $-1 -1 $-1 $125 $165 $137 $166 reversed $101 $-1 #
coedge $-1 -1 $-1 $167 $103 $136 $166 forward $69 $-1 #
coedge $-1 -1 $-1 $103 $167 $140 $168 forward $69 $-1 #
edge $-1 -1 $-1 $162 -0.785398163397448279 $157 0.785398163397448279 $124 $169 forward @7 unknown #
coedge $-1 -1 $-1 $105 $104 $138 $168 reversed $45 $-1 #
edge $170 -1 $-1 $171 13 $142 33.80000000000000426 $105 $172 forward @7 unknown #
vertex $-1 -1 $-1 $106 $173 #
straight-curve $-1 -1 $-1 -422 0 -130 -0 -10 -0 F -80.30000099999999463 F 40.30000099999999463 #
point $-1 -1 $-1 -422 400 -130 #
coedge $-1 -1 $-1 $149 $112 $167 $174 reversed $80 $-1 #
ellipse-curve $-1 -1 $-1 -292 0 -130 0 1 0 -91.92388155425119578 0 91.92388155425119578 1 I I #
rgb_color-st-attrib $-1 -1 $175 $-1 $114 1 0.5607843137254902022 0.1843137254901960898 #
plane-surface $-1 -1 $-1 -211 0 -234.0000000000000284 0 1 0 0 0 10 forward_v I I I I #
coedge $-1 -1 $-1 $116 $145 $165 $176 reversed $80 $-1 #
coedge $-1 -1 $-1 $127 $117 $116 $151 forward $128 $-1 #
edge $-1 -1 $-1 $120 -0.785398163397448279 $177 0.785398163397448279 $116 $178 forward @7 unknown #
straight-curve $-1 -1 $-1 0 0 -338.0000000000000568 0 -10 0 F -80.30000099999999463 F 40.30000099999999463 #
point $-1 -1 $-1 0 0 -338.0000000000000568 #
DXID-attrib $-1 -1 $-1 $122 $89 @10 ASM ENTITY @36 355d4c25-26f9-413c-ac5a-1025f75ac368 #
coedge $-1 -1 $-1 $165 $125 $127 $159 reversed $101 $-1 #
DXID-attrib $-1 -1 $-1 $-1 $126 @10 ASM ENTITY @36 7fcfd564-0194-4016-a360-f7832f4dd435 #
vertex $-1 -1 $-1 $126 $179 #
straight-curve $-1 -1 $-1 0 400 -468.0000000000000568 -10 -0 -0 I I #
edge $-1 -1 $-1 $177 0 $129 40 $155 $180 forward @7 tangent #
point $-1 -1 $-1 -130 400 -468.0000000000000568 #
DXID-attrib $-1 -1 $-1 $-1 $132 @10 ASM ENTITY @36 79f8d005-555b-4c21-8c01-021b2d2f0fd1 #
vertex $-1 -1 $-1 $139 $181 #
straight-curve $-1 -1 $-1 -422 400 -468.0000000000000568 0 0 10 I I #
DXID-attrib $-1 -1 $-1 $134 $100 @10 ASM ENTITY @36 7fccd35c-c44f-400e-ae02-43758bb7ee9c #
coedge $-1 -1 $-1 $136 $155 $149 $176 forward $101 $-1 #
edge $-1 -1 $-1 $157 -40 $182 -0 $136 $183 forward @7 tangent #
coedge $-1 -1 $-1 $138 $137 $145 $174 forward $69 $-1 #
edge $-1 -1 $-1 $171 0 $162 40 $140 $184 forward @7 tangent #
ellipse-curve $-1 -1 $-1 -292 400 -338.0000000000000568 -0 -1 -0 -91.92388155425119578 0 -91.92388155425119578 1 I I #
DXID-attrib $-1 -1 $-1 $-1 $141 @10 ASM ENTITY @36 c53752cb-fcf9-4b70-9f4e-83ec12e75d39 #
vertex $-1 -1 $-1 $168 $185 #
straight-curve $-1 -1 $-1 -422 0 -468.0000000000000568 0 0 10 F 0 F 46.80000000000000426 #
point $-1 -1 $-1 -422 0 -130 #
edge $-1 -1 $-1 $182 -0.785398163397448279 $171 0.785398163397448279 $145 $186 forward @7 unknown #
DXID-attrib $-1 -1 $-1 $147 $114 @10 ASM ENTITY @36 f10027fd-9d36-486e-a882-8ef2a00e39f3 #
edge $187 -1 $-1 $177 13 $182 29.20000000000000284 $165 $188 forward @7 unknown #
vertex $-1 -1 $-1 $159 $189 #
ellipse-curve $-1 -1 $-1 -130 0 -338.0000000000000568 0 1 0 91.92388155425119578 0 -91.92388155425119578 1 I I #
point $-1 -1 $-1 -292 400 -468.0000000000000568 #
straight-curve $-1 -1 $-1 -130 0 -468.0000000000000568 0 10 0 F -40.30000099999999463 F 80.30000099999999463 #
point $-1 -1 $-1 -422 400 -338.0000000000000568 #
vertex $-1 -1 $-1 $166 $190 #
straight-curve $-1 -1 $-1 -292 0 -468.0000000000000568 -0 -10 -0 F -80.30000099999999463 F 40.30000099999999463 #
straight-curve $-1 -1 $-1 -422 0 -338.0000000000000568 0 10 0 F -40.30000099999999463 F 80.30000099999999463 #
point $-1 -1 $-1 -422 0 -338.0000000000000568 #
ellipse-curve $-1 -1 $-1 -292 0 -338.0000000000000568 0 1 0 -91.92388155425119578 0 -91.92388155425119578 1 I I #
DXID-attrib $-1 -1 $-1 $-1 $176 @10 ASM ENTITY @36 d961fa4e-6622-4680-af4f-74f07d8f2635 #
straight-curve $-1 -1 $-1 0 0 -468.0000000000000568 -10 -0 -0 F -0 F 42.20000000000000284 #
point $-1 -1 $-1 -130 0 -468.0000000000000568 #
point $-1 -1 $-1 -292 0 -468.0000000000000568 #
End-of-ACIS-data 