solid AssimpScene
 facet normal 0 0 -1
  outer loop
  vertex 0.0115999496 -0.0163999703 -0.0115
  vertex 0.0115999496 -0.0184000097 -0.0115
  vertex -0.0123999696 -0.0184000097 -0.0115
  endloop
 endfacet

 facet normal 1 0 0
  outer loop
  vertex 0.0115999496 -0.0184000097 0.0115
  vertex 0.0115999496 -0.0163999703 -0.0115
  vertex 0.0115999496 -0.0163999703 0.0115
  endloop
 endfacet

 facet normal -1 0 0
  outer loop
  vertex -0.0123999696 -0.0184000097 -0.0115
  vertex -0.0123999696 0.0185999796 0.0115
  vertex -0.0123999696 0.0185999796 -0.0115
  endloop
 endfacet

 facet normal 0 0 1
  outer loop
  vertex -0.00939994957 0.0185999796 0.0115
  vertex -0.0123999696 0.0185999796 0.0115
  vertex -0.0123999696 -0.0184000097 0.0115
  endloop
 endfacet

 facet normal 0 -1 0
  outer loop
  vertex 0.0115999496 -0.0184000097 0.0115
  vertex -0.0123999696 -0.0184000097 -0.0115
  vertex 0.0115999496 -0.0184000097 -0.0115
  endloop
 endfacet

 facet normal 0 1 0
  outer loop
  vertex -0.00939994957 0.0185999796 -0.0115
  vertex -0.0123999696 0.0185999796 0.0115
  vertex -0.00939994957 0.0185999796 0.0115
  endloop
 endfacet

 facet normal 1 0 0
  outer loop
  vertex -0.00939994957 0.0185999796 -0.0094999671
  vertex -0.00939994957 -0.0163999703 0.0094999671
  vertex -0.00939994957 -0.0163999703 -0.0094999671
  endloop
 endfacet

 facet normal 0 0 1
  outer loop
  vertex 0.0115999496 -0.0163999703 -0.0094999671
  vertex -0.00939994957 0.0185999796 -0.0094999671
  vertex -0.00939994957 -0.0163999703 -0.0094999671
  endloop
 endfacet

 facet normal 0 0 -1
  outer loop
  vertex -0.00939994957 0.0185999796 0.0094999671
  vertex 0.0115999496 -0.0163999703 0.0094999671
  vertex -0.00939994957 -0.0163999703 0.0094999671
  endloop
 endfacet

 facet normal 0.857492864 0.514495909 0
  outer loop
  vertex 0.0115999496 -0.0163999703 -0.0115
  vertex -0.00939994957 0.0185999796 -0.0094999671
  vertex 0.0115999496 -0.0163999703 -0.0094999671
  endloop
 endfacet

 facet normal 0 1 0
  outer loop
  vertex 0.0115999496 -0.0163999703 0.0094999671
  vertex -0.00939994957 -0.0163999703 -0.0094999671
  vertex -0.00939994957 -0.0163999703 0.0094999671
  endloop
 endfacet

 facet normal 0.857492864 0.514495909 0
  outer loop
  vertex 0.0115999496 -0.0163999703 0.0094999671
  vertex -0.00939994957 0.0185999796 0.0115
  vertex 0.0115999496 -0.0163999703 0.0115
  endloop
 endfacet

 facet normal 0 0 -1
  outer loop
  vertex -0.0123999696 0.0185999796 -0.0115
  vertex -0.00939994957 0.0185999796 -0.0115
  vertex -0.0123999696 -0.0184000097 -0.0115
  endloop
 endfacet

 facet normal 0 0 -1
  outer loop
  vertex -0.00939994957 0.0185999796 -0.0115
  vertex 0.0115999496 -0.0163999703 -0.0115
  vertex -0.0123999696 -0.0184000097 -0.0115
  endloop
 endfacet

 facet normal 1 0 0
  outer loop
  vertex 0.0115999496 -0.0184000097 0.0115
  vertex 0.0115999496 -0.0184000097 -0.0115
  vertex 0.0115999496 -0.0163999703 -0.0115
  endloop
 endfacet

 facet normal -1 0 0
  outer loop
  vertex -0.0123999696 -0.0184000097 -0.0115
  vertex -0.0123999696 -0.0184000097 0.0115
  vertex -0.0123999696 0.0185999796 0.0115
  endloop
 endfacet

 facet normal 0 0 1
  outer loop
  vertex 0.0115999496 -0.0184000097 0.0115
  vertex 0.0115999496 -0.0163999703 0.0115
  vertex -0.0123999696 -0.0184000097 0.0115
  endloop
 endfacet

 facet normal 0 0 1
  outer loop
  vertex 0.0115999496 -0.0163999703 0.0115
  vertex -0.00939994957 0.0185999796 0.0115
  vertex -0.0123999696 -0.0184000097 0.0115
  endloop
 endfacet

 facet normal 0 -1 0
  outer loop
  vertex 0.0115999496 -0.0184000097 0.0115
  vertex -0.0123999696 -0.0184000097 0.0115
  vertex -0.0123999696 -0.0184000097 -0.0115
  endloop
 endfacet

 facet normal 0 1 0
  outer loop
  vertex -0.00939994957 0.0185999796 -0.0115
  vertex -0.0123999696 0.0185999796 -0.0115
  vertex -0.0123999696 0.0185999796 0.0115
  endloop
 endfacet

 facet normal 1 0 0
  outer loop
  vertex -0.00939994957 0.0185999796 -0.0094999671
  vertex -0.00939994957 0.0185999796 0.0094999671
  vertex -0.00939994957 -0.0163999703 0.0094999671
  endloop
 endfacet

 facet normal 0.857492864 0.514495909 0
  outer loop
  vertex 0.0115999496 -0.0163999703 -0.0115
  vertex -0.00939994957 0.0185999796 -0.0115
  vertex -0.00939994957 0.0185999796 -0.0094999671
  endloop
 endfacet

 facet normal 0 1 0
  outer loop
  vertex 0.0115999496 -0.0163999703 0.0094999671
  vertex 0.0115999496 -0.0163999703 -0.0094999671
  vertex -0.00939994957 -0.0163999703 -0.0094999671
  endloop
 endfacet

 facet normal 0.857492864 0.514495909 0
  outer loop
  vertex 0.0115999496 -0.0163999703 0.0094999671
  vertex -0.00939994957 0.0185999796 0.0094999671
  vertex -0.00939994957 0.0185999796 0.0115
  endloop
 endfacet

endsolid AssimpScene
