700 0 1 0           
30 Autodesk Translation Framework 20 ASM 231.6.2.65535 NT 24 Thu Jul 23 01:35:59 2026 
1 9.999999999999999547e-07 1.000000000000000036e-10 
body $1 -1 $-1 $2 $-1 $-1 #
rgb_color-st-attrib $-1 -1 $3 $-1 $0 0.7490196078431372584 0.7490196078431372584 0.7490196078431372584 #
lump $-1 -1 $-1 $-1 $4 $0 #
DXID-attrib $-1 -1 $-1 $1 $0 @10 ASM ENTITY @94 CAJA.IPT|:|4D157EF25E1EE514AA58CF4E22BA4B6665FCC113|:|DA4B9237BACCCDF19C0760CAB7AEC4A8359010B0 #
shell $-1 -1 $-1 $-1 $-1 $5 $-1 $2 #
face $6 -1 $-1 $7 $8 $4 $-1 $9 forward single #
rgb_color-st-attrib $-1 -1 $10 $-1 $5 0.8313725490196078871 0.7607843137254901578 0.5999999999999999778 #
face $11 -1 $-1 $12 $13 $4 $-1 $14 forward single #
loop $-1 -1 $-1 $-1 $15 $5 #
cone-surface $-1 -1 $-1 -157.1421356237309794 34.25 16 0 1 0 3.826834323650907255 0 9.238795325112864276 1 I I 0 1 10 forward I I I I #
DXID-attrib $-1 -1 $-1 $6 $5 @10 ASM ENTITY @36 64068538-815a-41d9-9860-d1d36dc4ada9 #
rgb_color-st-attrib $-1 -1 $16 $-1 $7 0.8313725490196078871 0.7607843137254901578 0.5999999999999999778 #
face $17 -1 $-1 $18 $19 $4 $-1 $20 forward single #
loop $-1 -1 $-1 $-1 $21 $7 #
plane-surface $-1 -1 $-1 -191 33.5 26 0 0 1 10 0 0 forward_v I I I I #
coedge $-1 -1 $-1 $22 $23 $24 $25 forward $8 $-1 #
DXID-attrib $-1 -1 $-1 $11 $7 @10 ASM ENTITY @36 2e3bb2a6-1e90-45e1-9d3c-ec196b3da297 #
rgb_color-st-attrib $-1 -1 $26 $-1 $12 0.8313725490196078871 0.7607843137254901578 0.5999999999999999778 #
face $27 -1 $-1 $28 $29 $4 $-1 $30 forward single #
loop $-1 -1 $-1 $31 $24 $12 #
plane-surface $-1 -1 $-1 -63.50000000000002842 35 -83 0 1 0 0 0 10 forward_v I I I I #
coedge $-1 -1 $-1 $32 $33 $22 $34 reversed $13 $-1 #
coedge $-1 -1 $-1 $35 $15 $21 $34 forward $8 $-1 #
coedge $-1 -1 $-1 $15 $35 $36 $37 forward $8 $-1 #
coedge $-1 -1 $-1 $38 $39 $15 $25 reversed $19 $-1 #
edge $-1 -1 $-1 $40 -0.3926990816987234734 $41 0.3926990816987251942 $24 $42 forward @7 unknown #
DXID-attrib $-1 -1 $-1 $17 $12 @10 ASM ENTITY @36 34cb135a-0252-4c31-8112-0c10c9cbb039 #
rgb_color-st-attrib $-1 -1 $43 $-1 $18 0.8313725490196078871 0.7607843137254901578 0.5999999999999999778 #
face $44 -1 $-1 $45 $46 $4 $-1 $47 reversed single #
loop $-1 -1 $-1 $-1 $48 $18 #
cone-surface $-1 -1 $-1 -224.8578643762691058 34.25 16 0 -1 0 -3.826834323650892156 0 9.238795325112869605 1 I I 0 1 10 forward I I I I #
loop $-1 -1 $-1 $-1 $49 $12 #
coedge $-1 -1 $-1 $50 $21 $39 $51 forward $13 $-1 #
coedge $-1 -1 $-1 $21 $50 $52 $53 forward $13 $-1 #
edge $-1 -1 $-1 $41 -0.07500000000000017764 $54 0.2250000000000005329 $21 $55 forward @7 tangent #
coedge $-1 -1 $-1 $23 $22 $56 $57 forward $8 $-1 #
coedge $-1 -1 $-1 $58 $59 $23 $37 reversed $60 $-1 #
edge $-1 -1 $-1 $61 -0.2249999999999987566 $40 0.07500000000000017764 $36 $62 forward @7 tangent #
coedge $-1 -1 $-1 $63 $24 $59 $64 forward $19 $-1 #
coedge $-1 -1 $-1 $24 $65 $32 $51 reversed $19 $-1 #
vertex $-1 -1 $-1 $25 $66 #
vertex $-1 -1 $-1 $25 $67 #
ellipse-curve $-1 -1 $-1 -157.1421356237309794 35 16 -0 -1 -0 3.826834323650907255 0 9.238795325112864276 1 I I #
DXID-attrib $-1 -1 $-1 $27 $18 @10 ASM ENTITY @36 e1702e78-07b9-45b8-a459-20ea2f801a30 #
rgb_color-st-attrib $-1 -1 $68 $-1 $28 0.8313725490196078871 0.7607843137254901578 0.5999999999999999778 #
face $69 -1 $-1 $70 $71 $4 $-1 $72 forward single #
loop $-1 -1 $-1 $-1 $73 $28 #
plane-surface $-1 -1 $-1 -255.0000000000000284 35 0 0.7071067811865473507 0 -0.7071067811865476838 7.071067811865477282 0 7.071067811865473729 forward_v I I I I #
coedge $-1 -1 $-1 $74 $75 $76 $77 forward $29 $-1 #
coedge $-1 -1 $-1 $78 $79 $80 $81 forward $31 $-1 #
coedge $-1 -1 $-1 $33 $32 $82 $83 reversed $13 $-1 #
edge $84 -1 $-1 $41 15.71421356237309475 $85 16.89999999999999858 $39 $86 forward @7 unknown #
coedge $-1 -1 $-1 $87 $56 $33 $53 reversed $88 $-1 #
edge $89 -1 $-1 $90 8.600000000000001421 $54 9.785786437626905254 $52 $91 forward @7 unknown #
vertex $-1 -1 $-1 $34 $92 #
straight-curve $-1 -1 $-1 -157.1421356237309794 34.25 26 -0 -10 -0 F -3.175000999999999962 F 3.325001000000000762 #
coedge $-1 -1 $-1 $52 $93 $35 $57 reversed $88 $-1 #
edge $-1 -1 $-1 $54 -0.3926990816987251942 $61 0.3926990816987228627 $56 $94 forward @7 unknown #
coedge $-1 -1 $-1 $95 $36 $93 $96 reversed $60 $-1 #
coedge $-1 -1 $-1 $36 $95 $38 $64 reversed $60 $-1 #
loop $-1 -1 $-1 $-1 $36 $97 #
vertex $-1 -1 $-1 $57 $98 #
straight-curve $-1 -1 $-1 -150.0710678118655039 34.25 23.07106781186547906 0 10 0 F -3.325001000000000762 F 3.175000999999999962 #
coedge $-1 -1 $-1 $99 $38 $100 $101 reversed $19 $-1 #
edge $-1 -1 $-1 $40 -6.603821240903389622 $102 -3.341079541106438011 $38 $103 forward @7 unknown #
coedge $-1 -1 $-1 $39 $104 $105 $106 reversed $19 $-1 #
point $-1 -1 $-1 -150.0710678118655039 35 23.07106781186547551 #
point $-1 -1 $-1 -157.1421356237309794 35 26 #
DXID-attrib $-1 -1 $-1 $44 $28 @10 ASM ENTITY @36 59458069-e946-4043-8404-92663023bfe1 #
rgb_color-st-attrib $-1 -1 $107 $-1 $45 0.8313725490196078871 0.7607843137254901578 0.5999999999999999778 #
face $108 -1 $-1 $109 $110 $4 $-1 $111 reversed single #
loop $-1 -1 $-1 $-1 $112 $45 #
cone-surface $-1 -1 $-1 -173.0000000000000568 35 23 -0 -1 -0 1.414213562373104249 0 -1.414213562373085598 1 I I 0 -1 1.999999999999999778 forward I I I I #
coedge $-1 -1 $-1 $113 $114 $75 $115 reversed $46 $-1 #
coedge $-1 -1 $-1 $116 $48 $117 $118 forward $29 $-1 #
coedge $-1 -1 $-1 $48 $116 $73 $115 forward $29 $-1 #
coedge $-1 -1 $-1 $119 $120 $48 $77 reversed $88 $-1 #
edge $-1 -1 $-1 $121 -0.3926990816987259159 $122 0.3926990816987235844 $76 $123 forward @7 unknown #
coedge $-1 -1 $-1 $124 $49 $125 $126 forward $31 $-1 #
coedge $-1 -1 $-1 $49 $124 $127 $128 forward $31 $-1 #
coedge $-1 -1 $-1 $129 $130 $49 $81 reversed $131 $-1 #
edge $132 -1 $-1 $133 -0 $134 15.60000000000000142 $80 $135 forward @7 unknown #
coedge $-1 -1 $-1 $105 $136 $50 $83 forward $137 $-1 #
edge $-1 -1 $-1 $90 -0.2250000000000005329 $85 0.07500000000000017764 $50 $138 forward @7 tangent #
DXID-attrib $-1 -1 $-1 $-1 $51 @10 ASM ENTITY @36 c007eb6a-af45-4bc3-b6ba-75db403c8a7a #
vertex $-1 -1 $-1 $51 $139 #
straight-curve $-1 -1 $-1 -3.552713678800500929e-14 35 26 -10 0 1.941094747098946208e-32 I I #
coedge $-1 -1 $-1 $140 $52 $136 $141 reversed $88 $-1 #
loop $-1 -1 $-1 $-1 $56 $142 #
DXID-attrib $-1 -1 $-1 $-1 $53 @10 ASM ENTITY @36 c0bb2184-e461-4654-8913-a2074384b5bd #
vertex $-1 -1 $-1 $83 $143 #
straight-curve $-1 -1 $-1 -255.0000000000000284 31.99999999999999289 26 10 0 -1.941094747098946208e-32 I I #
point $-1 -1 $-1 -157.1421356237309794 31.99999999999999289 26 #
coedge $-1 -1 $-1 $56 $144 $58 $96 forward $88 $-1 #
ellipse-curve $-1 -1 $-1 -157.1421356237309794 31.99999999999999289 16 0 1 -1.070094481566415813e-16 3.826834323650907255 0 9.238795325112864276 1 I I #
coedge $-1 -1 $-1 $59 $58 $145 $146 reversed $60 $-1 #
edge $-1 -1 $-1 $147 4.030508652763320931 $61 7.293250352560274763 $93 $148 forward @7 unknown #
face $149 -1 $-1 $142 $60 $4 $-1 $150 reversed single #
point $-1 -1 $-1 -150.0710678118655039 32.00000000000001421 23.07106781186548261 #
coedge $-1 -1 $-1 $151 $63 $152 $153 forward $19 $-1 #
coedge $-1 -1 $-1 $145 $154 $63 $101 forward $155 $-1 #
edge $156 -1 $-1 $157 -12.69999999999999751 $102 1.776356839400250465e-15 $100 $158 forward @7 unknown #
vertex $-1 -1 $-1 $64 $159 #
straight-curve $-1 -1 $-1 -103.3750000000000284 35 -23.62500000000000711 7.071067811865474617 0 -7.071067811865475505 I I #
coedge $-1 -1 $-1 $65 $160 $161 $162 forward $19 $-1 #
coedge $-1 -1 $-1 $163 $82 $65 $106 forward $137 $-1 #
edge $-1 -1 $-1 $85 -0.7853981633974395082 $164 0.7853981633974571608 $65 $165 forward @7 unknown #
DXID-attrib $-1 -1 $-1 $69 $45 @10 ASM ENTITY @36 d89db23a-8078-4b61-9990-6d0b07e804ab #
rgb_color-st-attrib $-1 -1 $166 $-1 $70 0.8313725490196078871 0.7607843137254901578 0.5999999999999999778 #
face $167 -1 $-1 $168 $137 $4 $-1 $169 forward single #
loop $-1 -1 $-1 $-1 $170 $70 #
plane-surface $-1 -1 $-1 -211 35 21.00000000000000711 -2.220446049250313081e-16 -0 -1 10 0 -2.220446049250313081e-15 forward_v I I I I #
coedge $-1 -1 $-1 $171 $172 $160 $173 forward $71 $-1 #
coedge $-1 -1 $-1 $174 $73 $175 $176 reversed $46 $-1 #
coedge $-1 -1 $-1 $73 $174 $119 $177 reversed $46 $-1 #
edge $-1 -1 $-1 $178 -0.07500000000000017764 $121 0.2249999999999983125 $73 $179 forward @7 tangent #
coedge $-1 -1 $-1 $75 $74 $180 $181 forward $29 $-1 #
coedge $-1 -1 $-1 $182 $183 $74 $118 reversed $184 $-1 #
edge $-1 -1 $-1 $122 -0.2250000000000005329 $185 0.07500000000000017764 $117 $186 forward @7 tangent #
coedge $-1 -1 $-1 $187 $76 $114 $177 forward $88 $-1 #
coedge $-1 -1 $-1 $76 $188 $182 $189 reversed $88 $-1 #
vertex $-1 -1 $-1 $77 $190 #
vertex $-1 -1 $-1 $77 $191 #
ellipse-curve $-1 -1 $-1 -224.8578643762691058 31.99999999999999289 16 0 1 -1.070094481566415813e-16 -3.826834323650892156 0 9.238795325112869605 1 I I #
coedge $-1 -1 $-1 $79 $78 $192 $193 forward $31 $-1 #
coedge $-1 -1 $-1 $194 $195 $78 $126 reversed $196 $-1 #
edge $197 -1 $-1 $134 0 $198 11.70000000000000284 $125 $199 forward @7 unknown #
coedge $-1 -1 $-1 $200 $201 $79 $128 reversed $202 $-1 #
edge $203 -1 $-1 $204 -0 $133 11.70000000000000107 $127 $205 forward @7 unknown #
coedge $-1 -1 $-1 $206 $80 $201 $207 reversed $131 $-1 #
coedge $-1 -1 $-1 $80 $206 $194 $208 forward $131 $-1 #
loop $-1 -1 $-1 $-1 $206 $209 #
DXID-attrib $-1 -1 $-1 $-1 $81 @10 ASM ENTITY @36 a8eb44bc-b02c-4894-b05a-540bbe678e35 #
vertex $-1 -1 $-1 $81 $210 #
vertex $-1 -1 $-1 $81 $211 #
straight-curve $-1 -1 $-1 -122.0000000000000142 35 -5 -3.416070845000481359e-15 -0 -10 I I #
coedge $-1 -1 $-1 $82 $163 $87 $141 forward $137 $-1 #
loop $-1 -1 $-1 $-1 $136 $109 #
straight-curve $-1 -1 $-1 -169.0000000000000284 34.25 26 0 10 0 F -0.8450009999999985588 F 0.695001000000000424 #
point $-1 -1 $-1 -169.0000000000000284 35 26 #
coedge $-1 -1 $-1 $212 $87 $213 $214 forward $88 $-1 #
edge $-1 -1 $-1 $215 -0.7853981633974527199 $90 0.7853981633974395082 $87 $216 forward @7 unknown #
face $217 -1 $-1 $218 $88 $4 $-1 $219 forward single #
point $-1 -1 $-1 -169.0000000000000284 31.99999999999999289 26 #
coedge $-1 -1 $-1 $93 $220 $221 $222 reversed $88 $-1 #
coedge $-1 -1 $-1 $223 $100 $95 $146 forward $155 $-1 #
edge $-1 -1 $-1 $102 -1.900000000000000355 $147 -1.600000000000001421 $145 $224 forward @7 unknown #
vertex $-1 -1 $-1 $96 $225 #
straight-curve $-1 -1 $-1 -98.50000000000001421 32.00000000000000711 -28.50000000000000711 -7.071067811865474617 7.566710644259155802e-16 7.071067811865475505 I I #
rgb_color-st-attrib $-1 -1 $226 $-1 $97 0.8313725490196078871 0.7607843137254901578 0.5999999999999999778 #
plane-surface $-1 -1 $-1 -153.0000000000000284 35 26 -0.7071067811865475727 -0 -0.7071067811865474617 7.071067811865474617 0 -7.071067811865475505 forward_v I I I I #
coedge $-1 -1 $-1 $227 $99 $228 $229 forward $19 $-1 #
coedge $-1 -1 $-1 $230 $231 $99 $153 reversed $232 $-1 #
edge $233 -1 $-1 $157 0 $234 16.60000000000000142 $152 $235 forward @7 unknown #
coedge $-1 -1 $-1 $100 $236 $230 $237 forward $155 $-1 #
loop $-1 -1 $-1 $-1 $145 $238 #
DXID-attrib $-1 -1 $-1 $-1 $101 @10 ASM ENTITY @36 df62dd4f-ddcd-452c-9c6e-cbdade87d550 #
vertex $-1 -1 $-1 $101 $239 #
straight-curve $-1 -1 $-1 -127.0000000000000142 35 0 -10 0 0 I I #
point $-1 -1 $-1 -127.0000000000000284 35 2.46519032881566233e-31 #
coedge $-1 -1 $-1 $104 $240 $112 $173 reversed $19 $-1 #
coedge $-1 -1 $-1 $241 $242 $104 $162 reversed $243 $-1 #
edge $-1 -1 $-1 $244 5.400000000000000355 $164 5.500000000000000888 $104 $245 forward @7 unknown #
coedge $-1 -1 $-1 $136 $105 $242 $246 forward $137 $-1 #
vertex $-1 -1 $-1 $162 $247 #
ellipse-curve $-1 -1 $-1 -169.0000000000000284 35 24.00000000000000355 -0 -1 -0 -1.414213562373082489 0 1.41421356237310758 1 I I #
DXID-attrib $-1 -1 $-1 $108 $70 @10 ASM ENTITY @36 b4acf755-c975-48ce-8461-317bd0f53f17 #
rgb_color-st-attrib $-1 -1 $248 $-1 $109 0.8313725490196078871 0.7607843137254901578 0.5999999999999999778 #
face $249 -1 $-1 $250 $243 $4 $-1 $251 reversed single #
cone-surface $-1 -1 $-1 -169.0000000000000284 34.25 24.00000000000000355 0 -1 0 -1.414213562373082489 0 1.41421356237310758 1 I I 0 1 2 forward I I I I #
coedge $-1 -1 $-1 $252 $253 $171 $254 reversed $110 $-1 #
coedge $-1 -1 $-1 $255 $112 $170 $254 forward $71 $-1 #
coedge $-1 -1 $-1 $112 $255 $241 $256 forward $71 $-1 #
edge $-1 -1 $-1 $244 -0.7853981633974417287 $257 0.7853981633974548293 $112 $258 forward @7 unknown #
coedge $-1 -1 $-1 $114 $113 $259 $260 reversed $46 $-1 #
coedge $-1 -1 $-1 $180 $227 $113 $176 forward $19 $-1 #
edge $-1 -1 $-1 $261 -3.836054287937022522 $178 -0.5733125881400712442 $175 $262 forward @7 unknown #
edge $-1 -1 $-1 $121 -4.60624458405138526 $263 -1.343502884254436092 $119 $264 forward @7 unknown #
vertex $-1 -1 $-1 $176 $265 #
straight-curve $-1 -1 $-1 -231.9289321881345529 34.25 23.0710678118654684 0 -10 0 F -3.175000999999999962 F 3.325000999999998541 #
coedge $-1 -1 $-1 $266 $175 $116 $181 reversed $19 $-1 #
edge $-1 -1 $-1 $185 -0.3926990816987235844 $178 0.3926990816987244171 $180 $267 forward @7 unknown #
coedge $-1 -1 $-1 $268 $117 $120 $189 forward $184 $-1 #
coedge $-1 -1 $-1 $117 $268 $266 $269 forward $184 $-1 #
loop $-1 -1 $-1 $-1 $117 $218 #
vertex $-1 -1 $-1 $181 $270 #
straight-curve $-1 -1 $-1 -224.8578643762691058 34.25 26 0 10 0 F -3.325000999999998541 F 3.175000999999999962 #
coedge $-1 -1 $-1 $220 $119 $271 $272 reversed $88 $-1 #
coedge $-1 -1 $-1 $120 $273 $274 $275 reversed $88 $-1 #
edge $276 -1 $-1 $122 3.01421356237309368 $277 4.200000000000002842 $120 $91 forward @7 unknown #
point $-1 -1 $-1 -231.9289321881345529 32.00000000000001421 23.07106781186544353 #
point $-1 -1 $-1 -224.8578643762691058 31.99999999999999289 26 #
coedge $-1 -1 $-1 $278 $279 $124 $193 reversed $280 $-1 #
edge $281 -1 $-1 $198 0 $204 15.60000000000000142 $192 $282 forward @7 unknown #
coedge $-1 -1 $-1 $283 $125 $130 $208 reversed $196 $-1 #
coedge $-1 -1 $-1 $125 $283 $278 $284 forward $196 $-1 #
loop $-1 -1 $-1 $-1 $283 $285 #
DXID-attrib $-1 -1 $-1 $-1 $126 @10 ASM ENTITY @36 5f190ff4-9d69-4748-baf3-50239f430fc3 #
vertex $-1 -1 $-1 $126 $286 #
straight-curve $-1 -1 $-1 -122.0000000000000568 35 -161 10 0 0 I I #
coedge $-1 -1 $-1 $287 $127 $279 $288 reversed $202 $-1 #
coedge $-1 -1 $-1 $127 $287 $129 $207 forward $202 $-1 #
loop $-1 -1 $-1 $-1 $287 $289 #
DXID-attrib $-1 -1 $-1 $-1 $128 @10 ASM ENTITY @36 9f9970f9-d8cf-4e8d-bc51-7c4ef540bafd #
vertex $-1 -1 $-1 $193 $290 #
straight-curve $-1 -1 $-1 -5 35 -5 -10 -0 -0 I I #
coedge $-1 -1 $-1 $130 $129 $291 $292 reversed $131 $-1 #
edge $293 -1 $-1 $294 0 $133 3 $129 $295 forward @7 unknown #
edge $296 -1 $-1 $297 0 $134 3 $130 $298 forward @7 unknown #
face $299 -1 $-1 $300 $131 $4 $-1 $301 forward single #
point $-1 -1 $-1 -122.0000000000000142 35 -5 #
point $-1 -1 $-1 -122.0000000000000568 35 -161 #
coedge $-1 -1 $-1 $302 $140 $255 $303 reversed $88 $-1 #
coedge $-1 -1 $-1 $242 $241 $140 $214 reversed $243 $-1 #
edge $-1 -1 $-1 $215 -9.650000000000002132 $304 -9.550000000000000711 $140 $305 forward @7 unknown #
vertex $-1 -1 $-1 $141 $306 #
ellipse-curve $-1 -1 $-1 -169.0000000000000284 31.99999999999999289 24.00000000000000355 0 1 -1.070094481566415813e-16 -1.414213562373082489 0 1.41421356237310758 1 I I #
rgb_color-st-attrib $-1 -1 $307 $-1 $142 0.8313725490196078871 0.7607843137254901578 0.5999999999999999778 #
face $308 -1 $-1 $309 $184 $4 $-1 $14 forward single #
plane-surface $-1 -1 $-1 -127.0000000000000284 31.99999999999999289 -166 0 -1 1.070094481566415813e-16 1.070094481566415838e-15 1.070094481566415838e-15 10 forward_v I I I I #
coedge $-1 -1 $-1 $144 $187 $310 $311 reversed $88 $-1 #
coedge $-1 -1 $-1 $312 $313 $144 $222 forward $314 $-1 #
edge $-1 -1 $-1 $147 -16.60000000000000142 $315 -0 $221 $316 forward @7 unknown #
coedge $-1 -1 $-1 $236 $145 $313 $317 reversed $155 $-1 #
straight-curve $-1 -1 $-1 -127.0000000000000284 15.99999999999999645 2.46519032881566233e-31 0 -10 0 I I #
point $-1 -1 $-1 -127.0000000000000142 32.00000000000001421 0 #
DXID-attrib $-1 -1 $-1 $149 $97 @10 ASM ENTITY @36 d0f5ec39-80d7-4160-80ac-ce699db6f07d #
coedge $-1 -1 $-1 $175 $151 $318 $319 forward $19 $-1 #
coedge $-1 -1 $-1 $320 $321 $151 $229 reversed $322 $-1 #
edge $323 -1 $-1 $234 0 $324 25.5 $228 $325 forward @7 unknown #
coedge $-1 -1 $-1 $326 $152 $154 $237 reversed $232 $-1 #
coedge $-1 -1 $-1 $152 $326 $320 $327 forward $232 $-1 #
loop $-1 -1 $-1 $-1 $326 $300 #
DXID-attrib $-1 -1 $-1 $-1 $153 @10 ASM ENTITY @36 7099f38e-8466-40e0-87f4-b8f3dbe9b641 #
vertex $-1 -1 $-1 $153 $328 #
straight-curve $-1 -1 $-1 -2.997602166487922659e-14 35 0 0 0 -10 I I #
coedge $-1 -1 $-1 $154 $223 $329 $330 forward $155 $-1 #
edge $331 -1 $-1 $332 0 $157 3.5 $154 $333 forward @7 unknown #
face $334 -1 $-1 $335 $155 $4 $-1 $336 forward single #
point $-1 -1 $-1 -2.997602166487922659e-14 35 0 #
coedge $-1 -1 $-1 $160 $337 $252 $338 forward $19 $-1 #
coedge $-1 -1 $-1 $213 $161 $172 $256 reversed $243 $-1 #
coedge $-1 -1 $-1 $161 $213 $163 $246 reversed $243 $-1 #
loop $-1 -1 $-1 $-1 $241 $168 #
vertex $-1 -1 $-1 $173 $339 #
straight-curve $-1 -1 $-1 -171 35 -31.00000000000000711 0 0 10 I I #
edge $-1 -1 $-1 $164 -0.07500000000000017764 $215 0.2249999999999987566 $242 $340 forward @7 tangent #
point $-1 -1 $-1 -171 35 24.00000000000000355 #
DXID-attrib $-1 -1 $-1 $167 $109 @10 ASM ENTITY @36 d513e402-8dd2-4fcc-bb74-44c6678da18c #
rgb_color-st-attrib $-1 -1 $341 $-1 $168 0.8313725490196078871 0.7607843137254901578 0.5999999999999999778 #
face $342 -1 $-1 $343 $344 $4 $-1 $345 forward single #
plane-surface $-1 -1 $-1 -171 35 20.99999999999999645 1 0 0 0 0 10 forward_v I I I I #
coedge $-1 -1 $-1 $346 $170 $240 $338 reversed $110 $-1 #
coedge $-1 -1 $-1 $170 $346 $302 $347 reversed $110 $-1 #
edge $-1 -1 $-1 $257 0 $348 0.2999999999999989342 $170 $349 forward @7 tangent #
coedge $-1 -1 $-1 $172 $171 $212 $303 forward $71 $-1 #
edge $-1 -1 $-1 $304 -0.2999999999999989342 $244 0 $241 $350 forward @7 tangent #
vertex $-1 -1 $-1 $338 $351 #
ellipse-curve $-1 -1 $-1 -173.0000000000000568 35 23 0 1 0 1.414213562373104249 0 -1.414213562373085598 1 I I #
coedge $-1 -1 $-1 $318 $271 $174 $260 forward $352 $-1 #
edge $-1 -1 $-1 $263 -0.2249999999999987566 $261 0.07500000000000017764 $259 $353 forward @7 unknown #
vertex $-1 -1 $-1 $319 $354 #
straight-curve $-1 -1 $-1 -227.875 35 27.12500000000001421 7.071067811865477282 0 7.071067811865473729 I I #
vertex $-1 -1 $-1 $260 $355 #
straight-curve $-1 -1 $-1 -264.5 32.00000000000001421 -9.499999999999984013 -7.071067811865477282 -7.56671064425915383e-16 -7.071067811865473729 I I #
point $-1 -1 $-1 -231.9289321881345529 35 23.0710678118654684 #
coedge $-1 -1 $-1 $356 $180 $183 $269 reversed $19 $-1 #
ellipse-curve $-1 -1 $-1 -224.8578643762691058 35 16 -0 -1 -0 -3.826834323650892156 0 9.238795325112869605 1 I I #
coedge $-1 -1 $-1 $183 $182 $357 $358 reversed $184 $-1 #
edge $359 -1 $-1 $360 21.29999999999999716 $185 22.48578643762690632 $266 $86 forward @7 unknown #
point $-1 -1 $-1 -224.8578643762691058 35 26 #
coedge $-1 -1 $-1 $259 $361 $187 $272 forward $352 $-1 #
edge $362 -1 $-1 $363 0 $263 16.60000000000000142 $187 $364 forward @7 unknown #
coedge $-1 -1 $-1 $188 $365 $366 $367 forward $88 $-1 #
coedge $-1 -1 $-1 $368 $357 $188 $275 forward $344 $-1 #
edge $-1 -1 $-1 $277 -0.7853981633974371768 $369 0.7853981633974616017 $188 $370 forward @7 unknown #
DXID-attrib $-1 -1 $-1 $-1 $189 @10 ASM ENTITY @36 861571a5-4dd4-4355-851c-21ea48a75414 #
vertex $-1 -1 $-1 $358 $371 #
coedge $-1 -1 $-1 $372 $192 $195 $284 reversed $280 $-1 #
coedge $-1 -1 $-1 $192 $372 $200 $288 forward $280 $-1 #
loop $-1 -1 $-1 $-1 $372 $373 #
DXID-attrib $-1 -1 $-1 $-1 $193 @10 ASM ENTITY @36 e460dfd0-acba-4ff7-bb47-7c4257700131 #
straight-curve $-1 -1 $-1 -5.000000000000035527 35 -161 2.27738056333365424e-15 0 10 I I #
coedge $-1 -1 $-1 $195 $194 $374 $375 reversed $196 $-1 #
edge $376 -1 $-1 $377 0 $198 3 $195 $378 forward @7 unknown #
face $379 -1 $-1 $209 $196 $4 $-1 $380 forward single #
point $-1 -1 $-1 -5.000000000000035527 35 -161 #
coedge $-1 -1 $-1 $201 $200 $381 $382 reversed $202 $-1 #
edge $383 -1 $-1 $384 0 $204 3 $279 $385 forward @7 unknown #
face $386 -1 $-1 $373 $202 $4 $-1 $387 forward single #
point $-1 -1 $-1 -5 35 -5 #
coedge $-1 -1 $-1 $381 $374 $206 $292 forward $388 $-1 #
edge $-1 -1 $-1 $297 -11.70000000000000284 $294 3.899999999999999467 $291 $389 forward @7 unknown #
DXID-attrib $-1 -1 $-1 $-1 $207 @10 ASM ENTITY @36 41be617c-e3fb-4cfa-b7d0-a21f10e59ffd #
vertex $-1 -1 $-1 $382 $390 #
straight-curve $-1 -1 $-1 -122.0000000000000142 5 -5 0 10 0 I I #
DXID-attrib $-1 -1 $-1 $-1 $208 @10 ASM ENTITY @36 b70d8c14-4c35-4b33-ba30-8fa54a1c3fc6 #
vertex $-1 -1 $-1 $375 $391 #
straight-curve $-1 -1 $-1 -122.0000000000000568 5 -161 0 10 0 I I #
rgb_color-st-attrib $-1 -1 $392 $-1 $209 0.8313725490196078871 0.7607843137254901578 0.5999999999999999778 #
face $393 -1 $-1 $238 $232 $4 $-1 $394 forward single #
plane-surface $-1 -1 $-1 -122.0000000000000142 5 -5 1 0 -3.416070845000481359e-16 -3.416070845000481359e-15 -0 -10 forward_v I I I I #
coedge $-1 -1 $-1 $365 $212 $253 $347 forward $88 $-1 #
edge $-1 -1 $-1 $348 -0.7853981633974548293 $304 0.7853981633974417287 $255 $395 forward @7 unknown #
vertex $-1 -1 $-1 $303 $396 #
straight-curve $-1 -1 $-1 -171 32 -72.50000000000001421 0 -1.070094481566415838e-15 -10 I I #
point $-1 -1 $-1 -171 32.00000000000001421 24.00000000000001421 #
DXID-attrib $-1 -1 $-1 $217 $142 @10 ASM ENTITY @36 ff08cd82-980f-4ef7-8e1c-89da90ac4cef #
rgb_color-st-attrib $-1 -1 $397 $-1 $218 0.8313725490196078871 0.7607843137254901578 0.5999999999999999778 #
face $398 -1 $-1 $289 $352 $4 $-1 $399 forward single #
coedge $-1 -1 $-1 $321 $400 $220 $311 forward $322 $-1 #
edge $401 -1 $-1 $315 0 $363 12.80000000000000071 $310 $402 forward @7 unknown #
coedge $-1 -1 $-1 $403 $221 $400 $404 reversed $314 $-1 #
coedge $-1 -1 $-1 $221 $403 $223 $317 forward $314 $-1 #
loop $-1 -1 $-1 $-1 $221 $335 #
vertex $-1 -1 $-1 $311 $405 #
straight-curve $-1 -1 $-1 -127.0000000000000284 31.99999999999999289 -166 -1.070094481566415838e-15 -1.070094481566415838e-15 -10 I I #
edge $406 -1 $-1 $407 0 $147 3.200000000000001066 $313 $408 forward @7 unknown #
coedge $-1 -1 $-1 $361 $259 $227 $319 reversed $352 $-1 #
edge $409 -1 $-1 $324 -16.60000000000000142 $261 -4.949791605102313213e-32 $227 $410 forward @7 unknown #
coedge $-1 -1 $-1 $411 $228 $231 $327 reversed $322 $-1 #
coedge $-1 -1 $-1 $228 $310 $361 $412 reversed $322 $-1 #
loop $-1 -1 $-1 $-1 $411 $413 #
DXID-attrib $-1 -1 $-1 $-1 $229 @10 ASM ENTITY @36 c3c98f5c-c0b5-4977-9046-af156844e678 #
vertex $-1 -1 $-1 $229 $414 #
straight-curve $-1 -1 $-1 -2.997602166487922659e-14 35 -166 -10 0 0 I I #
coedge $-1 -1 $-1 $231 $230 $415 $416 forward $232 $-1 #
edge $417 -1 $-1 $418 0 $234 3.5 $320 $419 forward @7 unknown #
point $-1 -1 $-1 -2.997602166487922659e-14 35 -166 #
coedge $-1 -1 $-1 $420 $415 $236 $330 reversed $421 $-1 #
edge $422 -1 $-1 $407 0 $332 12.70000000000000107 $236 $423 forward @7 unknown #
DXID-attrib $-1 -1 $-1 $-1 $237 @10 ASM ENTITY @36 028ba710-4de5-4cb9-a7b8-91f67f038623 #
vertex $-1 -1 $-1 $416 $424 #
straight-curve $-1 -1 $-1 0 0 0 0 10 0 I I #
rgb_color-st-attrib $-1 -1 $425 $-1 $238 0.8313725490196078871 0.7607843137254901578 0.5999999999999999778 #
face $426 -1 $-1 $413 $314 $4 $-1 $427 forward single #
plane-surface $-1 -1 $-1 -127.0000000000000142 0 2.465190328815661892e-31 1.941094747098946345e-33 0 1 10 0 -1.941094747098946208e-32 forward_v I I I I #
coedge $-1 -1 $-1 $240 $428 $429 $430 reversed $19 $-1 #
edge $-1 -1 $-1 $431 -7.175000000000002487 $257 -3.575000000000004619 $240 $432 forward @7 unknown #
point $-1 -1 $-1 -171 35 23 #
straight-curve $-1 -1 $-1 -171 34.25 24.00000000000000355 0 -10 0 F -0.695001000000000424 F 0.8450009999999985588 #
DXID-attrib $-1 -1 $-1 $249 $168 @10 ASM ENTITY @36 5ce1207c-d59a-4275-8947-9f9aef7a6222 #
rgb_color-st-attrib $-1 -1 $433 $-1 $250 0.8313725490196078871 0.7607843137254901578 0.5999999999999999778 #
face $434 -1 $-1 $435 $436 $4 $-1 $437 reversed single #
loop $-1 -1 $-1 $-1 $438 $250 #
cone-surface $-1 -1 $-1 -213 34.25 24 0 1 0 1.41421356237307938 0 1.414213562373110911 1 I I 0 1 2 forward I I I I #
coedge $-1 -1 $-1 $253 $252 $439 $440 reversed $110 $-1 #
edge $-1 -1 $-1 $348 0.4000000000000056843 $441 4.000000000000003553 $302 $442 forward @7 unknown #
vertex $-1 -1 $-1 $254 $443 #
straight-curve $-1 -1 $-1 -173.0000000000000568 35 20.99999999999999645 0 -10 0 F -0.6200010000000002464 F 0.9200009999999991805 #
straight-curve $-1 -1 $-1 -171 35 23 0 10 0 F -0.9200009999999991805 F 0.6200010000000002464 #
point $-1 -1 $-1 -173.0000000000000568 35 21 #
loop $-1 -1 $-1 $-1 $259 $309 #
straight-curve $-1 -1 $-1 -255.0000000000000284 34.25 -8.881784197001252323e-15 0 10 0 I I #
point $-1 -1 $-1 -255.0000000000000284 35 0 #
point $-1 -1 $-1 -255.0000000000000284 32.00000000000001421 0 #
coedge $-1 -1 $-1 $428 $266 $438 $444 reversed $19 $-1 #
coedge $-1 -1 $-1 $274 $438 $268 $358 forward $344 $-1 #
edge $-1 -1 $-1 $360 -0.07500000000000017764 $277 0.2250000000000005329 $268 $445 forward @7 tangent #
DXID-attrib $-1 -1 $-1 $-1 $269 @10 ASM ENTITY @36 40558146-477e-41e9-8265-51b9d0533a6f #
vertex $-1 -1 $-1 $269 $446 #
coedge $-1 -1 $-1 $271 $318 $321 $412 forward $352 $-1 #
DXID-attrib $-1 -1 $-1 $-1 $272 @10 ASM ENTITY @36 5bc8a28d-b6c2-493d-afcb-27177eefef3a #
vertex $-1 -1 $-1 $272 $447 #
straight-curve $-1 -1 $-1 -255.0000000000000284 31.99999999999999289 -166 1.070094481566415838e-15 1.070094481566415838e-15 10 I I #
coedge $-1 -1 $-1 $273 $302 $448 $449 reversed $88 $-1 #
coedge $-1 -1 $-1 $450 $451 $273 $367 reversed $436 $-1 #
edge $-1 -1 $-1 $452 9.300000000000000711 $369 9.400000000000000355 $273 $453 forward @7 unknown #
coedge $-1 -1 $-1 $438 $274 $451 $454 forward $344 $-1 #
vertex $-1 -1 $-1 $275 $455 #
ellipse-curve $-1 -1 $-1 -213 31.99999999999999289 24 0 1 -1.070094481566415813e-16 1.41421356237307938 0 1.414213562373110911 1 I I #
point $-1 -1 $-1 -213 31.99999999999999289 26 #
coedge $-1 -1 $-1 $279 $278 $456 $457 reversed $280 $-1 #
face $458 -1 $-1 $285 $280 $4 $-1 $459 forward single #
coedge $-1 -1 $-1 $291 $456 $283 $375 forward $388 $-1 #
edge $-1 -1 $-1 $377 -8.775000000000000355 $297 2.925000000000002487 $374 $460 forward @7 unknown #
DXID-attrib $-1 -1 $-1 $-1 $284 @10 ASM ENTITY @36 cc3fa797-af0e-4a2f-92f4-2dbf8dc48484 #
vertex $-1 -1 $-1 $457 $461 #
straight-curve $-1 -1 $-1 -5.000000000000035527 5 -161 0 10 0 I I #
rgb_color-st-attrib $-1 -1 $462 $-1 $285 0.8313725490196078871 0.7607843137254901578 0.5999999999999999778 #
plane-surface $-1 -1 $-1 -122.0000000000000568 5 -161 0 0 1 10 0 0 forward_v I I I I #
coedge $-1 -1 $-1 $456 $291 $287 $382 forward $388 $-1 #
edge $-1 -1 $-1 $294 -8.775000000000000355 $384 2.925000000000000711 $381 $463 forward @7 unknown #
DXID-attrib $-1 -1 $-1 $-1 $288 @10 ASM ENTITY @36 bbb1aa8f-fa27-4708-8eca-fbe25040e984 #
vertex $-1 -1 $-1 $382 $464 #
straight-curve $-1 -1 $-1 -5 5 -5 0 10 0 I I #
rgb_color-st-attrib $-1 -1 $465 $-1 $289 0.8313725490196078871 0.7607843137254901578 0.5999999999999999778 #
plane-surface $-1 -1 $-1 -5 5 -5 0 0 -1 -10 -0 -0 forward_v I I I I #
loop $-1 -1 $-1 $-1 $381 $466 #
straight-curve $-1 -1 $-1 -122.0000000000000284 5 -43.99999999999999289 3.416070845000481359e-15 0 10 I I #
point $-1 -1 $-1 -122.0000000000000142 5 -5 #
point $-1 -1 $-1 -122.0000000000000568 5 -161 #
DXID-attrib $-1 -1 $-1 $299 $209 @10 ASM ENTITY @36 3f233ce0-0b60-4d3c-abfc-634821c8e221 #
rgb_color-st-attrib $-1 -1 $467 $-1 $300 0.8313725490196078871 0.7607843137254901578 0.5999999999999999778 #
plane-surface $-1 -1 $-1 0 0 0 1 0 -1.805784437643326677e-16 -1.805784437643326875e-15 -0 -10 forward_v I I I I #
ellipse-curve $-1 -1 $-1 -173.0000000000000568 31.99999999999999289 23 0 -1 1.070094481566415813e-16 1.414213562373104249 0 -1.414213562373085598 1 I I #
point $-1 -1 $-1 -171 32.00000000000001421 23 #
DXID-attrib $-1 -1 $-1 $308 $218 @10 ASM ENTITY @36 2148e5e5-2315-4ab7-8530-6be584992180 #
rgb_color-st-attrib $-1 -1 $468 $-1 $309 0.8313725490196078871 0.7607843137254901578 0.5999999999999999778 #
plane-surface $-1 -1 $-1 -255.0000000000000284 33.5 -83 -1 0 0 0 0 10 forward_v I I I I #
coedge $-1 -1 $-1 $310 $411 $312 $404 forward $322 $-1 #
DXID-attrib $-1 -1 $-1 $-1 $311 @10 ASM ENTITY @36 84e8871a-5768-4601-9418-5aac062f132c #
straight-curve $-1 -1 $-1 -127.0000000000000284 31.99999999999999289 -166 -10 0 0 I I #
coedge $-1 -1 $-1 $313 $312 $420 $469 forward $314 $-1 #
edge $470 -1 $-1 $471 0 $315 3.199999999999999289 $400 $472 forward @7 unknown #
point $-1 -1 $-1 -127.0000000000000284 31.99999999999999289 -166 #
DXID-attrib $-1 -1 $-1 $-1 $317 @10 ASM ENTITY @36 e2b8c9ad-adb0-4ee2-94b3-4608e781aa67 #
vertex $-1 -1 $-1 $317 $473 #
straight-curve $-1 -1 $-1 -127.0000000000000142 0 2.465190328815661892e-31 0 10 0 I I #
DXID-attrib $-1 -1 $-1 $-1 $319 @10 ASM ENTITY @36 84e3aecc-7beb-454f-98fc-699b3d4e8b10 #
straight-curve $-1 -1 $-1 -255.0000000000000284 35 4.949791605102313213e-31 0 0 10 I I #
coedge $-1 -1 $-1 $400 $320 $474 $475 forward $322 $-1 #
edge $476 -1 $-1 $324 -0 $363 0.3000000000000007105 $321 $477 forward @7 unknown #
face $478 -1 $-1 $466 $322 $4 $-1 $479 forward single #
point $-1 -1 $-1 -255.0000000000000284 35 -166 #
coedge $-1 -1 $-1 $329 $474 $326 $416 reversed $421 $-1 #
edge $480 -1 $-1 $332 -0 $418 16.60000000000000142 $326 $481 forward @7 unknown #
DXID-attrib $-1 -1 $-1 $-1 $327 @10 ASM ENTITY @36 bcf525b8-2589-4a94-a638-3727eb10da44 #
vertex $-1 -1 $-1 $416 $482 #
straight-curve $-1 -1 $-1 -2.997602166487922659e-14 0 -166 0 10 0 I I #
coedge $-1 -1 $-1 $474 $329 $403 $469 reversed $421 $-1 #
loop $-1 -1 $-1 $-1 $474 $483 #
DXID-attrib $-1 -1 $-1 $-1 $330 @10 ASM ENTITY @36 93b653ee-b081-4953-a823-c7881fb1f92a #
straight-curve $-1 -1 $-1 -127.0000000000000142 0 2.465190328815661892e-31 10 0 -1.941094747098946208e-32 F 0 F 12.70000000000000107 #
point $-1 -1 $-1 0 0 0 #
DXID-attrib $-1 -1 $-1 $334 $238 @10 ASM ENTITY @36 7c796cb3-61fd-49ec-9732-7e6bce66c89c #
rgb_color-st-attrib $-1 -1 $484 $-1 $335 0.8313725490196078871 0.7607843137254901578 0.5999999999999999778 #
plane-surface $-1 -1 $-1 -127.0000000000000284 0 -166 -1 0 1.070094481566415813e-16 1.070094481566415838e-15 0 10 forward_v I I I I #
coedge $-1 -1 $-1 $337 $356 $485 $486 forward $19 $-1 #
coedge $-1 -1 $-1 $487 $439 $337 $430 forward $488 $-1 #
edge $-1 -1 $-1 $431 -0.7853981633974371768 $489 0.7853981633974571608 $429 $490 forward @7 unknown #
vertex $-1 -1 $-1 $430 $491 #
straight-curve $-1 -1 $-1 -137.25 35 20.99999999999999289 10 0 -2.220446049250313081e-15 I I #
DXID-attrib $-1 -1 $-1 $342 $250 @10 ASM ENTITY @36 88aceb2d-00f5-47d1-bb76-deff523cea7f #
rgb_color-st-attrib $-1 -1 $492 $-1 $343 0.8313725490196078871 0.7607843137254901578 0.5999999999999999778 #
face $493 -1 $-1 $97 $488 $4 $-1 $494 forward single #
loop $-1 -1 $-1 $-1 $451 $343 #
plane-surface $-1 -1 $-1 -211 35 26 -1 0 0 -0 -0 -10 forward_v I I I I #
coedge $-1 -1 $-1 $357 $368 $356 $444 forward $344 $-1 #
coedge $-1 -1 $-1 $429 $448 $346 $440 forward $488 $-1 #
edge $-1 -1 $-1 $441 -0.2999999999999989342 $431 0 $346 $495 forward @7 tangent #
vertex $-1 -1 $-1 $440 $496 #
straight-curve $-1 -1 $-1 -169 32.00000000000001421 20.99999999999999645 -10 2.376087063918710025e-31 2.220446049250313081e-15 I I #
point $-1 -1 $-1 -173.0000000000000568 32.00000000000001421 20.99999999999999645 #
edge $-1 -1 $-1 $497 -0.7853981633974616017 $360 0.7853981633974371768 $356 $498 forward @7 unknown #
straight-curve $-1 -1 $-1 -213 34.25 26 0 -10 0 F -0.695001000000000424 F 0.8450009999999985588 #
point $-1 -1 $-1 -213 35 26 #
point $-1 -1 $-1 -255.0000000000000284 31.99999999999999289 -166 #
coedge $-1 -1 $-1 $439 $487 $365 $449 forward $488 $-1 #
edge $-1 -1 $-1 $452 -0.7853981633974571608 $441 0.7853981633974371768 $448 $499 forward @7 unknown #
coedge $-1 -1 $-1 $485 $366 $487 $500 reversed $436 $-1 #
coedge $-1 -1 $-1 $366 $485 $368 $454 reversed $436 $-1 #
vertex $-1 -1 $-1 $367 $501 #
straight-curve $-1 -1 $-1 -211 32 -70.00000000000001421 0 1.070094481566415838e-15 10 I I #
edge $-1 -1 $-1 $369 -0.2249999999999987566 $497 0.07500000000000017764 $451 $502 forward @7 tangent #
point $-1 -1 $-1 -211 32.00000000000001421 23.99999999999999289 #
coedge $-1 -1 $-1 $374 $381 $372 $457 forward $388 $-1 #
edge $-1 -1 $-1 $384 -11.70000000000000107 $377 3.900000000000000355 $456 $503 forward @7 unknown #
rgb_color-st-attrib $-1 -1 $504 $-1 $373 0.8313725490196078871 0.7607843137254901578 0.5999999999999999778 #
plane-surface $-1 -1 $-1 -5.000000000000035527 5 -161 -1 0 2.27738056333365424e-16 2.27738056333365424e-15 0 10 forward_v I I I I #
straight-curve $-1 -1 $-1 -92.75000000000004263 5 -161 -10 0 0 I I #
point $-1 -1 $-1 -5.000000000000035527 5 -161 #
DXID-attrib $-1 -1 $-1 $379 $285 @10 ASM ENTITY @36 c2bb5fef-4164-4098-a8b3-d50e42d06d65 #
straight-curve $-1 -1 $-1 -34.25000000000000711 5 -5 10 0 0 I I #
point $-1 -1 $-1 -5 5 -5 #
DXID-attrib $-1 -1 $-1 $386 $289 @10 ASM ENTITY @36 7d7aab7e-b093-4c7f-a40a-d6fef96b857e #
face $505 -1 $-1 $483 $388 $4 $-1 $506 forward single #
DXID-attrib $-1 -1 $-1 $393 $300 @10 ASM ENTITY @36 3b2bfde2-1b20-4e35-a850-23fc459ef33a #
DXID-attrib $-1 -1 $-1 $398 $309 @10 ASM ENTITY @36 f28afd10-b9ca-47da-963a-ecb5b5990125 #
edge $507 -1 $-1 $471 0 $407 16.60000000000000142 $403 $508 forward @7 unknown #
DXID-attrib $-1 -1 $-1 $-1 $404 @10 ASM ENTITY @36 fb3d0400-f199-48b9-b7a5-31612cfd8af3 #
vertex $-1 -1 $-1 $404 $509 #
straight-curve $-1 -1 $-1 -127.0000000000000284 0 -166 0 10 0 I I #
point $-1 -1 $-1 -127.0000000000000142 0 2.465190328815661892e-31 #
coedge $-1 -1 $-1 $415 $420 $411 $475 reversed $421 $-1 #
edge $510 -1 $-1 $418 -5.551115123125782702e-16 $471 12.69999999999999929 $411 $511 forward @7 unknown #
DXID-attrib $-1 -1 $-1 $-1 $412 @10 ASM ENTITY @36 30ebcc7e-f499-4ebe-8f64-f78a2721111e #
straight-curve $-1 -1 $-1 -255.0000000000000284 35 -166 -0 -10 -0 I I #
rgb_color-st-attrib $-1 -1 $512 $-1 $413 0.8313725490196078871 0.7607843137254901578 0.5999999999999999778 #
plane-surface $-1 -1 $-1 -2.997602166487922659e-14 0 -166 0 0 -1 -10 -0 -0 forward_v I I I I #
DXID-attrib $-1 -1 $-1 $-1 $416 @10 ASM ENTITY @36 7e4fcbeb-2fbb-4a0f-9076-ade4e71863a2 #
straight-curve $-1 -1 $-1 0 0 0 -1.805784437643326875e-15 -0 -10 F -0 F 16.60000000000000142 #
point $-1 -1 $-1 -2.997602166487922659e-14 0 -166 #
face $513 -1 $-1 $-1 $421 $4 $-1 $514 reversed single #
DXID-attrib $-1 -1 $-1 $426 $335 @10 ASM ENTITY @36 8467d1aa-eb86-4250-ad05-f2e823f6a112 #
coedge $-1 -1 $-1 $451 $450 $428 $486 reversed $436 $-1 #
edge $-1 -1 $-1 $497 -5.25 $489 -5.150000000000000355 $428 $515 forward @7 unknown #
coedge $-1 -1 $-1 $448 $429 $450 $500 forward $488 $-1 #
loop $-1 -1 $-1 $-1 $429 $435 #
vertex $-1 -1 $-1 $486 $516 #
ellipse-curve $-1 -1 $-1 -209.0000000000000284 35 23.00000000000000355 0 1 0 -1.41421356237307938 0 -1.414213562373110911 1 I I #
point $-1 -1 $-1 -209.0000000000000284 35 21.00000000000001066 #
DXID-attrib $-1 -1 $-1 $434 $343 @10 ASM ENTITY @36 5a4c6582-af84-465f-a2cf-4d6d0f9f8683 #
rgb_color-st-attrib $-1 -1 $517 $-1 $435 0.8313725490196078871 0.7607843137254901578 0.5999999999999999778 #
cone-surface $-1 -1 $-1 -209.0000000000000284 35 23.00000000000000355 0 -1 0 -1.41421356237307938 0 -1.414213562373110911 1 I I 0 -1 2 forward I I I I #
straight-curve $-1 -1 $-1 -209.0000000000000284 35 21.00000000000000711 0 10 0 F -0.9200009999999991805 F 0.6200010000000002464 #
point $-1 -1 $-1 -209.0000000000000284 32.00000000000001421 21.00000000000000711 #
vertex $-1 -1 $-1 $444 $518 #
ellipse-curve $-1 -1 $-1 -213 35 24 -0 -1 -0 1.41421356237307938 0 1.414213562373110911 1 I I #
ellipse-curve $-1 -1 $-1 -209.0000000000000284 31.99999999999999289 23.00000000000000355 0 -1 1.070094481566415813e-16 -1.41421356237307938 0 -1.414213562373110911 1 I I #
edge $-1 -1 $-1 $489 -0 $452 0.2999999999999989342 $450 $519 forward @7 tangent #
point $-1 -1 $-1 -211 32.00000000000001421 23 #
straight-curve $-1 -1 $-1 -211 34.25 24 0 10 0 F -0.8450009999999985588 F 0.695001000000000424 #
straight-curve $-1 -1 $-1 -5.000000000000026645 5 -122.0000000000000142 -2.27738056333365424e-15 0 -10 I I #
DXID-attrib $-1 -1 $-1 $458 $373 @10 ASM ENTITY @36 d3f420ce-1376-4112-a136-875a0724b656 #
rgb_color-st-attrib $-1 -1 $520 $-1 $466 0.8313725490196078871 0.7607843137254901578 0.5999999999999999778 #
plane-surface $-1 -1 $-1 -63.50000000000001421 5 -83 0 1 0 0 0 10 forward_v I I I I #
DXID-attrib $-1 -1 $-1 $-1 $469 @10 ASM ENTITY @36 f4ada05a-9438-4245-b68c-6cee8e216030 #
straight-curve $-1 -1 $-1 -127.0000000000000284 0 -166 1.070094481566415838e-15 0 10 F 0 F 16.60000000000000142 #
point $-1 -1 $-1 -127.0000000000000284 0 -166 #
DXID-attrib $-1 -1 $-1 $-1 $475 @10 ASM ENTITY @36 7707394d-b6a1-4c17-8fd9-28dacfae5225 #
straight-curve $-1 -1 $-1 -3.552713678800500929e-14 0 -166 -10 -0 -0 F -5.551115123125782702e-16 F 12.69999999999999929 #
DXID-attrib $-1 -1 $-1 $478 $413 @10 ASM ENTITY @36 be0e0e72-d355-444d-9efc-f87b8484ad02 #
rgb_color-st-attrib $-1 -1 $521 $-1 $483 0.8313725490196078871 0.7607843137254901578 0.5999999999999999778 #
plane-surface $-1 -1 $-1 -63.50000000000001421 0 -83 0 1 0 0 0 10 forward_v I I I I #
straight-curve $-1 -1 $-1 -211 35 -28.50000000000000711 0 0 -10 I I #
point $-1 -1 $-1 -211 35 23 #
DXID-attrib $-1 -1 $-1 $493 $435 @10 ASM ENTITY @36 3778c1a8-39fe-43c2-9698-1b6560fe89f9 #
point $-1 -1 $-1 -211 35 23.99999999999999289 #
straight-curve $-1 -1 $-1 -211 35 23.00000000000000355 0 -10 0 F -0.6200010000000002464 F 0.9200009999999991805 #
DXID-attrib $-1 -1 $-1 $505 $466 @10 ASM ENTITY @36 445e7741-440e-4a69-aef1-4e6fdedf36ef #
DXID-attrib $-1 -1 $-1 $513 $483 @10 ASM ENTITY @36 f21bfd0c-c521-469d-b3bc-64b4937f794a #
End-of-ACIS-data 